<svg id="logo_02" xmlns="http://www.w3.org/2000/svg" xmlns:xlink="http://www.w3.org/1999/xlink" width="200" height="65" viewBox="0 0 504 162.551">
  <defs>
    <linearGradient id="linear-gradient" x1="0.146" y1="0.888" x2="0.764" y2="0.211" gradientUnits="objectBoundingBox">
      <stop offset="0" stop-color="#415fff"/>
      <stop offset="1" stop-color="#08dcff"/>
    </linearGradient>
    <linearGradient id="linear-gradient-2" x1="-2.673" y1="-0.849" x2="3.157" y2="1.76" xlink:href="#linear-gradient"/>
    <linearGradient id="linear-gradient-3" x1="-11.683" y1="-1.173" x2="7.312" y2="1.435" xlink:href="#linear-gradient"/>
    <linearGradient id="linear-gradient-4" x1="-4.232" y1="-2.156" x2="2.049" y2="1.277" xlink:href="#linear-gradient"/>
    <linearGradient id="linear-gradient-5" x1="-5.254" y1="-2.519" x2="1.165" y2="0.851" xlink:href="#linear-gradient"/>
  </defs>
  <rect id="bound" width="504" height="162" transform="translate(0 0)" fill="none"/>
  <g id="Group_751" data-name="Group 751" transform="translate(-467.028 -1703.723)">
    <g id="Group_749" data-name="Group 749" transform="translate(467.028 1703.723)">
      <rect id="Rectangle_303" data-name="Rectangle 303" width="162.551" height="162.551" rx="81.275" fill="url(#linear-gradient)"/>
      <g id="Group_748" data-name="Group 748" transform="translate(54.071 40.878)">
        <path id="Path_448" data-name="Path 448" d="M594.688,1798.111l-50.138,28.946a.2.2,0,0,1-.024.015l-1.771,1.023-.669.38-.012,0-1.8,1.021a6.137,6.137,0,0,1-7.478-1.049,6.013,6.013,0,0,1-.551-.654,6.137,6.137,0,0,1,1.894-8.923l1.379-.8,2.571-1.48,0,0,6.381-3.67.029-.013a1.757,1.757,0,0,0,.165-.091l2.93-1.689,18.4-10.625,14.141-8.163a3.186,3.186,0,0,0,0-5.518l-35.469-20.48a3.187,3.187,0,0,0-4.78,2.759v9.508a6.135,6.135,0,1,1-12.27,0v-19.229a9.844,9.844,0,0,1,14.766-8.524l52.305,30.2A9.843,9.843,0,0,1,594.688,1798.111Z" transform="translate(-527.616 -1749.528)" fill="#fff"/>
        <g id="Group_747" data-name="Group 747" transform="translate(0 41.566)">
          <path id="Path_449" data-name="Path 449" d="M530.619,1809.5a3,3,0,0,1,0-6.006h13.2a3,3,0,1,1,0,6.006Z" transform="translate(-527.616 -1796.898)" fill="#fff"/>
          <path id="Path_450" data-name="Path 450" d="M538.013,1815.307a3.007,3.007,0,0,1-3-3v-13.2a3,3,0,0,1,6.007,0v13.2A3.007,3.007,0,0,1,538.013,1815.307Z" transform="translate(-528.411 -1796.103)" fill="#fff"/>
        </g>
      </g>
    </g>
    <g id="Group_750" data-name="Group 750" transform="translate(695.867 1735.764)">
      <path id="Path_451" data-name="Path 451" d="M794.655,1755.67a30.135,30.135,0,0,0-12.259-11.8q-7.944-4.242-18.847-4.245h-40.1v18.915h35.031a19.754,19.754,0,0,1,8.867,1.8,12.5,12.5,0,0,1,5.456,5.1,17.372,17.372,0,0,1,0,15.595,12.692,12.692,0,0,1-5.428,5.191,19.2,19.2,0,0,1-8.9,1.855H746.914v-.021H723.446v48.658h23.468v-30.152h15.927q11.143,0,19.249-4.121a29.691,29.691,0,0,0,12.5-11.639,34.288,34.288,0,0,0,4.385-17.568A34.857,34.857,0,0,0,794.655,1755.67Z" transform="translate(-723.446 -1739.625)" fill="url(#linear-gradient-2)"/>
      <path id="Path_452" data-name="Path 452" d="M820.975,1739.625v97.094h23.182v-97.094Z" transform="translate(-733.936 -1739.625)" fill="url(#linear-gradient-3)"/>
      <path id="Path_453" data-name="Path 453" d="M910.4,1766.823v41.39a14.759,14.759,0,0,1-1.633,7.186,11.239,11.239,0,0,1-4.413,4.5,12.586,12.586,0,0,1-6.233,1.536,10.73,10.73,0,0,1-8.4-3.412q-3.075-3.408-3.127-9.34v-41.863H863.42v46.414a31.761,31.761,0,0,0,3.175,14.392,23.192,23.192,0,0,0,8.77,9.548,26.9,26.9,0,0,0,27.1-.493,21.11,21.11,0,0,0,8.227-10.6h.758v13.557h22.092v-72.821Z" transform="translate(-738.501 -1742.55)" fill="url(#linear-gradient-4)"/>
      <path id="Path_454" data-name="Path 454" d="M1018.115,1803.408q-5.325-4.837-16.233-6.922l-14.037-2.654q-4.6-.949-6.373-2.516a4.619,4.619,0,0,1-1.73-3.7,4.768,4.768,0,0,1,2.773-4.364,15.168,15.168,0,0,1,12.279-.591,10.085,10.085,0,0,1,3.815,2.793,8.091,8.091,0,0,1,1.8,4.059l21.286-.57a22.291,22.291,0,0,0-9.43-17q-8.537-6.182-23.329-6.185a48.369,48.369,0,0,0-17.115,2.744,24.569,24.569,0,0,0-11.189,7.943,19.856,19.856,0,0,0-3.885,12.5,18.465,18.465,0,0,0,5.309,13.725q5.359,5.379,16.31,7.373l12.7,2.418a17.579,17.579,0,0,1,6.685,2.342,4.751,4.751,0,0,1,2.181,3.962,5.091,5.091,0,0,1-2.841,4.405,14.052,14.052,0,0,1-7.256,1.661,14.514,14.514,0,0,1-8.11-2.085,8.942,8.942,0,0,1-3.933-6.066l-22.9.569a23.817,23.817,0,0,0,10.264,17.234q8.985,6.422,24.579,6.421a46.183,46.183,0,0,0,17.353-3.058,28.386,28.386,0,0,0,11.973-8.6,20.67,20.67,0,0,0,4.434-13.037Q1023.448,1808.245,1018.115,1803.408Z" transform="translate(-748.339 -1742.436)" fill="url(#linear-gradient-5)"/>
    </g>
  </g>
</svg>
