<svg id="apple" xmlns="http://www.w3.org/2000/svg" width="24" height="24" viewBox="0 0 24 24">
  <rect id="boundry" width="24" height="24" fill="none"/>
  <path id="base" d="M15.641,12.75a5.276,5.276,0,0,0,3.087,4.856,13.405,13.405,0,0,1-1.592,3.413c-.959,1.462-1.954,2.919-3.521,2.949-1.54.03-2.035-.953-3.8-.953s-2.31.923-3.768.983c-1.513.06-2.665-1.581-3.631-3.038C.444,17.981-1.065,12.541.962,8.869A5.6,5.6,0,0,1,5.721,5.861C7.207,5.831,8.609,6.9,9.517,6.9s2.612-1.29,4.4-1.1a5.3,5.3,0,0,1,4.207,2.381,5.448,5.448,0,0,0-2.486,4.567M12.747,3.832A5.437,5.437,0,0,0,13.943,0a5.087,5.087,0,0,0-3.388,1.819,5.159,5.159,0,0,0-1.22,3.712,4.2,4.2,0,0,0,3.412-1.7" transform="translate(2.636)"/>
</svg>
