<svg xmlns="http://www.w3.org/2000/svg" width="45" height="45" viewBox="0 0 45 45">
    <rect data-name="Rectangle 229" width="45" height="45" rx="9" style="fill:rgba(215,35,35,.3)"/>
    <g data-name="Sign in with Apple">
        <g data-name="Button Background">
            <path data-name="Button Background background" style="fill:transparent" d="M0 0h45v45H0z"/>
            <rect data-name="Button Shape" width="45" height="45" rx="6.136" style="fill:#fff"/>
        </g>
        <path data-name=" Sign in with Apple" d="M3.233-13.339a4.16 4.16 0 0 1 3.64 1.839l-.094.059a2.408 2.408 0 0 0-.2.141l-.265.218a3.709 3.709 0 0 0-.312.3q-.153.165-.318.371a2.872 2.872 0 0 0-.3.465 5.12 5.12 0 0 0-.248.553 3.682 3.682 0 0 0-.177.654A4.14 4.14 0 0 0 4.89-8a3.989 3.989 0 0 0 .254 1.432 3.61 3.61 0 0 0 .584 1.045 4.842 4.842 0 0 0 .724.694 4.4 4.4 0 0 0 .6.409 1.931 1.931 0 0 0 .288.13 2.7 2.7 0 0 1-.124.409q-.111.318-.424.972a8.823 8.823 0 0 1-.716 1.227q-.365.53-.614.848a7.62 7.62 0 0 1-.624.694 2.62 2.62 0 0 1-.771.553 2.037 2.037 0 0 1-.842.177 3.682 3.682 0 0 1-1.44-.356 3.879 3.879 0 0 0-1.567-.37 4.164 4.164 0 0 0-1.637.382A3.871 3.871 0 0 1-2.85.629a1.907 1.907 0 0 1-.778-.165 2.544 2.544 0 0 1-.748-.542 8.262 8.262 0 0 1-.642-.716q-.265-.335-.689-.92a10.953 10.953 0 0 1-1.377-2.845 10.353 10.353 0 0 1-.542-3.256 6.62 6.62 0 0 1 .4-2.352A4.951 4.951 0 0 1-6.171-11.9 4.653 4.653 0 0 1-4.7-12.933a4.165 4.165 0 0 1 1.69-.367 4.685 4.685 0 0 1 1.661.4 4.732 4.732 0 0 0 1.33.4 2.369 2.369 0 0 0 .807-.212q.524-.212 1.183-.424a4.116 4.116 0 0 1 1.262-.21zm-.66-1.507a3.682 3.682 0 0 1-1.166.937 2.878 2.878 0 0 1-1.33.371 1.259 1.259 0 0 1-.248-.024 1.369 1.369 0 0 1-.035-.33 3.335 3.335 0 0 1 .286-1.337 4.368 4.368 0 0 1 .724-1.16 3.978 3.978 0 0 1 1.254-.978 3.458 3.458 0 0 1 1.454-.409 1.746 1.746 0 0 1 .036.365 3.936 3.936 0 0 1-.977 2.564z" transform="translate(22.641 31.076)" style="fill:#212121"/>
    </g>
</svg>
