<svg xmlns="http://www.w3.org/2000/svg" width="24" height="24" viewBox="0 0 24 24">
    <defs>
        <linearGradient id="6xk74nfz1a" x1="-.035" y1="1.099" x2="1.038" y2="-.107" gradientUnits="objectBoundingBox">
            <stop offset="0" stop-color="#415fff"/>
            <stop offset="1" stop-color="#08dcff"/>
        </linearGradient>
    </defs>
    <path data-name="Rectangle 235" style="fill:none" d="M0 0h24v24H0z"/>
    <path data-name="Path 305" d="M19 4h-.508l-2.184-2.832A3.023 3.023 0 0 0 13.932 0h-3.864a3.023 3.023 0 0 0-2.376 1.168L5.508 4H5a5.006 5.006 0 0 0-5 5v10a5.006 5.006 0 0 0 5 5h14a5.006 5.006 0 0 0 5-5V9a5.006 5.006 0 0 0-5-5zM9.276 2.39a1.006 1.006 0 0 1 .792-.39h3.864a1.008 1.008 0 0 1 .792.39L15.966 4H8.034zM22 19a3 3 0 0 1-3 3H5a3 3 0 0 1-3-3V9a3 3 0 0 1 3-3h14a3 3 0 0 1 3 3z" style="fill:url(#6xk74nfz1a)"/>
    <path data-name="Path 306" d="M15.5 12.667a6 6 0 1 0 6 6 6 6 0 0 0-6-6zm0 10a4 4 0 1 1 4-4 4 4 0 0 1-4 4z" transform="translate(-3.5 -4.667)" style="fill:url(#6xk74nfz1a)"/>
</svg>
