<svg data-name="Component 594 – 1" xmlns="http://www.w3.org/2000/svg" width="25" height="25" viewBox="0 0 25 25">
    <path data-name="3565598-200" style="fill:none" d="M0 0h25v25H0z"/>
    <g data-name="Group 703">
        <path data-name="Path 408" d="M73.683-3238.53a1.017 1.017 0 0 1-1.089 1.031c-.679 0-1.359.012-2.038 0-.233-.006-.276.067-.271.282.014.68.009 1.359 0 2.039a1.016 1.016 0 0 1-1.01 1.078 1.02 1.02 0 0 1-1.029-1.089v-.988c0-.35-.016-.7.006-1.051.015-.234-.069-.275-.283-.269-.669.014-1.337.006-2.006 0a1.021 1.021 0 0 1-1.109-1.01 1.018 1.018 0 0 1 1.12-1.028c.669 0 1.338-.012 2.006.006.233.006.276-.069.272-.283-.014-.678-.009-1.359-.005-2.039a1.011 1.011 0 0 1 1.008-1.077 1.016 1.016 0 0 1 1.031 1.087c0 .679.012 1.359-.005 2.038-.006.231.065.277.282.272.679-.016 1.358-.009 2.038-.005a1.018 1.018 0 0 1 1.082 1.006z" transform="translate(-56.757 3248.383)" style="fill:#fefefe"/>
        <path data-name="Path 410" d="M16.926 9.853a1.017 1.017 0 0 1-1.089 1.031c-.679 0-1.359.012-2.038 0-.233-.006-.276.067-.271.282.014.68.009 1.359 0 2.039a1.016 1.016 0 0 1-1.01 1.078 1.02 1.02 0 0 1-1.029-1.089v-.988c0-.35-.016-.7.006-1.051.015-.234-.069-.275-.283-.269-.669.014-1.337.006-2.006 0a1.021 1.021 0 0 1-1.109-1.01 1.018 1.018 0 0 1 1.12-1.028c.669 0 1.338-.012 2.006.006.233.006.276-.069.272-.283-.014-.678-.009-1.359-.005-2.039a1.011 1.011 0 0 1 1.008-1.077 1.016 1.016 0 0 1 1.031 1.087c0 .679.012 1.359-.005 2.038-.006.231.065.277.282.272.679-.016 1.358-.009 2.038-.005a1.018 1.018 0 0 1 1.082 1.006z"/>
        <path data-name="Path 411" d="M22.026 2.263a2.264 2.264 0 0 0-2.54-2.262H5.528a3.147 3.147 0 0 0-.756.079 2.154 2.154 0 0 0-1.771 2.167V23.82c0 .115 0 .229.007.343a.931.931 0 0 0 .769.809 1.236 1.236 0 0 0 .929-.193q3.793-2.171 7.585-4.344a.42.42 0 0 1 .5 0c2.5 1.449 5.013 2.888 7.516 4.337a1.2 1.2 0 0 0 1.194.115.931.931 0 0 0 .531-.936q-.008-10.845-.006-21.688zm-2.039 20.145-2.444-1.4c-1.418-.816-2.844-1.624-4.251-2.454a1.339 1.339 0 0 0-1.5 0c-2.144 1.245-4.3 2.47-6.457 3.7-.086.049-.175.095-.3.163V2.387c0-.5.054-.549.623-.549h13.733c.526 0 .593.058.593.519z"/>
        <path data-name="Path 412" d="M73.683-3238.53a1.017 1.017 0 0 1-1.089 1.031c-.679 0-1.359.012-2.038 0-.233-.006-.276.067-.271.282.014.68.009 1.359 0 2.039a1.016 1.016 0 0 1-1.01 1.078 1.02 1.02 0 0 1-1.029-1.089v-.988c0-.35-.016-.7.006-1.051.015-.234-.069-.275-.283-.269-.669.014-1.337.006-2.006 0a1.021 1.021 0 0 1-1.109-1.01 1.018 1.018 0 0 1 1.12-1.028c.669 0 1.338-.012 2.006.006.233.006.276-.069.272-.283-.014-.678-.009-1.359-.005-2.039a1.011 1.011 0 0 1 1.008-1.077 1.016 1.016 0 0 1 1.031 1.087c0 .679.012 1.359-.005 2.038-.006.231.065.277.282.272.679-.016 1.358-.009 2.038-.005a1.018 1.018 0 0 1 1.082 1.006z" transform="translate(-56.757 3248.383)" style="fill:#fefefe"/>
        <path data-name="Path 413" d="M16.926 9.853a1.017 1.017 0 0 1-1.089 1.031c-.679 0-1.359.012-2.038 0-.233-.006-.276.067-.271.282.014.68.009 1.359 0 2.039a1.016 1.016 0 0 1-1.01 1.078 1.02 1.02 0 0 1-1.029-1.089v-.988c0-.35-.016-.7.006-1.051.015-.234-.069-.275-.283-.269-.669.014-1.337.006-2.006 0a1.021 1.021 0 0 1-1.109-1.01 1.018 1.018 0 0 1 1.12-1.028c.669 0 1.338-.012 2.006.006.233.006.276-.069.272-.283-.014-.678-.009-1.359-.005-2.039a1.011 1.011 0 0 1 1.008-1.077 1.016 1.016 0 0 1 1.031 1.087c0 .679.012 1.359-.005 2.038-.006.231.065.277.282.272.679-.016 1.358-.009 2.038-.005a1.018 1.018 0 0 1 1.082 1.006z"/>
    </g>
</svg>
