<svg xmlns="http://www.w3.org/2000/svg" width="24" height="24" viewBox="0 0 24 24">
    <path data-name="Rectangle 45" style="fill:none" d="M0 0h24v24H0z"/>
    <path data-name="crown" d="M22.766 4.151a1.994 1.994 0 0 0-2.18.434L18 7.171l-4.586-4.586a2 2 0 0 0-2.828 0L6 7.171 3.414 4.585A2 2 0 0 0 0 5.999v10.586a5.006 5.006 0 0 0 5 5h14a5.006 5.006 0 0 0 5-5V5.999a2 2 0 0 0-1.234-1.848zM22 16.585a3 3 0 0 1-3 3H5a3 3 0 0 1-3-3V5.999l3.293 3.293a1 1 0 0 0 1.414 0L12 3.999l5.293 5.293a1 1 0 0 0 1.414 0L22 5.999z"/>
</svg>
