<svg xmlns="http://www.w3.org/2000/svg" width="24" height="24" viewBox="0 0 24 24">
    <defs>
        <linearGradient id="qc5d5310la" x1="-.077" y1="1" x2="1.113" y2="-.059" gradientUnits="objectBoundingBox">
            <stop offset="0" stop-color="#415fff"/>
            <stop offset="1" stop-color="#08dcff"/>
        </linearGradient>
    </defs>
    <path data-name="Rectangle 235" style="fill:none" d="M0 0h24v24H0z"/>
    <path data-name="Path 521" d="M21 4h-3.1A5.009 5.009 0 0 0 13 0h-2a5.009 5.009 0 0 0-4.9 4H3a1 1 0 0 0 0 2h1v13a5.006 5.006 0 0 0 5 5h6a5.006 5.006 0 0 0 5-5V6h1a1 1 0 0 0 0-2zM11 2h2a3.006 3.006 0 0 1 2.829 2H8.171A3.006 3.006 0 0 1 11 2zm7 17a3 3 0 0 1-3 3H9a3 3 0 0 1-3-3V6h12z" style="fill:url(#qc5d5310la)"/>
    <path data-name="Path 522" d="M10 18a1 1 0 0 0 1-1v-6a1 1 0 0 0-2 0v6a1 1 0 0 0 1 1z" style="fill:url(#qc5d5310la)"/>
    <path data-name="Path 523" d="M14 18a1 1 0 0 0 1-1v-6a1 1 0 0 0-2 0v6a1 1 0 0 0 1 1z" style="fill:url(#qc5d5310la)"/>
</svg>
