<svg xmlns="http://www.w3.org/2000/svg" width="24" height="24" viewBox="0 0 24 24">
    <path data-name="Rectangle 98" style="fill:none" d="M0 0h24v24H0z"/>
    <path d="M19 3.333h-6.528a1.019 1.019 0 0 1-.447-.1L8.869 1.649a3.014 3.014 0 0 0-1.341-.316H5a5.006 5.006 0 0 0-5 5v12a5.006 5.006 0 0 0 5 5h14a5.006 5.006 0 0 0 5-5v-10a5.006 5.006 0 0 0-5-5zm-14 0h2.528a1.019 1.019 0 0 1 .447.1l3.156 1.579a3.014 3.014 0 0 0 1.341.321H19a3 3 0 0 1 2.779 1.882L2 7.327v-.994a3 3 0 0 1 3-3zm14 18H5a3 3 0 0 1-3-3V9.327l20-.113v9.119a3 3 0 0 1-3 3z" transform="translate(0 -.333)" style="fill:#212121"/>
</svg>
