<svg xmlns="http://www.w3.org/2000/svg" width="24" height="24" viewBox="0 0 24 24">
    <path data-name="Rectangle 235" style="fill:none" d="M0 0h24v24H0z"/>
    <path d="M23.266 9.42a15.86 15.86 0 0 0-3.37-3.908l2.8-2.8a1 1 0 1 0-1.414-1.408l-3.044 3.043a12.05 12.05 0 0 0-6.234-1.689c-6.193 0-9.72 4.236-11.271 6.762a4.906 4.906 0 0 0 0 5.16 15.86 15.86 0 0 0 3.371 3.907l-2.8 2.8a1 1 0 1 0 1.413 1.417l3.051-3.051a12.05 12.05 0 0 0 6.236 1.688c6.189 0 9.715-4.236 11.267-6.761a4.906 4.906 0 0 0-.005-5.16zm-20.83 4.113a2.917 2.917 0 0 1 0-3.067c1.334-2.162 4.347-5.809 9.568-5.809a10.1 10.1 0 0 1 4.76 1.165l-2.012 2.012a4.99 4.99 0 0 0-6.918 6.918l-2.309 2.309a13.718 13.718 0 0 1-3.089-3.528zm12.562-1.529a3 3 0 0 1-3 3 2.95 2.95 0 0 1-1.285-.3l3.984-3.984a2.95 2.95 0 0 1 .301 1.284zm-5.994 0a3 3 0 0 1 3-3 2.95 2.95 0 0 1 1.285.3l-3.985 3.98a2.95 2.95 0 0 1-.3-1.28zm12.562 1.533c-1.334 2.165-4.347 5.809-9.563 5.809a10.1 10.1 0 0 1-4.764-1.165l2.012-2.012a4.99 4.99 0 0 0 6.917-6.917l2.306-2.314a13.718 13.718 0 0 1 3.089 3.528 2.917 2.917 0 0 1 0 3.067z"/>
</svg>
