<svg xmlns="http://www.w3.org/2000/svg" width="24" height="24" viewBox="0 0 24 24">
    <path data-name="Rectangle 235" style="fill:none" d="M0 0h24v24H0z"/>
    <path data-name="Path 291" d="M23.275 9.423c-1.551-2.526-5.079-6.764-11.271-6.764S2.284 6.897.733 9.423a4.908 4.908 0 0 0 0 5.162c1.551 2.526 5.079 6.764 11.271 6.764s9.72-4.238 11.271-6.764a4.908 4.908 0 0 0 0-5.162zm-1.7 4.115c-1.337 2.166-4.352 5.811-9.571 5.811s-8.234-3.645-9.566-5.811a2.918 2.918 0 0 1 0-3.068c1.332-2.166 4.347-5.811 9.566-5.811S20.238 8.3 21.57 10.47a2.918 2.918 0 0 1 0 3.068z"/>
    <path data-name="Path 292" d="M12.004 7.004a5 5 0 1 0 5 5 5 5 0 0 0-5-5zm0 8a3 3 0 1 1 3-3 3 3 0 0 1-3 3z"/>
</svg>
