<svg id="image_logout_dark" xmlns="http://www.w3.org/2000/svg" width="236.095" height="147.019" viewBox="0 0 236.095 147.019">
  <path id="Path_647" data-name="Path 647" d="M353.645,381s-33.837-40.713-9.322-93.914c11.761-25.524,43.084-31.514,52.578-26.291,12.519,6.887,29.124-11.719,65.015-24.493,26.976-9.6,88.036,9.975,68.151,70.192-12.062,36.527,34.37,26.918,27.169,73.6Z" transform="translate(-326.917 -233.978)" fill="#27323d"/>
  <g id="Group_819" data-name="Group 819" transform="translate(24.688 16.885)">
    <path id="Path_649" data-name="Path 649" d="M1051.354,409.543v129.4h28.589V420.665Z" transform="translate(-998.691 -409.543)" fill="#284f75"/>
    <rect id="Rectangle_331" data-name="Rectangle 331" width="2.822" height="129.399" transform="translate(49.841 0)" fill="#2869ab"/>
    <path id="Path_650" data-name="Path 650" d="M1348.611,526.878V644.992h65.76V526.878ZM1411.706,642.2h-60.43V529.67h60.43Z" transform="translate(-1267.359 -515.593)" fill="#2869ab"/>
    <g id="Group_818" data-name="Group 818" transform="translate(0 89.484)">
      <g id="Group_813" data-name="Group 813" transform="translate(21.263 15.88)">
        <path id="Path_651" data-name="Path 651" d="M761.662,1511.814s-2.783-3.246-.172-5.309a7.411,7.411,0,0,1,3.462-1.061s-2.2,3.7-1.491,4.063,2.159-4.295,2.159-4.295,4.34-.421,5.737.251c0,0-3.711,3.036-2.929,3.217s4.789-2.8,4.789-2.8,4.039.688,3.824,3.152-1.607,3.225-2.219,3.16-4.19-1.431-4.268-.93,2.076,2.139,3.585,2.216c0,0-2.848,3.141-4.741,2.234s-2.054-2.343-3.234-2.882-2.187-.538-1.7.012,2.623,1.084,3.3,2.277,1.28,2-.678,1.7-5.142-1.727-5.281-3.369Z" transform="translate(-756.959 -1505.083)" fill="#418a96"/>
        <g id="Group_812" data-name="Group 812" transform="translate(0 3.997)">
          <path id="Path_652" data-name="Path 652" d="M764.226,1546.666s-10.972-.423-13.395,2.715a7.936,7.936,0,0,1-2.185,3.066l-.257.7s1.9-2,2.581-2.126C750.971,1551.022,749.906,1547.135,764.226,1546.666Z" transform="translate(-746.127 -1546.647)" fill="#418a96"/>
          <path id="Path_653" data-name="Path 653" d="M727.392,1604.362a6.89,6.89,0,0,0-2.518,4.854l.427.038s.752-3.218,2.112-4.476S727.392,1604.362,727.392,1604.362Z" transform="translate(-724.873 -1598.562)" fill="#418a96"/>
        </g>
      </g>
      <g id="Group_815" data-name="Group 815" transform="translate(0 7.066)">
        <path id="Path_654" data-name="Path 654" d="M520.028,1424.9s4.427-2.479,2.361-5.843a8.789,8.789,0,0,0-3.423-2.6s.944,5.017,0,5.135-.649-5.666-.649-5.666-4.663-2.243-6.492-2.066c0,0,2.892,4.9,1.948,4.781s-4.191-5.076-4.191-5.076-4.781-.886-5.548,1.948.472,4.25,1.18,4.427,5.253.118,5.135.708-3.187,1.535-4.9,1c0,0,1.889,4.663,4.368,4.427s3.246-1.771,4.781-1.888,2.656.295,1.889.708-3.364.135-4.6,1.189-2.243,1.7.059,2.175,6.433.177,7.26-1.594Z" transform="translate(-503.791 -1413.436)" fill="#6bb7bf"/>
        <g id="Group_814" data-name="Group 814" transform="translate(2.426 2.964)">
          <path id="Path_655" data-name="Path 655" d="M529.015,1444.255s12.394,4.013,13.811,8.5a9.415,9.415,0,0,0,1.18,4.309v.885s-1.3-3.01-2.007-3.423C542,1454.525,544.774,1450.629,529.015,1444.255Z" transform="translate(-529.015 -1444.255)" fill="#418a96"/>
          <path id="Path_656" data-name="Path 656" d="M679.324,1572.245a8.175,8.175,0,0,1,.822,6.436l-.492-.132s.477-3.892-.523-5.849S679.324,1572.245,679.324,1572.245Z" transform="translate(-664.332 -1559.438)" fill="#418a96"/>
        </g>
      </g>
      <g id="Group_817" data-name="Group 817" transform="translate(19.443)">
        <path id="Path_657" data-name="Path 657" d="M709.789,1355.076s-5.835-3.268-3.112-7.7c0,0,2.178-2.723,4.512-3.423,0,0-1.245,6.613,0,6.769s.856-7.469.856-7.469,6.146-2.956,8.558-2.723c0,0-3.812,6.458-2.568,6.3s5.524-6.691,5.524-6.691,6.3-1.167,7.313,2.567-.622,5.6-1.556,5.835-6.924.156-6.769.934,4.2,2.023,6.457,1.323c0,0-2.49,6.146-5.757,5.835s-4.279-2.334-6.3-2.49-3.5.389-2.49.934,4.435.179,6.068,1.568,2.956,2.245-.078,2.867-8.48.233-9.57-2.1Z" transform="translate(-705.953 -1339.965)" fill="#6bb7bf"/>
        <g id="Group_816" data-name="Group 816" transform="translate(0.754 3.907)">
          <path id="Path_658" data-name="Path 658" d="M749.421,1380.588s-16.338,5.291-18.206,11.2a12.409,12.409,0,0,1-1.556,5.679v1.167s1.712-3.968,2.645-4.512C732.3,1394.126,728.648,1388.991,749.421,1380.588Z" transform="translate(-728.133 -1380.588)" fill="#418a96"/>
          <path id="Path_659" data-name="Path 659" d="M715.32,1549.3a10.776,10.776,0,0,0-1.083,8.484l.648-.174s-.629-5.13.689-7.71S715.32,1549.3,715.32,1549.3Z" transform="translate(-713.795 -1532.421)" fill="#418a96"/>
        </g>
      </g>
      <path id="Path_660" data-name="Path 660" d="M647.81,1630.507a11.43,11.43,0,1,1-22.86,0Z" transform="translate(-613.297 -1602.564)" fill="#77a4e5"/>
      <path id="Path_661" data-name="Path 661" d="M643.3,1630.507a9.36,9.36,0,1,1-18.352,0Z" transform="translate(-613.297 -1602.564)" fill="#9fc1f4"/>
      <path id="Path_662" data-name="Path 662" d="M646.479,1742.152H623.3a1.41,1.41,0,0,1,1.41-1.41h20.355A1.41,1.41,0,0,1,646.479,1742.152Z" transform="translate(-611.809 -1702.197)" fill="#77a4e5"/>
      <path id="Path_663" data-name="Path 663" d="M646.586,1641.113h1.55c-4.193-1.693-5.862-5.8-5.862-10.6h-2.839A11.433,11.433,0,0,0,646.586,1641.113Z" transform="translate(-626.389 -1602.567)" fill="#bdd8ff"/>
      <path id="Path_664" data-name="Path 664" d="M635.625,1742.152H623.3a1.41,1.41,0,0,1,1.41-1.41h9.949C635.44,1740.742,635.625,1741.373,635.625,1742.152Z" transform="translate(-611.809 -1702.197)" fill="#9fc1f4"/>
      <path id="Path_665" data-name="Path 665" d="M644.363,1630.862H621.217a.175.175,0,0,1-.175-.175h0a.175.175,0,0,1,.175-.175h23.145a.176.176,0,0,1,.175.175h0A.176.176,0,0,1,644.363,1630.862Z" transform="translate(-609.765 -1602.567)" fill="#2b478b"/>
    </g>
    <path id="Rectangle_332" data-name="Rectangle 332" d="M1.752,0h0A1.752,1.752,0,0,1,3.5,1.752V9.986a1.752,1.752,0,0,1-1.752,1.752h0A1.752,1.752,0,0,1,0,9.986V1.752A1.752,1.752,0,0,1,1.752,0Z" transform="translate(56.301 62.715)" fill="#77a4e5"/>
    <rect id="Rectangle_21" data-name="Rectangle 21" width="236.095" height="0.519" transform="translate(-24.688 129.614)" fill="#2994ff"/>
  </g>
  <g id="Group_824" data-name="Group 824" transform="translate(57.22 39.993)">
    <g id="Group_820" data-name="Group 820" transform="translate(22.729 18.247)">
      <path id="Path_666" data-name="Path 666" d="M1109.095,859.387c.243-1.137-.325-1.413-.325-1.413s-11.378-3.772-12.326-4.225-8.185-10.487-8.185-10.487-2.734-4.131-5.513-3.7a5.057,5.057,0,0,0-4.128,3.73,5.118,5.118,0,0,0,1.615,5.536c3.639,3.009,10.934,8.957,12.735,9.774,4.008,1.819,15.4,2.284,15.4,2.284A3.661,3.661,0,0,0,1109.095,859.387Z" transform="translate(-1078.365 -839.532)" fill="#2994ff"/>
    </g>
    <path id="Path_667" data-name="Path 667" d="M1382.513,1027.967a33.764,33.764,0,0,1,3.5-.988,7.366,7.366,0,0,1,2.414.716c.037.143-.037.269-.345.319s-1.339.012-1.263.13,3.064.425,3.151,1.013-1.421,1.833-2.773,2.032-4.169-1.135-4.4-1.134C1380.834,1030.063,1382.513,1027.967,1382.513,1027.967Z" transform="translate(-1329.927 -990.704)" fill="#ed975d"/>
    <path id="Path_668" data-name="Path 668" d="M1066.627,767.9s2.867,3.4,6.518,1.979a11.06,11.06,0,0,0,.8-3.3c0-.172,0-.339.006-.5.02-1.577.073-2.461.073-2.461h0c-.166-.069-5.581-2.292-5.576-2.108C1068.533,765.771,1066.627,767.9,1066.627,767.9Z" transform="translate(-1045.027 -750.754)" fill="#ffb27d"/>
    <g id="Group_821" data-name="Group 821" transform="translate(0 46.428)">
      <path id="Path_669" data-name="Path 669" d="M849.762,1669.29h-3.687c-.773,0-1.632-.784-1.847-2.22s-1.8-2.22-2.148-3.4,1.418-2.83,1.418-2.83l.295-.383.306-.4,2.921.7s.072.7.117,1.6c.031.648.048,1.4.012,2.054-.086,1.568.433,3.255,1.807,3.56S849.762,1669.29,849.762,1669.29Z" transform="translate(-842.036 -1609.327)" fill="#212121"/>
      <path id="Path_670" data-name="Path 670" d="M1091.114,1704.906h-9.774a.862.862,0,0,1-.208-.062c-.653-.336-.448-2.909-.37-3.7.015-.147.026-.234.026-.234s3.437-2.83,3.91-.663c.015.067.032.134.051.2h0c.6,2.028,3.264,2.948,4.8,3.206A1.694,1.694,0,0,1,1091.114,1704.906Z" transform="translate(-1057.719 -1644.907)" fill="#212121"/>
      <path id="Path_671" data-name="Path 671" d="M1031.73,1160.246s-.522,6.512-1.135,14.34c-.834,10.634-1.837,23.7-1.936,26.17-.172,4.3-.859,11.17-.859,11.17s-1.632,1.633-4.9.945a112.444,112.444,0,0,1-3.742-20.192q-.019-.255-.038-.513c-.773-10.568-1.976-32.821-1.976-32.821Z" transform="translate(-1000.305 -1156.767)" fill="#1c4074"/>
      <path id="Path_672" data-name="Path 672" d="M1031.73,1160.246s-.522,6.512-1.135,14.34l-11.434,18.092q-.019-.255-.038-.513c-.773-10.568-1.976-32.821-1.976-32.821Z" transform="translate(-1000.305 -1156.767)" fill="#082c60"/>
      <path id="Path_673" data-name="Path 673" d="M884.816,1136.8s-9.408,23.584-15.594,34.668-8.119,14.176-8.119,14.176-3.544-1.418-3.866-2.384c0,0,2.366-21.4,6.508-26.613,2.341-2.947,5.091-11.792,5.22-14.885s.838-9.214.838-9.214Z" transform="translate(-855.774 -1132.546)" fill="#1c4074"/>
    </g>
    <path id="Path_674" data-name="Path 674" d="M1000.14,825c-.036,2.017-.154,4.284-.312,6.586q-.014.205-.029.41c-.1,1.426-.211,2.856-.337,4.251q-.076.839-.16,1.654l-.009.073c0,.2-.029.423-.052.625-.514,5.222-1.052,9.348-1.152,9.411a.587.587,0,0,1-.4.1c-1.369-.172-5.455.139-8.8-.589a25.365,25.365,0,0,1-7.829-3.247c-.342-.2-1.121-.737-1.058-1.137.062-.44.177-1.075.323-1.874a101.386,101.386,0,0,0,1.682-13.148q.087-1.563.253-3.082a46.766,46.766,0,0,1,1.365-7.361c1.147-4.13,2.832-7.293,4.947-8.53.276-.155,1.763.791,3.128,1.667a6.026,6.026,0,0,0,3.88.919l1.136,1.257a12.692,12.692,0,0,1,3.241,6.756q.045.335.077.714A44.389,44.389,0,0,1,1000.14,825Z" transform="translate(-966.729 -793.807)" fill="#2994ff"/>
    <g id="Group_822" data-name="Group 822" transform="translate(2.891 17.519)">
      <path id="Path_675" data-name="Path 675" d="M876.71,1124.993a31.862,31.862,0,0,1-.422,3.4,6.947,6.947,0,0,1-1.506,1.834c-.138-.02-.22-.13-.15-.416s.48-1.167.35-1.144-1.491,2.506-2.034,2.366-1.072-1.906-.75-3.153,2.513-3.205,2.6-3.406C875.5,1122.767,876.71,1124.993,876.71,1124.993Z" transform="translate(-872.1 -1095.758)" fill="#ed975d"/>
      <path id="Path_676" data-name="Path 676" d="M897.359,861.942c1.041.334,1.208.259,1.208.259s5.068-9.228,5.582-10.072,10.761-10.348,10.761-10.348l-2.633-9.82s-11.655,15.093-12.914,17.259c-2.08,3.579-3.3,11.891-3.3,11.891A3.048,3.048,0,0,0,897.359,861.942Z" transform="translate(-893.759 -831.961)" fill="#3097ff"/>
    </g>
    <path id="Path_677" data-name="Path 677" d="M1088.782,785.5c.561,1.314,5.05,3.9,5.05,3.9l.528-2.058Z" transform="translate(-1065.051 -772.45)" fill="#ed975d"/>
    <g id="Group_823" data-name="Group 823" transform="translate(22.261 2.372)">
      <path id="Path_678" data-name="Path 678" d="M1081.154,686.983s-7.439.239-7.516-4.4-1.089-7.725,3.656-8.073,5.7,1.4,6.1,2.945S1083.087,686.8,1081.154,686.983Z" transform="translate(-1073.496 -674.469)" fill="#ffb27d"/>
    </g>
    <path id="Path_679" data-name="Path 679" d="M1057.571,660.458s-.808-.213-.809-2.281-2-5.867-.482-6.227a4.338,4.338,0,0,1,1.827-.24s-.337-2.164,2.452-1.875,6.8,2.044,7.79,1.443,1.178,4.5-1.395,4.4-6.227-2.17-7.069-.544-.409,3.5-.842,3.5-.662-1.616-1.226-1.419C1057.5,657.328,1057.571,660.458,1057.571,660.458Z" transform="translate(-1035.161 -649.808)" fill="#212121"/>
    <path id="Path_680" data-name="Path 680" d="M994.674,963.763l6.349-6.028-6.981,12.737Z" transform="translate(-979.422 -928.12)" fill="#0f6ecc"/>
  </g>
</svg>
