<svg id="no_internet_dark" xmlns="http://www.w3.org/2000/svg" width="214" height="214" viewBox="0 0 214 214">
  <rect id="bg" width="214" height="214" fill="none"/>
  <g id="Group_789" data-name="Group 789" transform="translate(0 5.447)">
    <g id="Floor" transform="translate(1.043 92.533)">
      <ellipse id="Floor-2" data-name="Floor" cx="106.479" cy="55.343" rx="106.479" ry="55.343" fill="#1a252f"/>
    </g>
    <g id="Shadows" transform="translate(13.862 122.37)">
      <ellipse id="Shadow" cx="28.4" cy="16.368" rx="28.4" ry="16.368" transform="translate(133.479 0)" fill="#1b3043"/>
      <g id="Shadow-2" data-name="Shadow" transform="translate(0 1.956)">
        <path id="Shadow-3" data-name="Shadow" d="M78.924,212.249c10.865,6.262,11.308,16.6.438,22.863s-28.922,6.076-39.792-.186-10.865-16.415,0-22.677S68.049,205.986,78.924,212.249Z" transform="translate(-31.419 -207.552)" fill="#1b3043"/>
        <path id="Shadow-4" data-name="Shadow" d="M176.747,253.033,141.08,232.478a4.468,4.468,0,0,0-4.037,0l-35.667,20.555a1.227,1.227,0,0,0,0,2.326l16.244,9.361-15.172,8.742a12.431,12.431,0,0,1-11.187,0L67.4,259.71c-1.314-.758-2.042-1.712-2.042-2.68s.727-1.926,2.042-2.685l21.148-12.19a.931.931,0,1,0-.932-1.61L66.474,252.726c-1.916,1.107-2.974,2.633-2.974,4.3s1.058,3.187,2.974,4.294l23.865,13.753a14.267,14.267,0,0,0,13.051,0l16.1-9.277,17.568,10.12a4.468,4.468,0,0,0,4.037,0l35.667-20.555A1.231,1.231,0,0,0,176.747,253.033Z" transform="translate(-40.616 -214.591)" fill="#1c4074"/>
      </g>
    </g>
    <g id="Character_2" data-name="Character 2" transform="translate(93.165 0)">
      <g id="Character">
        <g id="Bottom" transform="translate(63.358 54.967)">
          <path id="Path_174" data-name="Path 174" d="M266,186.658s1.3-19.16.932-26.222a58.739,58.739,0,0,0-1.221-9.17s-1.375-13.027-1.487-24.143a32.777,32.777,0,0,0-3.482-15.484l-18.845,4.5c-.382,2.82-1.678,21.57-1.986,38.24-.266,14.6.149,27.372.149,27.372v.768a6.92,6.92,0,0,1-.736,2.82,16.427,16.427,0,0,1-2.918,4.82c-.387.419-3.076,2.764-3.431,3.257-1.156,1.345,1.24,2.1,3.016,1.861,1.864-.251,4.782-.963,5.593-2.1.55-.763.965-3.42,1.529-4.187,1.906-2.6,2.689-3.722,2.7-4.541a8.407,8.407,0,0,0-.676-2.936c.154-1.768,3.981-16.308,4.046-21.458.033-2.452-.135-5.83-.135-5.83l2.964-16.991c1.147,4.243,3.16,14.777,3.841,18.82.825,4.941,2.983,17.624,4.26,25.189.489,2.917.718,4.392.932,5.746l.051.577c.042.735.578,8.6.867,10.236.606,3.438,3.668,3.006,4.158.223.42-2.364-.1-9.7-.117-10.594Z" transform="translate(-231.773 -110.573)" fill="#ffa8a7"/>
          <path id="Path_175" data-name="Path 175" d="M277.211,217c.867,0,.3,3.355.522,5.5.238,2.3.993,3.987,1.212,5.872a7.655,7.655,0,0,1-.722,4.834c-.6,1.4-3.631,3.257-4.782,1.3a11.078,11.078,0,0,1-1.263-6.374c.135-2.15,0-3.592.042-5.281.042-1.489-1.053-5.29.07-5.5l.051.577c.406.8,4.5.963,4.908-.126Z" transform="translate(-242.984 -140.912)" fill="#37474f"/>
          <path id="Path_176" data-name="Path 176" d="M250.218,216.461a19.56,19.56,0,0,1,0,4.025,3.917,3.917,0,0,1-2.13,1.694l-.746-4.1Z" transform="translate(-235.978 -140.758)" fill="#263238"/>
          <path id="Path_177" data-name="Path 177" d="M234.543,189.747l-3.668-1.2-.881-3.248,4.116,2.08Z" transform="translate(-222.443 -108.326)"/>
          <path id="Path_178" data-name="Path 178" d="M239.7,210.78v-.768c-.5.242-1.594,4.248-3.076,6.979-1.352,2.508-4.032,3.9-4.9,5-1.165,1.456,1.1,3.341,4.731,2.564,1.8-.386,4.535-1.535,5.276-2.75s.988-3.448,1.594-4.341,2.046-1.922,2.331-2.936a5.574,5.574,0,0,0,0-2.792c-.284-.931-.536-2.043-.853-1.94v.7c-.242.493-1.123,1.07-2.955,1.172C240.948,211.711,240.1,211.576,239.7,210.78Z" transform="translate(-231.411 -138.836)" fill="#37474f"/>
          <path id="Path_179" data-name="Path 179" d="M244.331,115.465s-1.245,13.8-1.645,26.027-.042,27.995-.042,27.995a8,8,0,0,0,4.046,1.028c2.783.126,3.729-.8,3.729-.8a52.786,52.786,0,0,0,1.967-9.44,39.8,39.8,0,0,0,0-6.342l2.484-16.312s3.151,16.061,3.51,18,3.375,19.1,3.375,19.1,1.184,1.089,4.223,1.033c2.689-.051,3.468-1.014,3.468-1.014s.648-10.524.5-15.019c-.126-3.964-1.035-7.119-1.217-9.691s-.284-17.215-.466-22.8-.648-10.375-5.435-17.094Z" transform="translate(-234.589 -110.142)" fill="#1c4074"/>
          <path id="Path_180" data-name="Path 180" d="M256.913,143.345l-2.07-10.236s-3.6-.931-5.286-3.136c0,0,.466,2.438,4.195,4l2.2,10.18-.764,10.524Z" transform="translate(-236.613 -115.853)" fill="#182c48"/>
        </g>
        <g id="Top" transform="translate(0 8.868)">
          <path id="Path_181" data-name="Path 181" d="M207.046,104.485a8.918,8.918,0,0,0,3.967-.293,7.8,7.8,0,0,1-1.571-1.038,1.083,1.083,0,0,1-.186-1.5c.172-.186.6.247,1.571.521a12.271,12.271,0,0,1,3.333,1.112,2.19,2.19,0,0,0,1.492.261c2.909-.544,9.69-3.722,12.8-5.378.634-2.582,1.734-6.379,3.09-11.115,1.254-4.364,3.263-6.272,6.47-6.2l-.461,9.477s-1.529,6.546-3.421,11.892c-.331.931-1.659,2.015-4.092,2.917-3.151,1.168-6.954,2.271-11.6,3.541a36.084,36.084,0,0,1-5.752,1.14c-4.913.419-6.8-.931-7.458-1.9C203.34,105.253,204.454,103.969,207.046,104.485Z" transform="translate(-160.276 -55.608)" fill="#ffa8a7"/>
          <path id="Path_182" data-name="Path 182" d="M257.314,80.723l4.484.344a10.392,10.392,0,0,0,3.375,10.022l-2,8.04c.065,1,1.715,4.346,3.314,7.947-3.006,4.02-17.754,5.392-22.565,1.861.741-3.787,1.3-6.663,1.445-8.1l-.242-5.2c-6.031-4.936,1.245-12.46,3.925-14.851l3.365-.149Z" transform="translate(-171.317 -55.547)" fill="#2994ff"/>
          <path id="Path_183" data-name="Path 183" d="M289.231,134.518a2.506,2.506,0,0,1-.96-2.159,4.623,4.623,0,0,1,.564-2.052c.312-.363,2.27-3.02,3.137-1.475.932,1.684.741,2.368.741,2.368Z" transform="translate(-184.351 -69.287)" fill="#f28f8f"/>
          <path id="Path_184" data-name="Path 184" d="M260.69,166.033a12.06,12.06,0,0,1-5.943-1.8l-23.273-13.418a14.407,14.407,0,0,1-6.526-11.273v-19.49a3.729,3.729,0,0,0-5.593-3.21l-8.148,4.708a.931.931,0,1,1-.932-1.61l8.171-4.713a5.593,5.593,0,0,1,8.39,4.825v19.49a12.557,12.557,0,0,0,5.593,9.664L255.7,162.617c2.978,1.717,5.742,2.015,7.775.847s3.156-3.722,3.156-7.142V131.44c0-4.215,2.7-9.073,6.143-11.059l5.682-3.257a.931.931,0,1,1,.932,1.61l-5.682,3.257c-2.825,1.628-5.211,5.951-5.211,9.445v24.882c0,4.122-1.454,7.23-4.088,8.752A7.319,7.319,0,0,1,260.69,166.033Z" transform="translate(-161.851 -65.292)" fill="#1c4074"/>
          <g id="Plug" transform="translate(11.28 46.098)">
            <path id="Path_185" data-name="Path 185" d="M211.8,121.647v1.521a8.423,8.423,0,0,1-3.827,6.611l-14.114,8.137-14.352-8.272v-12.4l13.918-6.43a9.592,9.592,0,0,1,7.835.354l6.7,3.866A8.461,8.461,0,0,1,211.8,121.647Z" transform="translate(-164.455 -110.14)" fill="#1c4074"/>
            <path id="Path_186" data-name="Path 186" d="M193.421,110.811a9.592,9.592,0,0,1,7.835.354l6.7,3.866c2.111,1.214,2.028,3.029-.186,4.052L193.84,125.5l-14.356-8.268Z" transform="translate(-164.447 -110.14)" fill="#1c4074"/>
            <path id="Path_187" data-name="Path 187" d="M195.2,124.721a4.218,4.218,0,0,1,1.911,3.3v10.2l-3.263,1.861L179.5,131.817V119.436l3.636-1.675Z" transform="translate(-164.451 -112.334)" opacity="0.15"/>
            <path id="Path_188" data-name="Path 188" d="M176.824,117.064a1.33,1.33,0,0,1,1.342.13l14.114,8.137a4.214,4.214,0,0,1,1.911,3.308v12.134a1.325,1.325,0,0,1-.559,1.228c-.326.181-1.478.847-1.8,1.038a1.34,1.34,0,0,1-1.347-.13l-14.119-8.137a4.218,4.218,0,0,1-1.911-3.3V119.334a1.344,1.344,0,0,1,.555-1.233Z" transform="translate(-163.004 -112.098)" fill="#182c48"/>
            <path id="Path_189" data-name="Path 189" d="M190.489,126.781l-14.119-8.133c-1.053-.609-1.911-.116-1.911,1.1v12.134a4.218,4.218,0,0,0,1.911,3.3l14.119,8.137c1.053.61,1.911.116,1.911-1.1V130.089a4.228,4.228,0,0,0-1.911-3.308Z" transform="translate(-163.007 -112.515)" fill="#1c4074"/>
            <path id="Path_190" data-name="Path 190" d="M173.492,145.421v2.1a1.859,1.859,0,0,0,.778,1.721l1.268.73a1.867,1.867,0,0,0,1.911-.167l11.653-6.728v-8.282l-1.268-.73-11.676,6.728a5.9,5.9,0,0,0-2.666,4.629Zm5.281-2.6a1.859,1.859,0,0,1,.075.465,3.953,3.953,0,0,1-1.795,3.1,1.69,1.69,0,0,1-.466.186,1.909,1.909,0,0,1-.065-.465,3.958,3.958,0,0,1,1.795-3.1A2.212,2.212,0,0,1,178.773,142.825Z" transform="translate(-162.729 -117.029)" fill="#2994ff"/>
            <path id="Path_191" data-name="Path 191" d="M175.477,153.453a.466.466,0,0,0,.079.056h0l-.047-.028-1.226-.712a1.825,1.825,0,0,1-.778-1.717v-2.1a5.408,5.408,0,0,1,.788-2.638l1.268.73a5.483,5.483,0,0,0-.783,2.638v2.1a2.133,2.133,0,0,0,.489,1.5A1.143,1.143,0,0,0,175.477,153.453Z" transform="translate(-162.733 -120.557)" opacity="0.2"/>
            <path id="Path_192" data-name="Path 192" d="M189.422,134.794l-11.653,6.728a5.457,5.457,0,0,0-1.892,1.991l-1.268-.73a5.485,5.485,0,0,1,1.888-1.991l11.676-6.728Z" transform="translate(-163.05 -117.029)" fill="#fff" opacity="0.5"/>
            <path id="Path_193" data-name="Path 193" d="M176.413,156.464h0Z" transform="translate(-163.557 -123.479)" fill="#fff" opacity="0.5"/>
            <path id="Path_194" data-name="Path 194" d="M176.426,156.45Z" transform="translate(-163.57 -123.475)" opacity="0.2"/>
            <path id="Path_195" data-name="Path 195" d="M180.093,146.8a1.985,1.985,0,0,0-.065-.5h0c.769-.209,1.333.27,1.333,1.228a3.963,3.963,0,0,1-1.79,3.1c-.83.465-1.538.228-1.734-.544a1.526,1.526,0,0,0,.466-.186A3.967,3.967,0,0,0,180.093,146.8Z" transform="translate(-163.975 -120.539)" opacity="0.2"/>
            <path id="Path_196" data-name="Path 196" d="M158.4,136.7v2.1a1.85,1.85,0,0,0,.778,1.717l1.268.735a1.867,1.867,0,0,0,1.9-.177L174,134.35v-8.268l-1.268-.735-11.653,6.728A5.916,5.916,0,0,0,158.4,136.7Zm5.281-2.61a2.012,2.012,0,0,1,.065.5,3.958,3.958,0,0,1-1.795,3.1,2.147,2.147,0,0,1-.466.186,1.77,1.77,0,0,1-.065-.489,3.963,3.963,0,0,1,1.79-3.1A1.825,1.825,0,0,1,163.685,134.094Z" transform="translate(-158.404 -114.519)" fill="#2994ff"/>
            <path id="Path_197" data-name="Path 197" d="M160.506,144.831h-.056l-1.268-.74a1.839,1.839,0,0,1-.778-1.721v-2.1a4.589,4.589,0,0,1,.21-1.321,6.265,6.265,0,0,1,.573-1.312h0l1.268.726h0a5.894,5.894,0,0,0-.322.642,5.059,5.059,0,0,0-.466,1.991v2.1a2.142,2.142,0,0,0,.466,1.5,1.306,1.306,0,0,0,.373.237Z" transform="translate(-158.404 -118.058)" opacity="0.2"/>
            <path id="Path_198" data-name="Path 198" d="M174.341,126.082l-11.653,6.728A5.42,5.42,0,0,0,160.8,134.8l-1.268-.726a5.48,5.48,0,0,1,1.864-2l11.653-6.728Z" transform="translate(-158.726 -114.519)" fill="#fff" opacity="0.5"/>
            <path id="Path_199" data-name="Path 199" d="M161.384,147.753h-.009Z" transform="translate(-159.249 -120.971)" fill="#fff" opacity="0.5"/>
            <path id="Path_200" data-name="Path 200" d="M164.988,138.1a1.955,1.955,0,0,0-.061-.493h0c.764-.214,1.333.27,1.333,1.228a3.963,3.963,0,0,1-1.79,3.1c-.834.465-1.538.228-1.734-.549a1.456,1.456,0,0,0,.466-.186A3.953,3.953,0,0,0,164.988,138.1Z" transform="translate(-159.646 -118.036)" opacity="0.2"/>
          </g>
          <line id="Line_51" data-name="Line 51" x1="1.878" y1="7.295" transform="translate(12.93 52.525)" fill="none" stroke="#2994ff" stroke-linecap="round" stroke-linejoin="round" stroke-width="1.96"/>
          <line id="Line_52" data-name="Line 52" x1="6.945" y1="5.476" transform="translate(2.62 57.387)" fill="none" stroke="#2994ff" stroke-linecap="round" stroke-linejoin="round" stroke-width="1.96"/>
          <line id="Line_53" data-name="Line 53" x1="8.115" y2="0.628" transform="translate(0 68.916)" fill="none" stroke="#2994ff" stroke-linecap="round" stroke-linejoin="round" stroke-width="1.96"/>
          <path id="Path_201" data-name="Path 201" d="M289.965,113.362a45.775,45.775,0,0,0-.764-5.118A68.831,68.831,0,0,0,284.978,96.7c-.778-1.484-2.536-3.648-3.78-5.476-1.762-2.582-3-4.029-4.34-5.783-2.946-3.848-4.2-4.071-7.635-4.187a10.993,10.993,0,0,0,1.916,10.292l7.383,7.77c.419.675,4.931,8.375,5.682,11.218a2.1,2.1,0,0,1-.177,1.5,18.122,18.122,0,0,0-1.291,4.076c-.219.986-.806,1.768-.606,1.922a1.326,1.326,0,0,0,1.636-.13,7,7,0,0,0,1.272-1.917A1,1,0,0,1,286.106,117a11.371,11.371,0,0,1-.419,2.359c-.037.2-.084.419-.172.958a6.239,6.239,0,0,0-.131,1.107c.932.172,1.906-.4,3.473-1.861C290.268,118.2,290.361,116.4,289.965,113.362Z" transform="translate(-178.741 -55.724)" fill="#ffa8a7"/>
          <path id="Path_202" data-name="Path 202" d="M258.244,68.314c.028-.931,3.058-3.108,4.591-5.425,1.4-2.15,3.407-8.058-1.3-9.947,0,0,1.016-2.833-.83-4.5a3.444,3.444,0,0,0-4.722.06,4.194,4.194,0,0,0-3.943-3.089,3.667,3.667,0,0,0-3.859,2.871,3.542,3.542,0,0,0-4.293,1.2c-1.729,2.378.564,4.555.564,4.555a1.976,1.976,0,0,0-.862,1.842c.135,1,1.1,1.252,1.212,1.754a.494.494,0,0,1-.844.437,1.016,1.016,0,0,0,1.193.8c1.086-.06,2.056-1.535,2.056-1.535Z" transform="translate(-171.445 -45.399)" fill="#263238"/>
          <path id="Path_203" data-name="Path 203" d="M249.335,55.574c-1.4.6-2.717,2.731-2.7,8.677,0,5.039,1.566,6.314,2.331,6.691s2.307.181,3.794-.047v2.9s-2.689,3.331-.28,4.988c6.209-1.084,6.684-5.15,6.684-5.15l.112-6.318s.853.893,2.331-.419c1.24-1.084,1.687-2.94.755-3.964a1.99,1.99,0,0,0-3.207.037s-1.981.13-4.959-1.735A11.293,11.293,0,0,1,249.335,55.574Z" transform="translate(-172.418 -48.329)" fill="#ffa8a7"/>
          <path id="Path_204" data-name="Path 204" d="M254.829,71.9a.726.726,0,0,1-.69.772.749.749,0,1,1,.69-.772Z" transform="translate(-174.336 -52.821)" fill="#b16668"/>
          <path id="Path_205" data-name="Path 205" d="M249.515,65.07a.671.671,0,1,1-.7-.675.685.685,0,0,1,.7.675Z" transform="translate(-172.858 -50.869)" fill="#263238"/>
          <path id="Path_206" data-name="Path 206" d="M256.711,65.494a.726.726,0,0,1-.69.772.74.74,0,0,1-.746-.726.718.718,0,0,1,1.436-.047Z" transform="translate(-174.894 -50.986)" fill="#263238"/>
          <path id="Path_207" data-name="Path 207" d="M248.829,61.6l-1.422.833a.793.793,0,0,0,1.119.3.851.851,0,0,0,.3-1.135Z" transform="translate(-172.639 -50.064)" fill="#263238"/>
          <path id="Path_208" data-name="Path 208" d="M263.685,64.807V67.6a1.313,1.313,0,0,1-1.347-1.359A1.443,1.443,0,0,1,263.685,64.807Z" transform="translate(-176.918 -50.988)" fill="#263238"/>
          <path id="Path_209" data-name="Path 209" d="M239.657,31.463l-.289,4.02-2.121-.5Z" transform="translate(-161.163 -17.927)" fill="#f28f8f"/>
          <path id="Path_210" data-name="Path 210" d="M255.247,76.139c1.561-.181,4.787-1.075,5.314-2.387a3.419,3.419,0,0,1-1.156,1.661c-.974.837-4.162,1.7-4.162,1.7Z" transform="translate(-174.885 -53.564)" fill="#f28f8f"/>
        </g>
        <g id="Question_Marks" data-name="Question Marks" transform="translate(92.72)">
          <path id="Path_211" data-name="Path 211" d="M278.986,33.3a6.426,6.426,0,0,1,1.655.931,5.006,5.006,0,0,1,1.235,1.3,4.035,4.035,0,0,1,.606,1.6,3.554,3.554,0,0,1-.219,1.8,3.675,3.675,0,0,1-.741,1.238,4.427,4.427,0,0,1-.993.782,6.91,6.91,0,0,1-1.119.512l-1.1.4a5.569,5.569,0,0,0-.932.437,1.663,1.663,0,0,0-.676.623.82.82,0,0,1-.308.3.467.467,0,0,1-.4.023l-1.454-.544a.55.55,0,0,1-.312-.293.465.465,0,0,1,0-.414,3.587,3.587,0,0,1,.811-1.191,5.083,5.083,0,0,1,1.049-.758,7.277,7.277,0,0,1,1.147-.493c.392-.13.755-.256,1.1-.386a4.852,4.852,0,0,0,.881-.428,1.3,1.3,0,0,0,.522-.642,1.528,1.528,0,0,0-.158-1.424,2.8,2.8,0,0,0-1.45-1.075,2.674,2.674,0,0,0-3,.721,1.207,1.207,0,0,1-.322.242.537.537,0,0,1-.392-.028l-1.547-.582a.433.433,0,0,1-.252-.228.4.4,0,0,1,0-.349,3.1,3.1,0,0,1,.932-1.21,5,5,0,0,1,1.524-.865,6.069,6.069,0,0,1,1.9-.344A5.36,5.36,0,0,1,278.986,33.3Zm-3.319,11.12a.512.512,0,0,1,.3.288.524.524,0,0,1,0,.419l-.634,1.68a.512.512,0,0,1-.289.3.528.528,0,0,1-.419,0l-1.645-.619a.512.512,0,0,1-.3-.288.525.525,0,0,1,0-.419l.634-1.68a.535.535,0,0,1,.289-.307.546.546,0,0,1,.419,0Z" transform="translate(-272.573 -32.945)" fill="#1d3d5d"/>
          <path id="Path_212" data-name="Path 212" d="M281.387,57.605a.511.511,0,0,1,0,.73l-1.165,1.228a.5.5,0,0,1-.364.158.518.518,0,0,1-.373-.14l-1.189-1.14a.528.528,0,0,1-.019-.735l1.17-1.224a.523.523,0,0,1,.732,0Zm6.992-8.435a6.21,6.21,0,0,1,1.1,1.4,4.852,4.852,0,0,1,.592,1.582A3.831,3.831,0,0,1,290,53.753a3.724,3.724,0,0,1-1.953,2.284,4.094,4.094,0,0,1-1.147.316,6.938,6.938,0,0,1-1.161.033l-1.1-.06a5.664,5.664,0,0,0-.983.033,1.586,1.586,0,0,0-.8.326.728.728,0,0,1-.378.144.439.439,0,0,1-.359-.126l-1.058-1a.534.534,0,0,1-.168-.368.428.428,0,0,1,.149-.368,3.39,3.39,0,0,1,1.137-.744,4.775,4.775,0,0,1,1.189-.275,7.14,7.14,0,0,1,1.179,0q.583.051,1.091.07a4.45,4.45,0,0,0,.932-.051,1.218,1.218,0,0,0,.695-.363,1.455,1.455,0,0,0,.382-1.293,2.614,2.614,0,0,0-.862-1.466,2.53,2.53,0,0,0-2.871-.465,1.074,1.074,0,0,1-.364.088.466.466,0,0,1-.331-.167l-1.128-1.075a.428.428,0,0,1-.14-.284.409.409,0,0,1,.121-.312,3.008,3.008,0,0,1,1.249-.712,4.762,4.762,0,0,1,1.641-.191,5.681,5.681,0,0,1,1.776.4,4.941,4.941,0,0,1,1.627,1.047Z" transform="translate(-274.168 -37.198)" fill="rgba(41,148,255,0.1)"/>
          <g id="Group_511" data-name="Group 511" transform="translate(3.969 10.517)" opacity="0.6">
            <path id="Path_213" data-name="Path 213" d="M281.387,57.605a.511.511,0,0,1,0,.73l-1.165,1.228a.5.5,0,0,1-.364.158.518.518,0,0,1-.373-.14l-1.189-1.14a.528.528,0,0,1-.019-.735l1.17-1.224a.523.523,0,0,1,.732,0Zm6.992-8.435a6.21,6.21,0,0,1,1.1,1.4,4.852,4.852,0,0,1,.592,1.582A3.831,3.831,0,0,1,290,53.753a3.724,3.724,0,0,1-1.953,2.284,4.094,4.094,0,0,1-1.147.316,6.938,6.938,0,0,1-1.161.033l-1.1-.06a5.664,5.664,0,0,0-.983.033,1.586,1.586,0,0,0-.8.326.728.728,0,0,1-.378.144.439.439,0,0,1-.359-.126l-1.058-1a.534.534,0,0,1-.168-.368.428.428,0,0,1,.149-.368,3.39,3.39,0,0,1,1.137-.744,4.775,4.775,0,0,1,1.189-.275,7.14,7.14,0,0,1,1.179,0q.583.051,1.091.07a4.45,4.45,0,0,0,.932-.051,1.218,1.218,0,0,0,.695-.363,1.455,1.455,0,0,0,.382-1.293,2.614,2.614,0,0,0-.862-1.466,2.53,2.53,0,0,0-2.871-.465,1.074,1.074,0,0,1-.364.088.466.466,0,0,1-.331-.167l-1.128-1.075a.428.428,0,0,1-.14-.284.409.409,0,0,1,.121-.312,3.008,3.008,0,0,1,1.249-.712,4.762,4.762,0,0,1,1.641-.191,5.681,5.681,0,0,1,1.776.4,4.941,4.941,0,0,1,1.627,1.047Z" transform="translate(-278.138 -47.715)" fill="#1c3854"/>
          </g>
        </g>
      </g>
    </g>
    <g id="Character_1" data-name="Character 1" transform="translate(0 2.15)">
      <g id="Character-2" data-name="Character" transform="translate(0 0)">
        <g id="Bottom-2" data-name="Bottom" transform="translate(26.038 66.045)">
          <path id="Path_214" data-name="Path 214" d="M50.19,221.387a6.272,6.272,0,0,0,5.29.284l1.4-9.771-6.526-1.666Z" transform="translate(-48.976 -152.192)" fill="#ffa8a7"/>
          <path id="Path_215" data-name="Path 215" d="M60.236,235.586a2.7,2.7,0,0,1-.135,1.67,4.628,4.628,0,0,1-3.393,1.242,8.271,8.271,0,0,1-4.829-1.121,3.438,3.438,0,0,1-1.678-2.754c-.051-1.126.135-2.191-.35-3.08s-1.067-1.633-1.217-2.07a5.573,5.573,0,0,1,0-2.405Z" transform="translate(-48.492 -157.039)" fill="#263238"/>
          <path id="Path_216" data-name="Path 216" d="M55.444,224.773a5.369,5.369,0,0,0,.177,1.256,11.513,11.513,0,0,0,1.067,2.522,10.591,10.591,0,0,0,.76,1.2c.555.74,1.263,1.359,1.864,2.07a4,4,0,0,1,1.086,2.475c0,1.545-1.7,1.977-3,2.136A9.493,9.493,0,0,1,53.2,236a3.845,3.845,0,0,1-2.652-3.22c-.051-.433,0-.865-.028-1.3a6.009,6.009,0,0,0-1.053-2.759,7.905,7.905,0,0,1-.839-1.517,4.6,4.6,0,0,1,.336-2.964c.266-.8.466-1.777.764-1.684v.526c.084.181.289.312.34.526a3.991,3.991,0,0,0,.2.647,1.675,1.675,0,0,0,.643.791c.051-.582.1-1.163.149-1.74a.61.61,0,0,1,.667-.693,11.014,11.014,0,0,1,3.314-.1.634.634,0,0,1,.433.219.669.669,0,0,1,.051.4,15.23,15.23,0,0,0-.084,1.647Z" transform="translate(-48.488 -155.704)" fill="#2994ff"/>
          <path id="Path_217" data-name="Path 217" d="M55.444,224.773a5.369,5.369,0,0,0,.177,1.256,11.513,11.513,0,0,0,1.067,2.522,10.591,10.591,0,0,0,.76,1.2c.555.74,1.263,1.359,1.864,2.07a4,4,0,0,1,1.086,2.475c0,1.545-1.7,1.977-3,2.136A9.493,9.493,0,0,1,53.2,236a3.845,3.845,0,0,1-2.652-3.22c-.051-.433,0-.865-.028-1.3a6.009,6.009,0,0,0-1.053-2.759,7.905,7.905,0,0,1-.839-1.517,4.6,4.6,0,0,1,.336-2.964c.266-.8.466-1.777.764-1.684v.526c.084.181.289.312.34.526a3.991,3.991,0,0,0,.2.647,1.675,1.675,0,0,0,.643.791c.051-.582.1-1.163.149-1.74a.61.61,0,0,1,.667-.693,11.014,11.014,0,0,1,3.314-.1.634.634,0,0,1,.433.219.669.669,0,0,1,.051.4,15.23,15.23,0,0,0-.084,1.647Z" transform="translate(-48.488 -155.704)" opacity="0.2"/>
          <path id="Path_218" data-name="Path 218" d="M58.13,230.95a4.378,4.378,0,0,0-2.545-.5,4.3,4.3,0,0,0-2.037.591.467.467,0,0,1-.583-.079h0a.428.428,0,0,1,.075-.651,4.41,4.41,0,0,1,2.3-.712,4.476,4.476,0,0,1,2.228.288S58.33,230.448,58.13,230.95Z" transform="translate(-49.738 -157.769)" fill="#455a64"/>
          <path id="Path_219" data-name="Path 219" d="M59.769,233.278a5.718,5.718,0,0,0-2.825-.442,4.013,4.013,0,0,0-1.981.633.467.467,0,0,1-.587-.079h0a.423.423,0,0,1,.079-.651,4.457,4.457,0,0,1,2.331-.772c1.739-.033,2.172.349,2.172.349A1.429,1.429,0,0,1,59.769,233.278Z" transform="translate(-50.142 -158.45)" fill="#455a64"/>
          <path id="Path_220" data-name="Path 220" d="M54.513,227.217a4.328,4.328,0,0,1,2.167.3c.294.191.466.679.266.791a4.042,4.042,0,0,0-1.934-.368,5.714,5.714,0,0,0-1.9.414,3.555,3.555,0,0,0-.466.214.406.406,0,0,1-.559-.2h0a.391.391,0,0,1,.177-.465A5.568,5.568,0,0,1,54.513,227.217Z" transform="translate(-49.514 -157.074)" fill="#455a64"/>
          <path id="Path_221" data-name="Path 221" d="M75.628,216.692c1.137,2.843,2.918,1.968,5.631.33l.41-9.705-6.9-.637Z" transform="translate(-56.021 -151.169)" fill="#ffa8a7"/>
          <path id="Path_222" data-name="Path 222" d="M91.452,228.7a1.858,1.858,0,0,1-.149,1.363c-.214.391-2.373,1.461-5.192,1.117a11.767,11.767,0,0,1-5.743-2.354,6.789,6.789,0,0,0-3.552-1.121c-1.4-.158-2.447-.642-2.722-1.312a3.061,3.061,0,0,1,.145-1.777Z" transform="translate(-55.801 -156.334)" fill="#263238"/>
          <path id="Path_223" data-name="Path 223" d="M80.452,217.478a5.575,5.575,0,0,0,.75-.214.612.612,0,0,1,.424,0c.177.079.233.293.275.465a6.439,6.439,0,0,0,.242,1.242,3.045,3.045,0,0,0,.746.875,12.972,12.972,0,0,0,2.186,1.577c.9.549,1.785.982,2.713,1.461a21.622,21.622,0,0,1,2.964,1.4,2.038,2.038,0,0,1-.2,3.364,9.986,9.986,0,0,1-6.992.107c-1.617-.554-3.342-2.4-5.486-2.685-1.366-.177-3.184-.391-4.009-1.475-.3-.465-.037-1.815.205-3.392.219-1.4.42-3.629.872-3.48l.033.428.55.656a4.686,4.686,0,0,0,.382.363q.221.258.466.493a1.4,1.4,0,0,0,.788.33.728.728,0,0,0,.4-.088c.233-.13.266-.437.466-.628a2.275,2.275,0,0,1,.764-.516,4.487,4.487,0,0,1,1.24-.251,1.7,1.7,0,0,0,.219-.028Z" transform="translate(-55.783 -154.058)" fill="#2994ff"/>
          <path id="Path_224" data-name="Path 224" d="M80.452,217.478a5.575,5.575,0,0,0,.75-.214.612.612,0,0,1,.424,0c.177.079.233.293.275.465a6.439,6.439,0,0,0,.242,1.242,3.045,3.045,0,0,0,.746.875,12.972,12.972,0,0,0,2.186,1.577c.9.549,1.785.982,2.713,1.461a21.622,21.622,0,0,1,2.964,1.4,2.038,2.038,0,0,1-.2,3.364,9.986,9.986,0,0,1-6.992.107c-1.617-.554-3.342-2.4-5.486-2.685-1.366-.177-3.184-.391-4.009-1.475-.3-.465-.037-1.815.205-3.392.219-1.4.42-3.629.872-3.48l.033.428.55.656a4.686,4.686,0,0,0,.382.363q.221.258.466.493a1.4,1.4,0,0,0,.788.33.728.728,0,0,0,.4-.088c.233-.13.266-.437.466-.628a2.275,2.275,0,0,1,.764-.516,4.487,4.487,0,0,1,1.24-.251,1.7,1.7,0,0,0,.219-.028Z" transform="translate(-55.783 -154.058)" opacity="0.2"/>
          <path id="Path_225" data-name="Path 225" d="M86.357,221.858a1.286,1.286,0,0,0-.979-.73,3.683,3.683,0,0,0-2.452.777.511.511,0,0,0,.028.847h0a.523.523,0,0,0,.587-.033A3.883,3.883,0,0,1,86.357,221.858Z" transform="translate(-58.3 -155.32)" fill="#455a64"/>
          <path id="Path_226" data-name="Path 226" d="M88.807,223.57a1.469,1.469,0,0,0-1.165-.679,4.555,4.555,0,0,0-2.685.842.5.5,0,0,0,0,.819h0a.5.5,0,0,0,.569-.037A3.93,3.93,0,0,1,88.807,223.57Z" transform="translate(-58.881 -155.837)" fill="#455a64"/>
          <path id="Path_227" data-name="Path 227" d="M91.751,225.122a1.637,1.637,0,0,0-1.212-.623,4.415,4.415,0,0,0-2.578.856.5.5,0,0,0,.028.819h0a.467.467,0,0,0,.564-.033A3.733,3.733,0,0,1,91.751,225.122Z" transform="translate(-59.746 -156.3)" fill="#455a64"/>
          <path id="Path_228" data-name="Path 228" d="M49.893,171.719A47.6,47.6,0,0,1,51.24,163.3s.382-25.776,1.011-33.6l23.119-.982c.34,8.375.648,30.875.466,33.853-.172,2.852-1.333,27.59-1.333,27.59a11.041,11.041,0,0,1-6.745-.465S65.82,175.622,65.5,172.519a39.584,39.584,0,0,1,.214-8.375L64.24,144.105s-1.785,15.54-2.666,21.4C60.567,172.212,56.223,193,56.223,193a10.667,10.667,0,0,1-6.162-.568S49.586,178.507,49.893,171.719Z" transform="translate(-48.861 -128.719)" fill="#1c4074"/>
          <path id="Path_229" data-name="Path 229" d="M70.054,147.543l.438-2.764c1.347-.2,4.759-2.326,6.777-4.187a16.069,16.069,0,0,1-5.668,5.216l-.07,21.765Z" transform="translate(-54.67 -132.138)" fill="#182c48"/>
        </g>
        <g id="Top-2" data-name="Top" transform="translate(0 8.751)">
          <path id="Path_230" data-name="Path 230" d="M81.352,101.817c-1.571-3.578-4.274-9.6-4.274-9.6l-.685-9.771a26.447,26.447,0,0,1,2.988.265A6.907,6.907,0,0,1,84.2,86.938c.788,1.94,4.88,13.776,4.88,13.776l7.132-3.75c1.827-1.159,2.475-3.08,3.64-4.187s2.331-1.275,3.622-2.163,1.8-1.6,2.125-.712-1.119,2.252-1.4,2.592-1.683,1.065.107,1.159,5.412-1.647,6.279-1.945.792.73.34,1.368-.5,2.508-1.254,3.555a5.169,5.169,0,0,1-2.955,2.261c-1.6.614-4.913.772-6.619,1.754s-5.836,4.708-8.59,6.621c-3.7,2.568-5.775,2.736-7.225.689A32.451,32.451,0,0,1,81.352,101.817Z" transform="translate(-30.449 -58.099)" fill="#ffa8a7"/>
          <path id="Path_231" data-name="Path 231" d="M75.04,82.123c2.424-.186,5.281-.037,6.861,1.4,1.263,1.149,1.739,1.861,3.146,5.834.932,2.666,2.927,8.807,2.927,8.807a12.738,12.738,0,0,0-6.992,4.276L76.438,92.243Z" transform="translate(-30.061 -57.989)" fill="#1977d5"/>
          <path id="Path_232" data-name="Path 232" d="M92.96,107.809a6.1,6.1,0,0,0-3.016,2.326s.172-1.861,2.8-2.973Z" transform="translate(-34.334 -65.218)" fill="#f28f8f"/>
          <path id="Path_233" data-name="Path 233" d="M62.278,81.531a11.472,11.472,0,0,0-3.407.372c-2.13.563-5.948,1.633-5.948,1.633-1.212.628-1.683,2.722-1.958,3.927-.876,3.857,1.4,12.562,1.748,15.954s-.406,13.781-.406,13.781c2.606,3.015,16.724,5.016,23.6,0,0,0,.3-23.854-.378-27.279-1.025-5.183-2.55-7.644-7.924-7.956Z" transform="translate(-23.103 -57.834)" fill="#2994ff"/>
          <path id="Path_234" data-name="Path 234" d="M70.476,63.371l-1.534.842a.93.93,0,0,1,.359-1.219.854.854,0,0,1,1.175.377Z" transform="translate(-28.285 -52.469)" fill="#263238"/>
          <path id="Path_235" data-name="Path 235" d="M79.921,63.846l-1.4-1.075a.849.849,0,0,1,1.217-.186A.929.929,0,0,1,79.921,63.846Z" transform="translate(-31.06 -52.33)" fill="#263238"/>
          <path id="Path_236" data-name="Path 236" d="M60.226,56.724a3.184,3.184,0,0,0-2.256,1.484c-.522,1.079-.336,3.685.368,6.514a26.231,26.231,0,0,0,1.771,5.332,2.19,2.19,0,0,0,1.258,1.01l-.089-3.378-.121-2.326a9.7,9.7,0,0,0,1.673-3.722,6.026,6.026,0,0,0-.242-3.057Z" transform="translate(-25.082 -50.693)" fill="#263238"/>
          <path id="Path_237" data-name="Path 237" d="M64.983,58.747A6.3,6.3,0,0,0,71.3,65.018a6.294,6.294,0,0,0-.061-12.581A6.3,6.3,0,0,0,64.983,58.747Z" transform="translate(-27.179 -49.459)" fill="#263238"/>
          <path id="Path_238" data-name="Path 238" d="M60.915,64.864c-.569.493-1.03-.777-1.506-1.275a1.67,1.67,0,0,0-2.8.465c-.76,1.633.681,4,1.864,4.457a1.7,1.7,0,0,0,2.009-.633v7.444c1.795,3.229,4.959,3.127,6.651,2.945s2.06-1.936.825-3.35V72.592a13.211,13.211,0,0,0,2.843.135c1.548-.242,2.331-1.4,2.8-3.085a28.434,28.434,0,0,0,0-12.441c-1.734-1.34-7.747-1.117-11.387,1.186C62.5,63.073,61.456,64.375,60.915,64.864Z" transform="translate(-24.718 -50.593)" fill="#ffa8a7"/>
          <path id="Path_239" data-name="Path 239" d="M75.075,52.275a11.328,11.328,0,0,0,.312-2.964c0-.391-.1-.865-.466-1.014s-.732.121-1.049.335a9.09,9.09,0,0,1-4.629,1.247c-2.8.154-7.071-.028-8.493,3.029a1.751,1.751,0,0,0,.317,2.326A5.366,5.366,0,0,0,63.4,56.1c1.4.247,2.8.554,4.232.744a11.168,11.168,0,0,0,4.563-.06,7.01,7.01,0,0,0,3.3-1.633,4.546,4.546,0,0,0,1.221-3.043c0-.158-.033-.358-.191-.4a.364.364,0,0,0-.228.047Z" transform="translate(-25.883 -48.254)" fill="#263238"/>
          <path id="Path_240" data-name="Path 240" d="M70.042,78.021A26.322,26.322,0,0,1,65.381,76.7,3.991,3.991,0,0,1,63.7,75.053,5.416,5.416,0,0,0,64.635,77c.89,1.126,5.4,1.94,5.4,1.94Z" transform="translate(-26.812 -55.971)" fill="#f28f8f"/>
          <path id="Path_241" data-name="Path 241" d="M70.99,66.45a.778.778,0,1,1-.778-.8A.792.792,0,0,1,70.99,66.45Z" transform="translate(-28.454 -53.264)" fill="#263238"/>
          <path id="Path_242" data-name="Path 242" d="M72.6,74.016a.732.732,0,1,1-.736-.754.745.745,0,0,1,.736.754Z" transform="translate(-28.941 -55.456)" fill="#b16668"/>
          <path id="Path_243" data-name="Path 243" d="M69.542,63.154l-1.6,1.01a.99.99,0,0,1,.308-1.34.933.933,0,0,1,1.3.33Z" transform="translate(-27.985 -52.41)" fill="#263238"/>
          <path id="Path_244" data-name="Path 244" d="M78.151,61.958l1.687.754a.886.886,0,0,1-1.193.465A.972.972,0,0,1,78.151,61.958Z" transform="translate(-30.936 -52.201)" fill="#263238"/>
          <path id="Path_245" data-name="Path 245" d="M78.821,66.133a.75.75,0,1,1-.755-.777A.768.768,0,0,1,78.821,66.133Z" transform="translate(-30.715 -53.179)" fill="#263238"/>
          <path id="Path_246" data-name="Path 246" d="M62.076,31.659l.275,5.174,2.456-.651Z" transform="translate(-17.783 -20.017)" fill="#f28f8f"/>
          <path id="Path_247" data-name="Path 247" d="M12.758,92.9c.806.433,4.092,2.74,5.878,2.94.755.084.96-.037.932-.233-.037-.27-.517-.675-.634-.893-.2-.382-1.4-1.963-.932-2.792s.872-.037,1.981,1.047,2.247,1.461,3.221,2.722,1.3,3.257,2.913,4.7l6.423,4.378s2.992-13.86,4.307-15.493c1.4-1.717,7.4,2.024,6.139,7.481s-4.125,14.93-6.12,16.787c-1.286,1.205-3.995.07-7.374-2.931-2.671-2.373-6.33-5.932-7.877-7.193s-4.764-1.94-6.241-2.792a5.146,5.146,0,0,1-2.55-2.708c-.573-1.159-.317-3.015-.657-3.722S11.938,92.465,12.758,92.9Z" transform="translate(-11.986 -59.946)" fill="#ffa8a7"/>
          <path id="Path_248" data-name="Path 248" d="M50.048,84.351c2.06,1.284,2.163,3.155,2.265,5.295a22.1,22.1,0,0,1-1.175,7.37c-.872,2.694-2.256,7.612-2.256,7.612s-5.379.126-8.148-2.261c0,0,1.263-5.3,2.153-9.305S44.86,84.8,50.048,84.351Z" transform="translate(-20.227 -58.649)" fill="#1977d5"/>
          <path id="Path_249" data-name="Path 249" d="M40.767,110.932a6.7,6.7,0,0,1,2.6,3.257,5.117,5.117,0,0,0-2.442-3.969Z" transform="translate(-20.237 -66.098)" fill="#f28f8f"/>
        </g>
        <g id="Outlet" transform="translate(76.334 133.415)">
          <path id="Path_250" data-name="Path 250" d="M106.992,219.5l35.975,20.732v7.64l-35.975-20.732Z" transform="translate(-106.992 -198.772)" fill="#2994ff"/>
          <path id="Path_251" data-name="Path 251" d="M106.992,219.5l35.975,20.732v7.64l-35.975-20.732Z" transform="translate(-106.992 -198.772)" opacity="0.35"/>
          <path id="Path_252" data-name="Path 252" d="M193.4,219.5l-35.975,20.732v7.64L193.4,227.139Z" transform="translate(-121.449 -198.772)" fill="#2994ff"/>
          <path id="Path_253" data-name="Path 253" d="M193.4,219.5l-35.975,20.732v7.64L193.4,227.139Z" transform="translate(-121.449 -198.772)" opacity="0.2"/>
          <path id="Path_254" data-name="Path 254" d="M178.942,211.117,142.962,190.39l-35.97,20.728,35.975,20.732Z" transform="translate(-106.992 -190.39)" fill="#2994ff"/>
          <path id="Path_255" data-name="Path 255" d="M178.942,211.117,142.962,190.39l-35.97,20.728,35.975,20.732Z" transform="translate(-106.992 -190.39)" fill="#2994ff" opacity="0.15"/>
          <path id="Path_256" data-name="Path 256" d="M142.967,240.232V238.05L110.777,219.5l-3.785,0Z" transform="translate(-106.992 -198.772)" opacity="0.1"/>
          <path id="Path_257" data-name="Path 257" d="M157.418,190.39l0,2.182,32.185,18.545H193.4Z" transform="translate(-121.448 -190.39)" opacity="0.1"/>
          <path id="Path_258" data-name="Path 258" d="M193.4,219.5h-3.79l-32.185,18.55v2.182Z" transform="translate(-121.449 -198.772)" fill="#2994ff"/>
          <path id="Path_259" data-name="Path 259" d="M142.962,190.39l0,2.182-32.19,18.55-3.785,0Z" transform="translate(-106.992 -190.39)" fill="#2994ff"/>
          <path id="Path_260" data-name="Path 260" d="M162.944,239.605,178.4,248.51a1.274,1.274,0,0,1,0,2.415l-11.527,6.663a4.617,4.617,0,0,1-4.2,0l-15.456-8.905a1.274,1.274,0,0,1,0-2.415l11.532-6.663A4.617,4.617,0,0,1,162.944,239.605Z" transform="translate(-126.839 -227.876)" fill="#182c48"/>
          <path id="Path_261" data-name="Path 261" d="M167.375,258.751l11.145-6.425-15.074-8.687a4.669,4.669,0,0,0-4.2,0l-11.145,6.435,15.074,8.677A4.617,4.617,0,0,0,167.375,258.751Z" transform="translate(-127.341 -229.039)" fill="#1c4074"/>
          <path id="Path_262" data-name="Path 262" d="M156.457,250.852l6.763-3.894a.906.906,0,0,1,.811,0l.83.465c.224.126.224.335,0,.465l-6.763,3.894a.9.9,0,0,1-.806,0l-.83-.465a.246.246,0,0,1,0-.465Z" transform="translate(-129.688 -230.11)" fill="#f6f6f6"/>
          <path id="Path_263" data-name="Path 263" d="M170.617,259.039l6.763-3.894a.9.9,0,0,1,.806,0l.834.465c.224.126.224.335,0,.465l-6.763,3.894a.9.9,0,0,1-.806,0l-.83-.465a.246.246,0,0,1,0-.465Z" transform="translate(-133.747 -232.468)" fill="#f6f6f6"/>
          <path id="Path_264" data-name="Path 264" d="M145.522,272.1a4.484,4.484,0,0,0-2.042-3.522,1.424,1.424,0,0,0-1.44-.14l-.881.512a1.423,1.423,0,0,0-.6,1.312,4.507,4.507,0,0,0,2.037,3.527,1.433,1.433,0,0,0,1.445.14l.876-.526A1.432,1.432,0,0,0,145.522,272.1Z" transform="translate(-125.176 -236.285)" fill="#2994ff"/>
          <path id="Path_265" data-name="Path 265" d="M142.6,269.316a4.484,4.484,0,0,1,2.042,3.522c0,1.3-.932,1.824-2.042,1.177a4.507,4.507,0,0,1-2.037-3.527C140.566,269.2,141.479,268.67,142.6,269.316Z" transform="translate(-125.179 -236.497)" opacity="0.1"/>
        </g>
        <g id="Cable" transform="translate(36.747 43.298)">
          <path id="Path_266" data-name="Path 266" d="M96.865,234.57a13.327,13.327,0,0,1-6.526-1.577L66.474,219.24c-1.916-1.107-2.974-2.633-2.974-4.3s1.058-3.187,2.974-4.294l27.65-15.935a12.534,12.534,0,0,0,5.593-9.664V97.7a.932.932,0,0,1,1.864,0v87.344a14.182,14.182,0,0,1-6.526,11.278l-27.65,15.935c-1.314.758-2.042,1.708-2.042,2.68s.727,1.926,2.042,2.685l23.865,13.753a12.4,12.4,0,0,0,11.187,0l17.6-10.134a.931.931,0,1,1,.932,1.61l-17.6,10.138A13.3,13.3,0,0,1,96.865,234.57Z" transform="translate(-63.5 -96.773)" fill="#1c4074"/>
        </g>
        <g id="Exclamation_Marks" data-name="Exclamation Marks" transform="translate(17.654)">
          <path id="Path_267" data-name="Path 267" d="M50.8,46.791a.492.492,0,0,1,.392-.577l2.265-.437a.467.467,0,0,1,.373.074.507.507,0,0,1,.21.316l.35,1.815a.51.51,0,0,1-.392.582L51.732,49a.493.493,0,0,1-.578-.391Zm-1.892-9.8a.493.493,0,0,1,.392-.582l2.27-.437a.5.5,0,0,1,.578.391l1.487,7.756a.5.5,0,0,1-.392.577l-2.27.437a.5.5,0,0,1-.578-.391Z" transform="translate(-40.223 -35.964)" fill="#1d3d5d"/>
          <path id="Path_268" data-name="Path 268" d="M43.531,57.867a.493.493,0,0,1,.037-.7l1.72-1.54a.508.508,0,0,1,.7.037l1.235,1.4a.493.493,0,0,1-.037.7l-1.7,1.521a.508.508,0,0,1-.7-.037Zm-6.67-7.444a.5.5,0,0,1-.126-.358.465.465,0,0,1,.163-.34l1.72-1.54a.5.5,0,0,1,.7.037l5.276,5.89a.506.506,0,0,1-.037.7l-1.725,1.54a.509.509,0,0,1-.7-.037Z" transform="translate(-36.735 -39.447)" fill="#1a252f"/>
          <g id="Group_512" data-name="Group 512" transform="translate(0 8.611)" opacity="0.6">
            <path id="Path_269" data-name="Path 269" d="M43.531,57.867a.493.493,0,0,1,.037-.7l1.72-1.54a.508.508,0,0,1,.7.037l1.235,1.4a.493.493,0,0,1-.037.7l-1.7,1.521a.508.508,0,0,1-.7-.037Zm-6.67-7.444a.5.5,0,0,1-.126-.358.465.465,0,0,1,.163-.34l1.72-1.54a.5.5,0,0,1,.7.037l5.276,5.89a.506.506,0,0,1-.037.7l-1.725,1.54a.509.509,0,0,1-.7-.037Z" transform="translate(-36.735 -48.057)" fill="none"/>
          </g>
        </g>
      </g>
    </g>
  </g>
</svg>
