<svg id="no_internet" xmlns="http://www.w3.org/2000/svg" width="550" height="550" viewBox="0 0 550 550">
  <rect id="bg" width="550" height="550" transform="translate(0)" fill="none"/>
  <g id="Group_789" data-name="Group 789" transform="translate(0 14)">
    <g id="Floor" transform="translate(2.679 237.818)">
      <ellipse id="Floor-2" data-name="Floor" cx="273.66" cy="142.237" rx="273.66" ry="142.237" fill="#d2dde7"/>
    </g>
    <g id="Shadows" transform="translate(35.628 314.503)">
      <ellipse id="Shadow" cx="72.991" cy="42.067" rx="72.991" ry="42.067" transform="translate(343.053 0)" fill="#c1d6e9"/>
      <g id="Shadow-2" data-name="Shadow" transform="translate(0 5.028)">
        <path id="Shadow-3" data-name="Shadow" d="M153.51,219.623c27.924,16.1,29.062,42.665,1.126,58.76S80.3,294,52.367,277.905s-27.924-42.187,0-58.282S125.562,203.528,153.51,219.623Z" transform="translate(-31.419 -207.552)" fill="#c1d6e9"/>
        <path id="Shadow-4" data-name="Shadow" d="M354.555,286.064l-91.667-52.829a11.483,11.483,0,0,0-10.374,0l-91.667,52.829c-2.863,1.65-2.863,4.329,0,5.979L202.595,316.1,163.6,338.57c-7.918,4.556-20.808,4.556-28.751,0L73.515,303.223c-3.378-1.949-5.247-4.4-5.247-6.888s1.869-4.951,5.247-6.9l54.351-31.329a2.393,2.393,0,1,0-2.4-4.137L71.143,285.275c-4.924,2.846-7.643,6.768-7.643,11.049s2.719,8.191,7.643,11.037l61.335,35.347a36.669,36.669,0,0,0,33.543,0l41.389-23.844,45.151,26.008a11.483,11.483,0,0,0,10.374,0L354.6,292.043C357.418,290.393,357.418,287.714,354.555,286.064Z" transform="translate(-4.685 -187.263)" fill="#e6e6e6"/>
      </g>
    </g>
    <g id="Character_2" data-name="Character 2" transform="translate(239.443)">
      <g id="Character" transform="translate(0 0)">
        <g id="Bottom" transform="translate(162.837 141.271)">
          <path id="Path_174" data-name="Path 174" d="M318.327,304.445s3.33-49.242,2.4-67.394c-.779-14.349-2.731-20.328-3.139-23.569,0,0-3.534-33.482-3.821-62.049-.144-13.727-1.414-23.485-8.949-39.8L256.381,123.2c-.982,7.246-4.313,55.436-5.1,98.281-.683,37.511.383,70.347.383,70.347V293.8c0,2.2-.479,3.731-1.893,7.246a42.219,42.219,0,0,1-7.5,12.388c-.994,1.076-7.906,7.1-8.817,8.37-2.971,3.456,3.187,5.4,7.751,4.783,4.792-.646,12.291-2.475,14.375-5.393,1.414-1.961,2.48-8.789,3.929-10.762,4.9-6.672,6.912-9.566,6.948-11.671.072-3.85-1.258-5.369-1.737-7.545.4-4.544,10.23-41.912,10.4-55.149.084-6.3-.347-14.983-.347-14.983l7.619-43.67c2.947,10.905,8.122,37.978,9.871,48.369,2.12,12.7,7.667,45.3,10.949,64.739,1.258,7.5,1.845,11.288,2.4,14.768l.132,1.483c.108,1.889,1.485,22.1,2.228,26.307,1.557,8.837,9.428,7.725,10.686.574,1.078-6.074-.264-24.92-.3-27.228Z" transform="translate(-230.361 -108.9)" fill="#ffa8a7"/>
          <path id="Path_175" data-name="Path 175" d="M285.737,217c2.228,0,.767,8.622,1.342,14.134.611,5.919,2.552,10.248,3.115,15.091a19.674,19.674,0,0,1-1.857,12.424c-1.545,3.587-9.332,8.37-12.291,3.336s-3.594-10.858-3.246-16.382,0-9.231.108-13.572c.108-3.826-2.707-13.6.18-14.146l.132,1.483c1.042,2.069,11.56,2.475,12.614-.323Z" transform="translate(-197.771 -21.452)" fill="#37474f"/>
          <path id="Path_176" data-name="Path 176" d="M254.734,216.461c.683,2.762,0,10.343,0,10.343s-1.2,2.619-5.475,4.353l-1.917-10.547Z" transform="translate(-218.136 -21.897)" fill="#263238"/>
          <path id="Path_177" data-name="Path 177" d="M241.686,196.731l-9.428-3.085-2.264-8.346,10.578,5.345Z" transform="translate(-210.587 12.53)"/>
          <path id="Path_178" data-name="Path 178" d="M252.712,212.339v-1.973c-1.282.622-4.1,10.917-7.907,17.937-3.474,6.445-10.362,10.033-12.6,12.843-2.995,3.743,2.827,8.586,12.159,6.589,4.636-.992,11.656-3.946,13.561-7.067s2.54-8.861,4.1-11.157,5.259-4.939,5.99-7.545a14.325,14.325,0,0,0,0-7.175c-.731-2.392-1.378-5.249-2.192-4.986v1.806c-.623,1.268-2.887,2.75-7.6,3.013C255.922,214.731,253.742,214.384,252.712,212.339Z" transform="translate(-231.412 -27.436)" fill="#37474f"/>
          <path id="Path_179" data-name="Path 179" d="M247.212,123.822s-3.2,35.479-4.229,66.892-.108,71.95-.108,71.95,3.246,2.32,10.4,2.643,9.584-2.057,9.584-2.057,4.372-14.242,5.055-24.262a102.306,102.306,0,0,0,0-16.3l6.385-41.924s8.1,41.278,9.021,46.265,8.673,49.1,8.673,49.1,3.043,2.8,10.853,2.655c6.912-.132,8.913-2.607,8.913-2.607s1.665-27.048,1.282-38.6c-.323-10.188-2.659-18.3-3.127-24.908s-.731-44.244-1.2-58.593-1.665-26.666-13.968-43.933Z" transform="translate(-222.175 -110.142)" fill="#1c4074"/>
          <path id="Path_180" data-name="Path 180" d="M268.461,164.34l-5.319-26.307s-9.26-2.392-13.585-8.06c0,0,1.2,6.266,10.781,10.272l5.654,26.164-1.965,27.048Z" transform="translate(-216.29 -93.682)" fill="#182c48"/>
        </g>
        <g id="Top" transform="translate(0 22.791)">
          <path id="Path_181" data-name="Path 181" d="M211.385,141.591a22.92,22.92,0,0,0,10.195-.753,20.057,20.057,0,0,1-4.037-2.667,2.783,2.783,0,0,1-.479-3.85c.443-.478,1.545.634,4.037,1.339,3.187.9,5.5,1.088,8.565,2.858a5.627,5.627,0,0,0,3.833.67c7.475-1.4,24.905-9.566,32.9-13.823,1.629-6.637,4.456-16.394,7.942-28.567,3.223-11.216,8.386-16.119,16.628-15.94l-1.186,24.358s-3.929,16.825-8.793,30.564c-.851,2.392-4.265,5.178-10.518,7.5-8.1,3-17.873,5.835-29.817,9.1a92.74,92.74,0,0,1-14.783,2.93c-12.626,1.076-17.466-2.392-19.167-4.879C201.861,143.564,204.724,140.264,211.385,141.591Z" transform="translate(-91.182 -15.972)" fill="#ffa8a7"/>
          <path id="Path_182" data-name="Path 182" d="M280.11,80.855l11.524.885a26.709,26.709,0,0,0,8.673,25.757l-5.139,20.663c.168,2.559,4.408,11.169,8.517,20.424-7.727,10.331-45.63,13.859-57.993,4.783,1.9-9.734,3.33-17.123,3.714-20.818l-.623-13.357c-15.5-12.687,3.2-32.023,10.087-38.169l8.649-.383Z" transform="translate(-59.087 -16.149)" fill="#2994ff"/>
          <path id="Path_183" data-name="Path 183" d="M290.749,144.2a6.44,6.44,0,0,1-2.468-5.548c.2-1.925.647-4.341,1.45-5.273s5.834-7.761,8.062-3.791c2.4,4.329,1.9,6.086,1.9,6.086Z" transform="translate(-21.197 23.454)" fill="#f28f8f"/>
          <path id="Path_184" data-name="Path 184" d="M340.631,246.971a31,31,0,0,1-15.274-4.616l-59.814-34.486c-9.236-5.321-16.771-18.319-16.771-28.974V128.8a9.584,9.584,0,0,0-14.375-8.251l-20.94,12.1a2.393,2.393,0,1,1-2.4-4.137l21-12.113a14.375,14.375,0,0,1,21.563,12.4V178.9c0,8.968,6.589,20.328,14.375,24.836l59.814,34.462c7.655,4.412,14.759,5.178,19.982,2.176s8.11-9.566,8.11-18.355v-63.95c0-10.834,6.936-23.318,15.789-28.424l14.6-8.37a2.393,2.393,0,1,1,2.4,4.137l-14.6,8.37c-7.26,4.185-13.393,15.294-13.393,24.274V222c0,10.595-3.738,18.582-10.506,22.493A18.81,18.81,0,0,1,340.631,246.971Z" transform="translate(-86.605 11.941)" fill="#1c4074"/>
          <g id="Plug" transform="translate(28.99 118.476)">
            <path id="Path_185" data-name="Path 185" d="M262.5,139.715v3.91c0,6.254-4.4,13.871-9.835,16.992l-36.274,20.914L179.51,160.271V128.391l35.771-16.526c5.69-2.619,14.7-2.212,20.138.909l17.227,9.937C258.072,125.844,262.5,133.462,262.5,139.715Z" transform="translate(-140.816 -110.14)" fill="#1c4074"/>
            <path id="Path_186" data-name="Path 186" d="M215.3,111.866c5.69-2.619,14.7-2.212,20.138.909l17.227,9.937c5.427,3.121,5.211,7.784-.479,10.415l-35.807,16.5-36.9-21.249Z" transform="translate(-140.838 -110.14)" fill="#1c4074"/>
            <path id="Path_187" data-name="Path 187" d="M219.856,135.65a10.842,10.842,0,0,1,4.912,8.49v26.223l-8.386,4.783L179.5,153.885v-31.82l9.344-4.3Z" transform="translate(-140.827 -103.814)" opacity="0.15"/>
            <path id="Path_188" data-name="Path 188" d="M180.553,117.258a3.419,3.419,0,0,1,3.45.335l36.274,20.914a10.83,10.83,0,0,1,4.912,8.5V178.2a3.405,3.405,0,0,1-1.438,3.157c-.839.466-3.8,2.176-4.624,2.667a3.443,3.443,0,0,1-3.462-.335L179.379,162.77a10.842,10.842,0,0,1-4.912-8.49V123.094a3.453,3.453,0,0,1,1.426-3.169Z" transform="translate(-145.034 -104.495)" fill="#182c48"/>
            <path id="Path_189" data-name="Path 189" d="M215.657,139.961l-36.286-20.9c-2.707-1.566-4.912-.3-4.912,2.834v31.186a10.842,10.842,0,0,0,4.912,8.49l36.286,20.914c2.707,1.566,4.912.3,4.912-2.834V148.463a10.866,10.866,0,0,0-4.912-8.5Z" transform="translate(-145.025 -103.294)" fill="#1c4074"/>
            <path id="Path_190" data-name="Path 190" d="M173.492,163.253v5.393c0,2.188.755,3.707,2,4.424l3.258,1.877a4.8,4.8,0,0,0,4.912-.43l29.949-17.291V135.941l-3.258-1.877-30.009,17.291a15.169,15.169,0,0,0-6.852,11.9Zm13.573-6.672a4.777,4.777,0,0,1,.192,1.2,10.16,10.16,0,0,1-4.612,7.976,4.343,4.343,0,0,1-1.2.478,4.906,4.906,0,0,1-.168-1.2,10.172,10.172,0,0,1,4.612-7.976A5.684,5.684,0,0,1,187.065,156.58Z" transform="translate(-145.831 -90.282)" fill="#2994ff"/>
            <path id="Path_191" data-name="Path 191" d="M178.572,164.659a1.2,1.2,0,0,0,.2.143h0l-.12-.072-3.151-1.83c-1.258-.694-2-2.212-2-4.412V153.1a13.9,13.9,0,0,1,2.025-6.78l3.258,1.877a14.092,14.092,0,0,0-2.013,6.78v5.393a5.482,5.482,0,0,0,1.258,3.85A2.936,2.936,0,0,0,178.572,164.659Z" transform="translate(-145.82 -80.113)" opacity="0.2"/>
            <path id="Path_192" data-name="Path 192" d="M212.68,135.941l-29.949,17.291a14.026,14.026,0,0,0-4.864,5.118l-3.258-1.877a14.1,14.1,0,0,1,4.852-5.118l30.009-17.291Z" transform="translate(-144.9 -90.282)" fill="#fff" opacity="0.5"/>
            <path id="Path_193" data-name="Path 193" d="M176.464,156.464h0Z" transform="translate(-143.424 -71.691)" fill="#fff" opacity="0.5"/>
            <path id="Path_194" data-name="Path 194" d="M176.426,156.45Z" transform="translate(-143.386 -71.702)" opacity="0.2"/>
            <path id="Path_195" data-name="Path 195" d="M183.635,147.658a5.1,5.1,0,0,0-.168-1.279h0c1.977-.538,3.426.694,3.426,3.157a10.184,10.184,0,0,1-4.6,7.976c-2.132,1.2-3.953.586-4.456-1.4a3.922,3.922,0,0,0,1.2-.478,10.2,10.2,0,0,0,4.6-7.976Z" transform="translate(-142.21 -80.165)" opacity="0.2"/>
            <path id="Path_196" data-name="Path 196" d="M158.4,154.536v5.4c0,2.176.755,3.707,2,4.412l3.258,1.889a4.8,4.8,0,0,0,4.888-.454l29.949-17.3V127.237l-3.258-1.889-29.949,17.291A15.2,15.2,0,0,0,158.4,154.536Zm13.573-6.708a5.169,5.169,0,0,1,.168,1.279,10.172,10.172,0,0,1-4.612,7.976,5.517,5.517,0,0,1-1.2.478,4.548,4.548,0,0,1-.168-1.256,10.184,10.184,0,0,1,4.6-7.976,4.69,4.69,0,0,1,1.21-.5Z" transform="translate(-158.404 -97.517)" fill="#2994ff"/>
            <path id="Path_197" data-name="Path 197" d="M163.807,156.125h-.144l-3.258-1.9c-1.258-.706-2-2.224-2-4.424v-5.393a11.8,11.8,0,0,1,.539-3.4,16.1,16.1,0,0,1,1.473-3.372h0l3.258,1.865h0a15.152,15.152,0,0,0-.827,1.65,13,13,0,0,0-1.2,5.118v5.393a5.506,5.506,0,0,0,1.2,3.85,3.356,3.356,0,0,0,.958.61Z" transform="translate(-158.404 -87.316)" opacity="0.2"/>
            <path id="Path_198" data-name="Path 198" d="M197.6,127.237,167.65,144.527a13.93,13.93,0,0,0-4.864,5.118l-3.258-1.865a14.085,14.085,0,0,1,4.792-5.142l29.949-17.291Z" transform="translate(-157.468 -97.517)" fill="#fff" opacity="0.5"/>
            <path id="Path_199" data-name="Path 199" d="M161.435,147.753h-.024Z" transform="translate(-155.948 -78.92)" fill="#fff" opacity="0.5"/>
            <path id="Path_200" data-name="Path 200" d="M168.523,138.958a5.023,5.023,0,0,0-.156-1.267h0c1.965-.55,3.426.694,3.426,3.157a10.184,10.184,0,0,1-4.6,7.976c-2.144,1.2-3.953.586-4.456-1.411a3.744,3.744,0,0,0,1.2-.478A10.16,10.16,0,0,0,168.523,138.958Z" transform="translate(-154.794 -87.38)" opacity="0.2"/>
          </g>
          <line id="Line_51" data-name="Line 51" x1="4.828" y1="18.75" transform="translate(33.231 134.994)" fill="none" stroke="#e0e0e0" stroke-linecap="round" stroke-linejoin="round" stroke-width="1.96"/>
          <line id="Line_52" data-name="Line 52" x1="17.849" y1="14.074" transform="translate(6.732 147.49)" fill="none" stroke="#e0e0e0" stroke-linecap="round" stroke-linejoin="round" stroke-width="1.96"/>
          <line id="Line_53" data-name="Line 53" x1="20.856" y2="1.614" transform="translate(0 177.121)" fill="none" stroke="#e0e0e0" stroke-linecap="round" stroke-linejoin="round" stroke-width="1.96"/>
          <path id="Path_201" data-name="Path 201" d="M323.359,163.774a117.65,117.65,0,0,0-1.965-13.154,176.907,176.907,0,0,0-10.854-29.667c-2-3.815-6.517-9.375-9.715-14.074-4.528-6.637-7.715-10.355-11.153-14.863-7.571-9.889-10.782-10.463-19.622-10.762-1.2,3.145-3.929,16.035,4.924,26.451l18.976,19.969c1.078,1.734,12.674,21.524,14.6,28.83a5.4,5.4,0,0,1-.455,3.862,46.574,46.574,0,0,0-3.318,10.475c-.563,2.535-2.072,4.544-1.557,4.939a3.407,3.407,0,0,0,4.2-.335,18,18,0,0,0,3.27-4.927,2.573,2.573,0,0,1,2.743,2.619c.108,1.471-.563,3.516-1.078,6.063-.1.5-.216,1.076-.443,2.463a16.028,16.028,0,0,0-.336,2.846c2.4.442,4.9-1.016,8.925-4.783C324.138,176.21,324.378,171.595,323.359,163.774Z" transform="translate(-37.504 -15.639)" fill="#ffa8a7"/>
          <path id="Path_202" data-name="Path 202" d="M281.8,104.293c.072-2.392,7.859-7.988,11.8-13.943,3.594-5.524,8.757-20.711-3.342-25.566,0,0,2.612-7.282-2.132-11.575s-11.129-1.638-12.135.155a10.778,10.778,0,0,0-10.135-7.94,9.426,9.426,0,0,0-9.919,7.378A9.1,9.1,0,0,0,244.9,55.889c-4.444,6.11,1.45,11.707,1.45,11.707a5.079,5.079,0,0,0-2.216,4.735c.347,2.583,2.827,3.217,3.115,4.508a1.27,1.27,0,0,1-2.168,1.124,2.611,2.611,0,0,0,3.067,2.069c2.791-.155,5.283-3.946,5.283-3.946Z" transform="translate(-58.715 -45.399)" fill="#263238"/>
          <path id="Path_203" data-name="Path 203" d="M253.573,55.574c-3.594,1.555-6.984,7.019-6.936,22.3,0,12.95,4.025,16.227,5.99,17.2s5.93.466,9.751-.12v7.45s-6.912,8.562-.719,12.819c15.957-2.786,17.179-13.237,17.179-13.237l.287-16.239s2.192,2.3,5.99-1.076c3.187-2.786,4.337-7.557,1.941-10.188s-5.463-2.834-8.242.1c0,0-5.091.335-12.746-4.46S255.681,60.453,253.573,55.574Z" transform="translate(-55.887 -36.953)" fill="#ffa8a7"/>
          <path id="Path_204" data-name="Path 204" d="M257.185,73.034a1.867,1.867,0,0,1-1.773,1.985,1.925,1.925,0,1,1,1.773-1.985Z" transform="translate(-50.31 -24.004)" fill="#b16668"/>
          <path id="Path_205" data-name="Path 205" d="M251.622,66.129a1.725,1.725,0,1,1-1.8-1.734,1.759,1.759,0,0,1,1.8,1.734Z" transform="translate(-54.607 -29.631)" fill="#263238"/>
          <path id="Path_206" data-name="Path 206" d="M258.965,66.583a1.867,1.867,0,0,1-1.773,1.985,1.9,1.9,0,0,1-1.917-1.865,1.846,1.846,0,0,1,3.69-.12Z" transform="translate(-48.689 -29.295)" fill="#263238"/>
          <path id="Path_207" data-name="Path 207" d="M251.061,61.6l-3.654,2.14a2.038,2.038,0,0,0,2.875.777,2.186,2.186,0,0,0,.779-2.918Z" transform="translate(-55.244 -31.953)" fill="#263238"/>
          <path id="Path_208" data-name="Path 208" d="M265.8,64.807v7.175a3.375,3.375,0,0,1-3.462-3.492,3.71,3.71,0,0,1,3.462-3.683Z" transform="translate(-42.803 -29.29)" fill="#263238"/>
          <path id="Path_209" data-name="Path 209" d="M243.44,31.463,242.7,41.794l-5.451-1.279Z" transform="translate(-41.705 3.325)" fill="#f28f8f"/>
          <path id="Path_210" data-name="Path 210" d="M255.254,79.887c4.013-.466,12.3-2.762,13.657-6.134a8.789,8.789,0,0,1-2.971,4.269c-2.5,2.152-10.7,4.377-10.7,4.377Z" transform="translate(-48.715 -21.865)" fill="#f28f8f"/>
        </g>
        <g id="Question_Marks" data-name="Question Marks" transform="translate(238.3)">
          <path id="Path_211" data-name="Path 211" d="M289.054,33.856a16.515,16.515,0,0,1,4.253,2.392,12.863,12.863,0,0,1,3.174,3.336,10.367,10.367,0,0,1,1.557,4.113,9.133,9.133,0,0,1-.563,4.628,9.443,9.443,0,0,1-1.9,3.181,11.378,11.378,0,0,1-2.552,2.009,17.757,17.757,0,0,1-2.875,1.315l-2.827,1.016a14.314,14.314,0,0,0-2.4,1.124,4.274,4.274,0,0,0-1.737,1.6,2.107,2.107,0,0,1-.791.765,1.2,1.2,0,0,1-1.03.06L277.625,58a1.413,1.413,0,0,1-.8-.753,1.194,1.194,0,0,1,0-1.064,9.218,9.218,0,0,1,2.084-3.061,13.066,13.066,0,0,1,2.7-1.949,18.7,18.7,0,0,1,2.947-1.267c1.006-.335,1.941-.658,2.815-.992a12.469,12.469,0,0,0,2.264-1.1,3.337,3.337,0,0,0,1.342-1.65,3.928,3.928,0,0,0-.407-3.659,7.187,7.187,0,0,0-3.726-2.762,6.873,6.873,0,0,0-7.7,1.853,3.1,3.1,0,0,1-.827.622,1.38,1.38,0,0,1-1.006-.072l-3.977-1.495a1.113,1.113,0,0,1-.647-.586,1.015,1.015,0,0,1,0-.9,7.978,7.978,0,0,1,2.4-3.109,12.837,12.837,0,0,1,3.917-2.224,15.6,15.6,0,0,1,4.876-.885,13.775,13.775,0,0,1,5.187.909Zm-8.529,28.579a1.317,1.317,0,0,1,.779.741,1.349,1.349,0,0,1,0,1.076l-1.629,4.317a1.317,1.317,0,0,1-.743.777,1.356,1.356,0,0,1-1.078,0l-4.229-1.59a1.317,1.317,0,0,1-.779-.741,1.349,1.349,0,0,1,0-1.076l1.629-4.317a1.376,1.376,0,0,1,.743-.789,1.4,1.4,0,0,1,1.078,0Z" transform="translate(-272.573 -32.945)" fill="#acccec"/>
          <path id="Path_212" data-name="Path 212" d="M286.489,73.134a1.314,1.314,0,0,1,0,1.877l-2.995,3.157a1.3,1.3,0,0,1-.934.407,1.331,1.331,0,0,1-.958-.359l-3.055-2.93A1.356,1.356,0,0,1,278.5,73.4l3.007-3.145a1.343,1.343,0,0,1,1.881,0Zm17.969-21.679a15.958,15.958,0,0,1,2.839,3.587,12.471,12.471,0,0,1,1.521,4.066,9.848,9.848,0,0,1-.2,4.125A9.571,9.571,0,0,1,303.6,69.1a10.52,10.52,0,0,1-2.947.813,17.833,17.833,0,0,1-2.983.084l-2.827-.155a14.558,14.558,0,0,0-2.528.084,4.077,4.077,0,0,0-2.06.837,1.871,1.871,0,0,1-.97.371,1.127,1.127,0,0,1-.922-.323l-2.719-2.583a1.374,1.374,0,0,1-.431-.945,1.1,1.1,0,0,1,.383-.945,8.711,8.711,0,0,1,2.923-1.913,12.272,12.272,0,0,1,3.055-.705,18.349,18.349,0,0,1,3.031,0q1.5.132,2.8.179a11.437,11.437,0,0,0,2.4-.132,3.129,3.129,0,0,0,1.785-.933,3.738,3.738,0,0,0,.982-3.324,6.718,6.718,0,0,0-2.216-3.767,6.5,6.5,0,0,0-7.379-1.2,2.76,2.76,0,0,1-.934.227,1.2,1.2,0,0,1-.851-.43l-2.9-2.762a1.1,1.1,0,0,1-.359-.729,1.051,1.051,0,0,1,.312-.8,7.729,7.729,0,0,1,3.211-1.83,12.239,12.239,0,0,1,4.217-.49,14.6,14.6,0,0,1,4.564,1.028,12.7,12.7,0,0,1,4.181,2.69Z" transform="translate(-267.936 -20.685)" fill="rgba(41,148,255,0.1)"/>
          <g id="Group_511" data-name="Group 511" transform="translate(10.201 27.03)" opacity="0.6">
            <path id="Path_213" data-name="Path 213" d="M286.489,73.134a1.314,1.314,0,0,1,0,1.877l-2.995,3.157a1.3,1.3,0,0,1-.934.407,1.331,1.331,0,0,1-.958-.359l-3.055-2.93A1.356,1.356,0,0,1,278.5,73.4l3.007-3.145a1.343,1.343,0,0,1,1.881,0Zm17.969-21.679a15.958,15.958,0,0,1,2.839,3.587,12.471,12.471,0,0,1,1.521,4.066,9.848,9.848,0,0,1-.2,4.125A9.571,9.571,0,0,1,303.6,69.1a10.52,10.52,0,0,1-2.947.813,17.833,17.833,0,0,1-2.983.084l-2.827-.155a14.558,14.558,0,0,0-2.528.084,4.077,4.077,0,0,0-2.06.837,1.871,1.871,0,0,1-.97.371,1.127,1.127,0,0,1-.922-.323l-2.719-2.583a1.374,1.374,0,0,1-.431-.945,1.1,1.1,0,0,1,.383-.945,8.711,8.711,0,0,1,2.923-1.913,12.272,12.272,0,0,1,3.055-.705,18.349,18.349,0,0,1,3.031,0q1.5.132,2.8.179a11.437,11.437,0,0,0,2.4-.132,3.129,3.129,0,0,0,1.785-.933,3.738,3.738,0,0,0,.982-3.324,6.718,6.718,0,0,0-2.216-3.767,6.5,6.5,0,0,0-7.379-1.2,2.76,2.76,0,0,1-.934.227,1.2,1.2,0,0,1-.851-.43l-2.9-2.762a1.1,1.1,0,0,1-.359-.729,1.051,1.051,0,0,1,.312-.8,7.729,7.729,0,0,1,3.211-1.83,12.239,12.239,0,0,1,4.217-.49,14.6,14.6,0,0,1,4.564,1.028,12.7,12.7,0,0,1,4.181,2.69Z" transform="translate(-278.138 -47.715)" fill="#c8d9e8"/>
          </g>
        </g>
      </g>
    </g>
    <g id="Character_1" data-name="Character 1" transform="translate(0 5.526)">
      <g id="Character-2" data-name="Character" transform="translate(0 0)">
        <g id="Bottom-2" data-name="Bottom" transform="translate(66.919 169.741)">
          <path id="Path_214" data-name="Path 214" d="M50.19,238.9c3.8,2.308,8.841,2.392,13.6.729l3.594-25.111-16.771-4.281Z" transform="translate(-47.069 -61.061)" fill="#ffa8a7"/>
          <path id="Path_215" data-name="Path 215" d="M78.657,248.961c.419.43.168,3.587-.347,4.293s-3.4,3.1-8.721,3.193c-5.067.084-9.584-.837-12.411-2.882S53,249.38,52.866,246.486s.347-5.632-.9-7.916-2.743-4.2-3.127-5.321a14.324,14.324,0,0,1,0-6.182Z" transform="translate(-48.475 -47.091)" fill="#263238"/>
          <path id="Path_216" data-name="Path 216" d="M66.367,228.451a13.8,13.8,0,0,0,.455,3.229,29.59,29.59,0,0,0,2.743,6.481,27.218,27.218,0,0,0,1.953,3.073c1.426,1.9,3.246,3.492,4.792,5.321a10.287,10.287,0,0,1,2.791,6.362c0,3.97-4.373,5.082-7.715,5.489a24.4,24.4,0,0,1-10.782-1.112,9.882,9.882,0,0,1-6.816-8.275c-.132-1.112,0-2.224-.072-3.336a15.445,15.445,0,0,0-2.707-7.091,20.317,20.317,0,0,1-2.156-3.9c-.91-2.5.072-5.214.863-7.617.683-2.069,1.2-4.568,1.965-4.329V224.1c.216.466.743.8.875,1.351a10.259,10.259,0,0,0,.515,1.662,4.306,4.306,0,0,0,1.653,2.033c.132-1.495.264-2.989.383-4.472a1.568,1.568,0,0,1,1.713-1.782,28.307,28.307,0,0,1,8.517-.251,1.63,1.63,0,0,1,1.114.562,1.719,1.719,0,0,1,.132,1.016,39.141,39.141,0,0,0-.216,4.233Z" transform="translate(-48.488 -50.938)" fill="#2994ff"/>
          <path id="Path_217" data-name="Path 217" d="M66.367,228.451a13.8,13.8,0,0,0,.455,3.229,29.59,29.59,0,0,0,2.743,6.481,27.218,27.218,0,0,0,1.953,3.073c1.426,1.9,3.246,3.492,4.792,5.321a10.287,10.287,0,0,1,2.791,6.362c0,3.97-4.373,5.082-7.715,5.489a24.4,24.4,0,0,1-10.782-1.112,9.882,9.882,0,0,1-6.816-8.275c-.132-1.112,0-2.224-.072-3.336a15.445,15.445,0,0,0-2.707-7.091,20.317,20.317,0,0,1-2.156-3.9c-.91-2.5.072-5.214.863-7.617.683-2.069,1.2-4.568,1.965-4.329V224.1c.216.466.743.8.875,1.351a10.259,10.259,0,0,0,.515,1.662,4.306,4.306,0,0,0,1.653,2.033c.132-1.495.264-2.989.383-4.472a1.568,1.568,0,0,1,1.713-1.782,28.307,28.307,0,0,1,8.517-.251,1.63,1.63,0,0,1,1.114.562,1.719,1.719,0,0,1,.132,1.016,39.141,39.141,0,0,0-.216,4.233Z" transform="translate(-48.488 -50.938)" opacity="0.2"/>
          <path id="Path_218" data-name="Path 218" d="M66.423,233.072c-1.414-1.2-4.72-1.375-6.541-1.279a11.06,11.06,0,0,0-5.235,1.519,1.2,1.2,0,0,1-1.5-.2h0a1.1,1.1,0,0,1,.192-1.674,11.335,11.335,0,0,1,5.906-1.829c4.528-.072,5.726.741,5.726.741S66.938,231.78,66.423,233.072Z" transform="translate(-44.854 -44.988)" fill="#455a64"/>
          <path id="Path_219" data-name="Path 219" d="M68.423,235.342c-1.8-1.2-5.439-1.2-7.26-1.136a10.315,10.315,0,0,0-5.091,1.626,1.2,1.2,0,0,1-1.509-.2h0a1.087,1.087,0,0,1,.2-1.674,11.454,11.454,0,0,1,5.99-1.985c4.468-.084,5.582.9,5.582.9a3.673,3.673,0,0,1,2.084,2.475Z" transform="translate(-43.679 -43.025)" fill="#455a64"/>
          <path id="Path_220" data-name="Path 220" d="M58.352,227.266a11.123,11.123,0,0,1,5.57.765c.755.49,1.2,1.746.683,2.033a10.39,10.39,0,0,0-4.972-.945,14.685,14.685,0,0,0-4.876,1.064,9.133,9.133,0,0,0-1.2.55,1.043,1.043,0,0,1-1.438-.526h0a1,1,0,0,1,.455-1.2,14.311,14.311,0,0,1,5.774-1.746Z" transform="translate(-45.503 -46.991)" fill="#455a64"/>
          <path id="Path_221" data-name="Path 221" d="M76.982,232.413c2.923,7.306,7.5,5.058,14.471.849l1.054-24.944L74.765,206.68Z" transform="translate(-26.59 -64.012)" fill="#ffa8a7"/>
          <path id="Path_222" data-name="Path 222" d="M118.852,235.115a4.775,4.775,0,0,1-.383,3.5c-.551,1-6.1,3.755-13.345,2.87a30.242,30.242,0,0,1-14.759-6.051c-2.671-1.985-5.535-2.475-9.128-2.882s-6.289-1.65-7-3.372.371-4.568.371-4.568Z" transform="translate(-27.227 -49.124)" fill="#263238"/>
          <path id="Path_223" data-name="Path 223" d="M90.681,218.68a14.328,14.328,0,0,0,1.929-.55,1.572,1.572,0,0,1,1.09,0c.455.2.6.753.707,1.2a16.547,16.547,0,0,0,.623,3.193,7.824,7.824,0,0,0,1.917,2.248,33.337,33.337,0,0,0,5.618,4.054c2.312,1.411,4.588,2.523,6.972,3.755s5.726,2.117,7.619,3.587c2.743,2.081,2.851,6.924-.5,8.645-2.887,1.495-10.362,2.882-17.969.275-4.157-1.423-8.589-6.17-14.1-6.9-3.51-.454-8.182-1-10.3-3.791-.767-1.2-.1-4.664.527-8.717.563-3.587,1.078-9.327,2.24-8.944l.084,1.1,1.414,1.686a12.051,12.051,0,0,0,.982.933q.567.663,1.2,1.267a3.6,3.6,0,0,0,2.025.849,1.871,1.871,0,0,0,1.018-.227c.6-.335.683-1.124,1.2-1.614a5.847,5.847,0,0,1,1.965-1.327,11.532,11.532,0,0,1,3.187-.646,4.367,4.367,0,0,0,.563-.072Z" transform="translate(-27.279 -55.684)" fill="#2994ff"/>
          <path id="Path_224" data-name="Path 224" d="M90.681,218.68a14.328,14.328,0,0,0,1.929-.55,1.572,1.572,0,0,1,1.09,0c.455.2.6.753.707,1.2a16.547,16.547,0,0,0,.623,3.193,7.824,7.824,0,0,0,1.917,2.248,33.337,33.337,0,0,0,5.618,4.054c2.312,1.411,4.588,2.523,6.972,3.755s5.726,2.117,7.619,3.587c2.743,2.081,2.851,6.924-.5,8.645-2.887,1.495-10.362,2.882-17.969.275-4.157-1.423-8.589-6.17-14.1-6.9-3.51-.454-8.182-1-10.3-3.791-.767-1.2-.1-4.664.527-8.717.563-3.587,1.078-9.327,2.24-8.944l.084,1.1,1.414,1.686a12.051,12.051,0,0,0,.982.933q.567.663,1.2,1.267a3.6,3.6,0,0,0,2.025.849,1.871,1.871,0,0,0,1.018-.227c.6-.335.683-1.124,1.2-1.614a5.847,5.847,0,0,1,1.965-1.327,11.532,11.532,0,0,1,3.187-.646,4.367,4.367,0,0,0,.563-.072Z" transform="translate(-27.279 -55.684)" opacity="0.2"/>
          <path id="Path_225" data-name="Path 225" d="M92.075,223.054a3.306,3.306,0,0,0-2.516-1.877c-1.581-.383-4.468.646-6.3,2a1.314,1.314,0,0,0,.072,2.176h0a1.344,1.344,0,0,0,1.509-.084A9.979,9.979,0,0,1,92.075,223.054Z" transform="translate(-19.964 -52.046)" fill="#455a64"/>
          <path id="Path_226" data-name="Path 226" d="M95.19,224.637a3.775,3.775,0,0,0-2.995-1.746,11.706,11.706,0,0,0-6.9,2.164,1.278,1.278,0,0,0,0,2.1h0a1.284,1.284,0,0,0,1.462-.1A10.1,10.1,0,0,1,95.19,224.637Z" transform="translate(-18.275 -50.556)" fill="#455a64"/>
          <path id="Path_227" data-name="Path 227" d="M98.018,226.1a4.207,4.207,0,0,0-3.115-1.6,11.346,11.346,0,0,0-6.625,2.2,1.278,1.278,0,0,0,.072,2.1h0a1.2,1.2,0,0,0,1.45-.084A9.6,9.6,0,0,1,98.018,226.1Z" transform="translate(-15.76 -49.222)" fill="#455a64"/>
          <path id="Path_228" data-name="Path 228" d="M50.056,239.232c.539-12.041,3.1-18.307,3.462-21.644,0,0,.982-66.246,2.6-86.347l59.418-2.523c.875,21.524,1.665,79.352,1.2,87-.443,7.33-3.426,70.909-3.426,70.909-8.386,2.619-17.334-1.2-17.334-1.2s-4.983-36.172-5.8-44.148a101.732,101.732,0,0,1,.551-21.524l-3.8-51.5s-4.588,39.939-6.852,55.006c-2.588,17.231-13.752,70.646-13.752,70.646-8.026,2-15.837-1.459-15.837-1.459S49.265,256.679,50.056,239.232Z" transform="translate(-47.402 -128.719)" fill="#1c4074"/>
          <path id="Path_229" data-name="Path 229" d="M70.054,158.457l1.126-7.1c3.462-.514,12.231-5.979,17.418-10.762A41.3,41.3,0,0,1,74.031,154l-.18,55.938Z" transform="translate(-30.516 -118.865)" fill="#182c48"/>
        </g>
        <g id="Top-2" data-name="Top" transform="translate(0 22.491)">
          <path id="Path_230" data-name="Path 230" d="M89.139,132.235c-4.037-9.2-10.985-24.681-10.985-24.681L76.392,82.443a67.973,67.973,0,0,1,7.679.682c3.738.586,9.667,4.149,12.375,10.87,2.025,4.986,12.543,35.407,12.543,35.407l18.329-9.638c4.7-2.977,6.361-7.916,9.356-10.762s5.99-3.276,9.308-5.56,4.624-4.113,5.463-1.83-2.875,5.788-3.594,6.66-4.325,2.738.276,2.977,13.908-4.233,16.136-5,2.036,1.877.874,3.516-1.282,6.445-3.223,9.136c-2.06,2.87-3.175,4.1-7.6,5.811-4.109,1.578-12.626,1.985-17.011,4.508s-15,12.1-22.078,17.016c-9.5,6.6-14.843,7.031-18.568,1.77S90.564,135.476,89.139,132.235Z" transform="translate(41.686 -19.878)" fill="#ffa8a7"/>
          <path id="Path_231" data-name="Path 231" d="M75.04,82.224c6.229-.478,13.573-.1,17.634,3.587,3.246,2.954,4.468,4.783,8.086,15,2.4,6.852,7.523,22.636,7.523,22.636a32.737,32.737,0,0,0-17.969,10.989l-11.68-26.2Z" transform="translate(40.559 -20.196)" fill="#1977d5"/>
          <path id="Path_232" data-name="Path 232" d="M97.7,108.824a15.677,15.677,0,0,0-7.751,5.979s.443-4.783,7.188-7.641Z" transform="translate(52.979 0.639)" fill="#f28f8f"/>
          <path id="Path_233" data-name="Path 233" d="M80.353,81.546A29.485,29.485,0,0,0,71.6,82.5C66.121,83.95,56.31,86.7,56.31,86.7c-3.115,1.614-4.325,7-5.031,10.092-2.252,9.913,3.594,32.286,4.492,41s-1.042,35.419-1.042,35.419c6.7,7.749,42.983,12.89,60.652,0,0,0,.767-61.307-.97-70.108-2.635-13.321-6.553-19.647-20.365-20.448Z" transform="translate(20.331 -20.643)" fill="#2994ff"/>
          <path id="Path_234" data-name="Path 234" d="M73.04,64.125,69.1,66.289a2.389,2.389,0,0,1,.922-3.133,2.194,2.194,0,0,1,3.019.969Z" transform="translate(35.395 -36.106)" fill="#263238"/>
          <path id="Path_235" data-name="Path 235" d="M82.116,66.1l-3.594-2.762a2.183,2.183,0,0,1,3.127-.478A2.389,2.389,0,0,1,82.116,66.1Z" transform="translate(43.461 -36.507)" fill="#263238"/>
          <path id="Path_236" data-name="Path 236" d="M64.237,56.724s-4.241.586-5.8,3.815c-1.342,2.774-.863,9.471.946,16.741a67.417,67.417,0,0,0,4.552,13.7,5.628,5.628,0,0,0,3.234,2.595L66.944,84.9l-.311-5.979s3.869-5.285,4.3-9.566c.551-5.572-.623-7.856-.623-7.856Z" transform="translate(26.085 -41.224)" fill="#263238"/>
          <path id="Path_237" data-name="Path 237" d="M64.984,68.652A16.194,16.194,0,0,0,81.216,84.771c8.937,0,15.645-7.354,15.573-16.286S90.009,52.4,81.06,52.438A16.181,16.181,0,0,0,64.984,68.652Z" transform="translate(32.178 -44.782)" fill="#263238"/>
          <path id="Path_238" data-name="Path 238" d="M68,78.19c-1.462,1.268-2.647-2-3.869-3.276s-5.235-3-7.188,1.2,1.749,10.284,4.792,11.456A4.377,4.377,0,0,0,66.9,85.939v19.132c4.612,8.3,12.746,8.036,17.095,7.569s5.295-4.974,2.12-8.61V98.052a33.951,33.951,0,0,0,7.308.347c3.977-.622,5.99-3.587,7.188-7.928,1.917-6.924,2.7-18.546,0-31.975-4.456-3.444-19.91-2.87-29.266,3.049C72.075,73.586,69.392,76.934,68,78.19Z" transform="translate(25.026 -41.513)" fill="#ffa8a7"/>
          <path id="Path_239" data-name="Path 239" d="M98.017,58.588a29.114,29.114,0,0,0,.8-7.617c0-1-.252-2.224-1.2-2.607s-1.881.311-2.7.861c-3.45,2.32-7.739,2.977-11.9,3.2-7.188.395-18.173-.072-21.827,7.785-1.018,2.176-1.2,4.472.815,5.979a13.792,13.792,0,0,0,5.99,2.224c3.594.634,7.188,1.423,10.877,1.913s8.074.969,11.728-.155c3.079-.945,6.205-1.758,8.493-4.2a11.683,11.683,0,0,0,3.139-7.82c0-.407-.084-.921-.491-1.028a.936.936,0,0,0-.587.12Z" transform="translate(28.411 -48.254)" fill="#263238"/>
          <path id="Path_240" data-name="Path 240" d="M79.995,82.682s-8.889-1.758-11.98-3.4A10.257,10.257,0,0,1,63.7,75.053a13.92,13.92,0,0,0,2.4,5c2.288,2.894,13.872,4.986,13.872,4.986Z" transform="translate(31.111 -26.012)" fill="#f28f8f"/>
          <path id="Path_241" data-name="Path 241" d="M73.434,67.707a2,2,0,1,1-2-2.057A2.035,2.035,0,0,1,73.434,67.707Z" transform="translate(35.887 -33.816)" fill="#263238"/>
          <path id="Path_242" data-name="Path 242" d="M74.894,75.2A1.882,1.882,0,1,1,73,73.262,1.915,1.915,0,0,1,74.894,75.2Z" transform="translate(37.302 -27.498)" fill="#b16668"/>
          <path id="Path_243" data-name="Path 243" d="M72.283,63.888l-4.121,2.595a2.544,2.544,0,0,1,.791-3.444,2.4,2.4,0,0,1,3.33.849Z" transform="translate(34.523 -36.275)" fill="#263238"/>
          <path id="Path_244" data-name="Path 244" d="M78.249,61.958,82.585,63.9a2.278,2.278,0,0,1-3.067,1.2,2.5,2.5,0,0,1-1.27-3.133Z" transform="translate(43.1 -36.88)" fill="#263238"/>
          <path id="Path_245" data-name="Path 245" d="M81.177,67.353a1.929,1.929,0,1,1-1.941-2,1.975,1.975,0,0,1,1.941,2Z" transform="translate(42.46 -34.06)" fill="#263238"/>
          <path id="Path_246" data-name="Path 246" d="M62.076,31.659l.707,13.3L69.1,43.282Z" transform="translate(51.762 -1.738)" fill="#f28f8f"/>
          <path id="Path_247" data-name="Path 247" d="M13.971,99.242c2.072,1.112,10.518,7.043,15.106,7.557,1.941.215,2.468-.1,2.4-.6-.1-.694-1.33-1.734-1.629-2.3-.515-.981-3.594-5.046-2.4-7.175s2.24-.1,5.091,2.69,5.774,3.755,8.278,7,3.342,8.37,7.487,12.089l16.508,11.252S72.5,94.136,75.881,89.939c3.594-4.412,19.012,5.2,15.777,19.228s-10.6,38.372-15.729,43.144c-3.306,3.1-10.266.179-18.952-7.533-6.864-6.1-16.268-15.246-20.245-18.487s-12.243-4.986-16.041-7.175c-4.085-2.392-4.983-3.791-6.553-6.959-1.473-2.977-.815-7.749-1.689-9.566S11.862,98.13,13.971,99.242Z" transform="translate(-11.986 -14.554)" fill="#ffa8a7"/>
          <path id="Path_248" data-name="Path 248" d="M64.67,84.351c5.295,3.3,5.558,8.107,5.822,13.608A56.788,56.788,0,0,1,67.473,116.9c-2.24,6.924-5.8,19.563-5.8,19.563s-13.824.323-20.94-5.811c0,0,3.246-13.632,5.535-23.915S51.337,85.511,64.67,84.351Z" transform="translate(11.971 -18.294)" fill="#1977d5"/>
          <path id="Path_249" data-name="Path 249" d="M40.767,112.05c3.774,2.093,5.99,6.589,6.673,8.37a13.15,13.15,0,0,0-6.277-10.2Z" transform="translate(11.998 3.178)" fill="#f28f8f"/>
        </g>
        <g id="Outlet" transform="translate(196.185 342.889)">
          <path id="Path_250" data-name="Path 250" d="M106.992,219.5l92.458,53.284v19.635l-92.458-53.284Z" transform="translate(-106.992 -166.228)" fill="#2994ff"/>
          <path id="Path_251" data-name="Path 251" d="M106.992,219.5l92.458,53.284v19.635l-92.458-53.284Z" transform="translate(-106.992 -166.228)" opacity="0.35"/>
          <path id="Path_252" data-name="Path 252" d="M249.882,219.5l-92.458,53.284v19.635l92.458-53.284Z" transform="translate(-64.966 -166.228)" fill="#2994ff"/>
          <path id="Path_253" data-name="Path 253" d="M249.882,219.5l-92.458,53.284v19.635l92.458-53.284Z" transform="translate(-64.966 -166.228)" opacity="0.2"/>
          <path id="Path_254" data-name="Path 254" d="M291.908,243.661l-92.47-53.272-92.446,53.272,92.458,53.284Z" transform="translate(-106.992 -190.39)" fill="#2994ff"/>
          <path id="Path_255" data-name="Path 255" d="M291.908,243.661l-92.47-53.272-92.446,53.272,92.458,53.284Z" transform="translate(-106.992 -190.39)" fill="#2994ff" opacity="0.15"/>
          <path id="Path_256" data-name="Path 256" d="M199.45,272.784v-5.608L116.72,219.512l-9.727-.012Z" transform="translate(-106.992 -166.228)" opacity="0.1"/>
          <path id="Path_257" data-name="Path 257" d="M157.418,190.39l.012,5.608,82.719,47.664h9.739Z" transform="translate(-64.972 -190.39)" opacity="0.1"/>
          <path id="Path_258" data-name="Path 258" d="M249.882,219.5h-9.739l-82.719,47.676v5.608Z" transform="translate(-64.966 -166.228)" fill="#2994ff"/>
          <path id="Path_259" data-name="Path 259" d="M199.438,190.39,199.45,196,116.72,243.673l-9.727-.012Z" transform="translate(-106.992 -190.39)" fill="#2994ff"/>
          <path id="Path_260" data-name="Path 260" d="M188.99,240.394l39.724,22.887c2.971,1.722,2.971,4.5,0,6.206l-29.625,17.123a11.867,11.867,0,0,1-10.782,0l-39.724-22.887c-2.971-1.722-2.971-4.5,0-6.206l29.637-17.124A11.867,11.867,0,0,1,188.99,240.394Z" transform="translate(-96.197 -210.249)" fill="#182c48"/>
          <path id="Path_261" data-name="Path 261" d="M197.63,283.259l28.643-16.514L187.531,244.42a12,12,0,0,0-10.782,0l-28.643,16.538,38.742,22.3A11.867,11.867,0,0,0,197.63,283.259Z" transform="translate(-94.737 -206.897)" fill="#1c4074"/>
          <path id="Path_262" data-name="Path 262" d="M156.713,257.116l17.382-10.009a2.328,2.328,0,0,1,2.084,0l2.132,1.2c.575.323.575.861,0,1.2l-17.382,10.009a2.3,2.3,0,0,1-2.072,0l-2.132-1.2a.633.633,0,0,1-.012-1.2Z" transform="translate(-87.914 -203.809)" fill="#f6f6f6"/>
          <path id="Path_263" data-name="Path 263" d="M170.872,265.3,188.255,255.3a2.3,2.3,0,0,1,2.072,0l2.144,1.2c.575.323.575.861,0,1.2L175.089,267.7a2.3,2.3,0,0,1-2.072,0l-2.132-1.2a.633.633,0,0,1-.012-1.2Z" transform="translate(-76.114 -197.013)" fill="#f6f6f6"/>
          <path id="Path_264" data-name="Path 264" d="M153.321,278.06a11.523,11.523,0,0,0-5.247-9.052,3.659,3.659,0,0,0-3.7-.359l-2.264,1.315a3.656,3.656,0,0,0-1.533,3.372,11.583,11.583,0,0,0,5.235,9.064,3.683,3.683,0,0,0,3.714.359l2.252-1.351a3.681,3.681,0,0,0,1.545-3.348Z" transform="translate(-101.03 -186.009)" fill="#2994ff"/>
          <path id="Path_265" data-name="Path 265" d="M145.8,269.751a11.523,11.523,0,0,1,5.247,9.052c0,3.336-2.4,4.688-5.247,3.025a11.583,11.583,0,0,1-5.235-9.064C140.566,269.44,142.914,268.089,145.8,269.751Z" transform="translate(-101.021 -185.401)" opacity="0.1"/>
        </g>
        <g id="Cable" transform="translate(94.443 111.28)">
          <path id="Path_266" data-name="Path 266" d="M149.25,450.925a34.251,34.251,0,0,1-16.771-4.054L71.143,411.525c-4.924-2.846-7.643-6.768-7.643-11.049s2.719-8.191,7.643-11.037l71.063-40.955c7.787-4.484,14.375-15.856,14.375-24.836V99.164a2.4,2.4,0,0,1,4.792,0V323.647c0,10.834-7.355,23.569-16.771,28.986L73.539,393.588c-3.378,1.949-5.247,4.389-5.247,6.888s1.869,4.951,5.247,6.9l61.335,35.347c7.918,4.568,20.808,4.568,28.751,0l45.223-26.044a2.393,2.393,0,1,1,2.4,4.137l-45.223,26.056A34.191,34.191,0,0,1,149.25,450.925Z" transform="translate(-63.5 -96.773)" fill="#1c4074"/>
        </g>
        <g id="Exclamation_Marks" data-name="Exclamation Marks" transform="translate(45.373)">
          <path id="Path_267" data-name="Path 267" d="M53.791,63.791A1.265,1.265,0,0,1,54.8,62.308l5.822-1.124a1.2,1.2,0,0,1,.958.191,1.3,1.3,0,0,1,.539.813l.9,4.664a1.311,1.311,0,0,1-1.006,1.495l-5.834,1.112a1.267,1.267,0,0,1-1.485-1ZM48.927,38.608a1.268,1.268,0,0,1,1.006-1.495l5.834-1.124a1.292,1.292,0,0,1,1.485,1l3.821,19.934a1.29,1.29,0,0,1-1.006,1.483l-5.834,1.124a1.292,1.292,0,0,1-1.485-1Z" transform="translate(-26.595 -35.964)" fill="#acccec"/>
          <path id="Path_268" data-name="Path 268" d="M54.2,73.268a1.266,1.266,0,0,1,.1-1.794l4.42-3.958a1.306,1.306,0,0,1,1.8.1L63.691,71.2a1.266,1.266,0,0,1-.1,1.794L59.234,76.9a1.306,1.306,0,0,1-1.8-.1ZM37.06,54.136a1.278,1.278,0,0,1-.323-.921,1.2,1.2,0,0,1,.419-.873l4.42-3.958a1.275,1.275,0,0,1,1.8.1L56.934,63.619a1.3,1.3,0,0,1-.1,1.794L52.406,69.37a1.307,1.307,0,0,1-1.8-.1Z" transform="translate(-36.735 -25.927)" fill="#d2dde7"/>
          <g id="Group_512" data-name="Group 512" transform="translate(0 22.131)" opacity="0.6">
            <path id="Path_269" data-name="Path 269" d="M54.2,73.268a1.266,1.266,0,0,1,.1-1.794l4.42-3.958a1.306,1.306,0,0,1,1.8.1L63.691,71.2a1.266,1.266,0,0,1-.1,1.794L59.234,76.9a1.306,1.306,0,0,1-1.8-.1ZM37.06,54.136a1.278,1.278,0,0,1-.323-.921,1.2,1.2,0,0,1,.419-.873l4.42-3.958a1.275,1.275,0,0,1,1.8.1L56.934,63.619a1.3,1.3,0,0,1-.1,1.794L52.406,69.37a1.307,1.307,0,0,1-1.8-.1Z" transform="translate(-36.735 -48.057)" fill="none"/>
          </g>
        </g>
      </g>
    </g>
  </g>
</svg>
