<svg id="no_video" xmlns="http://www.w3.org/2000/svg" width="550" height="550" viewBox="0 0 550 550">
  <rect id="bg" width="550" height="550" fill="none"/>
  <g id="image_" data-name="image&apos;" transform="translate(0 1)">
    <rect id="Rectangle_306" data-name="Rectangle 306" width="550" height="3.119" transform="translate(0 528.039)" fill="#1c4074"/>
    <g id="Group_761" data-name="Group 761">
      <g id="Group_754" data-name="Group 754" transform="translate(151.602 139.18)">
        <g id="Group_752" data-name="Group 752">
          <path id="Path_455" data-name="Path 455" d="M260.737,188.477V294.793H160.256V164.406h76.365Z" transform="translate(-160.256 -164.406)" fill="#d2dde7"/>
          <path id="Path_456" data-name="Path 456" d="M239.91,188.477H221.823a6.021,6.021,0,0,1-6.029-6.017V164.406Z" transform="translate(-139.429 -164.406)" fill="#a0c7ee"/>
        </g>
        <g id="Group_753" data-name="Group 753" transform="translate(38.093 40.589)">
          <path id="Path_457" data-name="Path 457" d="M199.249,230.534a2.5,2.5,0,0,1-2.416-2.587l.43-12.306a2.5,2.5,0,0,1,2.592-2.413,7.126,7.126,0,1,0-6.886-7.37,2.505,2.505,0,0,1-5.008-.174,12.15,12.15,0,1,1,14.231,12.372l-.352,10.066A2.5,2.5,0,0,1,199.249,230.534Z" transform="translate(-187.96 -193.979)" fill="#a0c7ee"/>
          <path id="Path_458" data-name="Path 458" d="M201.322,228.14A4.008,4.008,0,1,1,197.457,224,4.005,4.005,0,0,1,201.322,228.14Z" transform="translate(-185.954 -182.796)" fill="#a0c7ee"/>
        </g>
      </g>
      <g id="Group_757" data-name="Group 757" transform="translate(0 90.094)">
        <g id="Group_755" data-name="Group 755">
          <path id="Path_459" data-name="Path 459" d="M152.061,141.669l40.759,98.223L99.988,278.275,50,157.812l70.552-29.171Z" transform="translate(-50 -128.642)" fill="#d1dce7"/>
          <path id="Path_460" data-name="Path 460" d="M132.819,141.668l-16.71,6.909a6.029,6.029,0,0,1-7.876-3.257l-6.922-16.679Z" transform="translate(-30.758 -128.642)" fill="#9fc7ee"/>
        </g>
        <g id="Group_756" data-name="Group 756" transform="translate(45.318 44.166)">
          <rect id="Rectangle_307" data-name="Rectangle 307" width="15.068" height="50.162" transform="translate(23.441 52.089) rotate(-157.5)" fill="#9ec7ef"/>
          <rect id="Rectangle_308" data-name="Rectangle 308" width="15.049" height="50.227" transform="translate(0 23.399) rotate(-67.5)" fill="#9ec7ef"/>
        </g>
      </g>
      <g id="Group_758" data-name="Group 758" transform="translate(151.799 0)">
        <path id="Path_461" data-name="Path 461" d="M179.951,97.24a2.435,2.435,0,0,1-3.094-1.507l-3.9-11.312a2.427,2.427,0,0,1,1.508-3.088,6.926,6.926,0,1,0-8.818-4.293,2.433,2.433,0,0,1-4.6,1.583A11.8,11.8,0,1,1,178.268,84.9l3.191,9.255A2.428,2.428,0,0,1,179.951,97.24Z" transform="translate(-160.399 -63)" fill="#acccec"/>
        <path id="Path_462" data-name="Path 462" d="M181.606,93.434a3.894,3.894,0,1,1-4.95-2.41A3.884,3.884,0,0,1,181.606,93.434Z" transform="translate(-155.288 -52.64)" fill="#acccec"/>
      </g>
      <g id="Group_759" data-name="Group 759" transform="translate(265.772 18.246)">
        <path id="Path_463" data-name="Path 463" d="M249.888,117.073a2.893,2.893,0,0,1-1.8-3.678l4.648-13.474a2.9,2.9,0,0,1,3.685-1.794A8.249,8.249,0,1,0,251.3,87.643a2.9,2.9,0,0,1-5.482-1.883,14.057,14.057,0,1,1,11.555,18.5l-3.8,11.021A2.9,2.9,0,0,1,249.888,117.073Z" transform="translate(-242.399 -76.293)" fill="#acccec"/>
        <ellipse id="Ellipse_75" data-name="Ellipse 75" cx="4.638" cy="4.63" rx="4.638" ry="4.63" transform="translate(0 45.744)" fill="#acccec"/>
      </g>
      <g id="Group_760" data-name="Group 760" transform="translate(469.959 149.724)">
        <path id="Path_464" data-name="Path 464" d="M410.581,204.424a18.959,18.959,0,1,1,26.837,0A18.916,18.916,0,0,1,410.581,204.424Zm2.439-2.435a15.512,15.512,0,1,0,0-21.917A15.563,15.563,0,0,0,413.02,201.989Z" transform="translate(-386.826 -172.089)" fill="#e8e9fd"/>
        <path id="Path_465" data-name="Path 465" d="M392.294,217.062l23.177-23.135,2.439,2.435L394.733,219.5a1.727,1.727,0,0,1-2.439,0h0A1.719,1.719,0,0,1,392.294,217.062Z" transform="translate(-391.789 -163.954)" fill="#e8e9fd"/>
      </g>
    </g>
    <g id="Group_765" data-name="Group 765" transform="translate(433.197 307.026)">
      <g id="Group_763" data-name="Group 763" transform="translate(0 0)">
        <g id="Group_762" data-name="Group 762" transform="translate(14.582)">
          <path id="Path_466" data-name="Path 466" d="M386.844,411.468c11.489,2.579,32.882-8.53,36.079-24.177,2.982-14.59.348-30.711,13.658-41.631s31.072-49.045,26.964-55.385c-5.94-9.168-35.035.609-46.694,14.334s-7.384,22.866-15.6,33.214-19.675,22.4-24.606,38.305S386.844,411.468,386.844,411.468Z" transform="translate(-375.658 -286.698)" fill="#abccec"/>
          <path id="Path_467" data-name="Path 467" d="M384.8,387.88c1.807-5.56,4.638-10.921,8.719-14.252a42.66,42.66,0,0,1,10.124-5.844c5.675-2.568,10.574-4.786,15.624-14.138a25.411,25.411,0,0,1,1.924-3.006c-.443,4.3-.836,8.629-1.7,12.833C416.421,378.514,396.54,389.353,384.8,387.88Z" transform="translate(-372.229 -262.88)" fill="#77b6f4"/>
        </g>
        <path id="Path_468" data-name="Path 468" d="M365.917,484.91l.051.012a1.142,1.142,0,0,0,1.345-.891c.168-.828,17.269-83.716,60.673-165.367a1.141,1.141,0,0,0-2.016-1.068C382.4,399.551,365.244,482.749,365.075,483.58A1.138,1.138,0,0,0,365.917,484.91Z" transform="translate(-365.053 -275.414)" fill="#2994ff"/>
      </g>
      <g id="Group_764" data-name="Group 764" transform="translate(6.642 70.225)">
        <path id="Path_469" data-name="Path 469" d="M390.1,421.978c-7.579-8.615-3.1-32.83,5.764-40.065s18.129-5.148,26.874-21.347c8.048-14.905,39-24.717,41.5-22.351,4.806,4.546-1.093,31.031-13.824,40.292-20.716,15.069-17.94,30.8-28.709,40.008C407.622,430.563,390.1,421.978,390.1,421.978Z" transform="translate(-363.747 -337.864)" fill="#abccec"/>
        <path id="Path_470" data-name="Path 470" d="M370.748,468.063a1.141,1.141,0,0,0,1.383-.829c12.262-49.094,56.976-98.179,57.427-98.67a1.14,1.14,0,0,0-1.682-1.539c-.454.494-45.555,50-57.959,99.657A1.139,1.139,0,0,0,370.748,468.063Z" transform="translate(-369.883 -327.139)" fill="#2994ff"/>
      </g>
    </g>
    <g id="Group_775" data-name="Group 775" transform="translate(3.975 122.066)">
      <g id="Group_769" data-name="Group 769" transform="translate(288.995 0)">
        <path id="Path_471" data-name="Path 471" d="M328.115,169.789a10.467,10.467,0,1,1,0-14.789A10.49,10.49,0,0,1,328.115,169.789Z" transform="translate(-245.384 -151.937)" fill="#0e1738"/>
        <path id="Path_472" data-name="Path 472" d="M314.833,170.781a10.8,10.8,0,0,1-.242-15.03,10.817,10.817,0,1,1,15.3,15.275,10.851,10.851,0,0,1-15.06-.244Zm0,0a10.136,10.136,0,0,0,14.572-.243,10.13,10.13,0,0,0-14.33-14.3,10.1,10.1,0,0,0-.242,14.547Z" transform="translate(-244.846 -151.788)" fill="#0e1738"/>
        <ellipse id="Ellipse_76" data-name="Ellipse 76" cx="10.685" cy="11.471" rx="10.685" ry="11.471" transform="translate(52.707 15.929) rotate(-45)" fill="#2994ff"/>
        <path id="Path_473" data-name="Path 473" d="M334.906,182.373c0,14.933-11,27.038-24.578,27.038s-24.578-21.594-24.578-30.857c0-14.934,13.157-23.221,26.731-23.221S334.906,167.44,334.906,182.373Z" transform="translate(-254.564 -150.672)" fill="#0e1738"/>
        <path id="Path_474" data-name="Path 474" d="M308.131,203.2c-12.371,4.3-23.4,18.257-45.007,49.138,0,0,6.442,1.278,21.816,5.052l28.673-30.648Z" transform="translate(-263.048 -132.842)" fill="#ffc3bd"/>
        <path id="Path_475" data-name="Path 475" d="M301.787,203.2h26.231l18.76,4.532c5.8,10.969-4.946,54.871,4.553,94.431,0,0-46.893,7.9-71.291,0,0,0,10.983-17.328,5.644-42.354-4.663-21.853-6.806-32.677,1.275-47.121Z" transform="translate(-256.705 -132.842)" fill="#1c4074"/>
        <path id="Path_476" data-name="Path 476" d="M330.156,183.868a4.379,4.379,0,0,0-5.427-.014v-5.928a14.4,14.4,0,0,0-14.418-14.391,21.65,21.65,0,0,0-21.67,21.631v8.2A18,18,0,0,0,298.5,209.4V221.3l26.3-3.326-.063-22.455C329.578,196.72,333.521,186.7,330.156,183.868Z" transform="translate(-253.479 -147.616)" fill="#ffc3bd"/>
        <path id="Path_477" data-name="Path 477" d="M295.809,199.019v3.751c17.786,3.873,22.859-11.355,22.859-11.355C309.574,201.775,299.439,200.388,295.809,199.019Z" transform="translate(-250.791 -137.231)" fill="#ff847f"/>
        <path id="Path_478" data-name="Path 478" d="M330.239,206.5c-5.169,1.889-8.58,22.475-3.824,30.32l16.437,32.929-1.766,26.2c12.29,5.626,11.39,1.588,11.39,1.588s6.245-15.778,6.245-31.333C358.722,255.581,341.312,210.944,330.239,206.5Z" transform="translate(-240.166 -131.612)" fill="#ffc3bd"/>
        <g id="Group_766" data-name="Group 766" transform="translate(36.666 32.291)">
          <ellipse id="Ellipse_77" data-name="Ellipse 77" cx="1.375" cy="1.373" rx="1.375" ry="1.373" transform="translate(16.497 4.418)" fill="#0e1738"/>
          <ellipse id="Ellipse_78" data-name="Ellipse 78" cx="1.375" cy="1.373" rx="1.375" ry="1.373" transform="translate(3.816 4.418)" fill="#0e1738"/>
          <path id="Path_479" data-name="Path 479" d="M297.808,180.042c-.561,1.7-1.316,3.279-1.928,4.867a10.134,10.134,0,0,0-.392,1.173c-.1.382-.162.766-.037.895a14.236,14.236,0,0,0,1.827,1.751,5.328,5.328,0,0,1-2.487-1.227,1.178,1.178,0,0,1-.261-.428,1.762,1.762,0,0,1-.072-.443,3.214,3.214,0,0,1,.062-.759,7.862,7.862,0,0,1,.406-1.333A14.611,14.611,0,0,1,297.808,180.042Z" transform="translate(-287.964 -173.759)" fill="#ff847f"/>
          <path id="Path_480" data-name="Path 480" d="M308.061,179.054A19.137,19.137,0,0,0,304.145,177a9.652,9.652,0,0,0-4.3-.211,4.374,4.374,0,0,1,2.156-1.2,4.813,4.813,0,0,1,2.566.106A5.664,5.664,0,0,1,308.061,179.054Z" transform="translate(-285.945 -175.465)" fill="#0e1738"/>
          <path id="Path_481" data-name="Path 481" d="M289.735,179.054a5.664,5.664,0,0,1,3.5-3.357,4.813,4.813,0,0,1,2.566-.106,4.364,4.364,0,0,1,2.155,1.2,9.648,9.648,0,0,0-4.3.211A19.141,19.141,0,0,0,289.735,179.054Z" transform="translate(-289.735 -175.465)" fill="#0e1738"/>
        </g>
        <path id="Path_482" data-name="Path 482" d="M315,186.447c.758-.759,1.61-1.886.894-2.424-.065-.058-.175-.163-.308-.3a2.212,2.212,0,0,1-.292-.417,3.194,3.194,0,0,1-.333-.915,4.02,4.02,0,0,1,.094-1.893,1.955,1.955,0,0,1,.6-.95,2.363,2.363,0,0,1,.983-.38,3.124,3.124,0,0,1,1.9.206,2.158,2.158,0,0,1,1.195,1.469,4.034,4.034,0,0,1-.043,1.739c-.131-1.108-.546-2.244-1.456-2.464a2.6,2.6,0,0,0-1.394,0,1.785,1.785,0,0,0-.566.221,1.121,1.121,0,0,0-.239.469,3.243,3.243,0,0,0-.116,1.416,2.256,2.256,0,0,0,.176.67,1.651,1.651,0,0,0,.16.287c.051.073.128.174.252.324a1.477,1.477,0,0,1,.324,1.027,1.65,1.65,0,0,1-.417.907A4.622,4.622,0,0,1,315,186.447Z" transform="translate(-243.635 -141.815)" fill="#ff847f"/>
        <path id="Path_483" data-name="Path 483" d="M342.555,216.94l-7.421-1.189c-.073,12.123-8.88,34.781-29.8,32.482,0,0,31.219,11.094,29.3,20.7s-30.774,18.529-36.432,19.215-.15,3.9,23.713,3.9c7.241,0,10.072,3,10.524,7.16,7.719-.869,12.842-1.728,12.842-1.728C338.17,267.85,342.416,235.779,342.555,216.94Z" transform="translate(-250.66 -128.166)" fill="#000a19" opacity="0.15"/>
        <path id="Path_484" data-name="Path 484" d="M338.307,277.022l-9.789-1.138a2.279,2.279,0,0,1-2.018-2.262h0a2.28,2.28,0,0,1,2.283-2.278h9.525Z" transform="translate(-239.282 -107.458)" fill="#ffc3bd"/>
        <path id="Path_485" data-name="Path 485" d="M322.557,203.2H296.31s-3.842,6.073,0,8.844a8.963,8.963,0,0,0,4.235,1.338l1.264,15.394,6.038-15.785C315.04,211.7,322.557,208,322.557,203.2Z" transform="translate(-251.244 -132.842)" fill="#ffc3bd"/>
        <path id="Path_486" data-name="Path 486" d="M302.4,189.918a1.811,1.811,0,1,1-1.761-2.23A2.038,2.038,0,0,1,302.4,189.918Z" transform="translate(-249.642 -138.62)" fill="#ff847f"/>
        <g id="Group_768" data-name="Group 768" transform="translate(0 49.666)">
          <path id="Path_487" data-name="Path 487" d="M297.406,204.677l9.02,6.39L285.7,255.486a11.883,11.883,0,0,1-18.441,4.032h0a11.834,11.834,0,0,1-1.477-16.576Z" transform="translate(-263.069 -181.958)" fill="#ffc3bd"/>
          <path id="Path_488" data-name="Path 488" d="M288.442,210.716,287,203.591a1.507,1.507,0,0,1,0-.6l1.825-9.247a1.543,1.543,0,0,1,.4-.763l2.058-2.159a1.544,1.544,0,0,1,2.2-.032l.538.533a1.537,1.537,0,0,1,.186,1.964l-1.273,1.852a1.534,1.534,0,0,0-.268.968h0a1.542,1.542,0,0,0,2.742.865l6.365-7.926a1.544,1.544,0,0,1,2.012-.349l7.506,4.616a1.538,1.538,0,0,1,.6,1.941L305.6,209.21a1.539,1.539,0,0,1-.342.484l-7.8,7.411Z" transform="translate(-254.105 -187.996)" fill="#ffc3bd"/>
          <g id="Group_767" data-name="Group 767" transform="translate(37.176)">
            <path id="Path_489" data-name="Path 489" d="M290.106,190.947a1.591,1.591,0,0,1,1.83-.388,3.051,3.051,0,0,1,.785.615,2.056,2.056,0,0,1,.622.81,1.676,1.676,0,0,1,.049,1.051,3.417,3.417,0,0,1-.485.9c-.34.537-.733,1.114-1.029,1.618a1.287,1.287,0,0,0,.274,1.474,1.248,1.248,0,0,0,1.451.178,7.2,7.2,0,0,0,1.181-1.371l1.194-1.543,2.4-3.073,1.213-1.528.605-.764a2.015,2.015,0,0,1,2.26-.7,5.886,5.886,0,0,1,.945.516l1.669,1.013,3.336,2.024,1.657,1.031a2.721,2.721,0,0,1,.9.744,2.013,2.013,0,0,1,.378,1.208,2.573,2.573,0,0,1-.322,1.12l-.406.887-.811,1.773c-1.089,2.359-2.142,4.736-3.266,7.081l-1.665,3.527a2.476,2.476,0,0,1-.593.91l-.719.66-1.441,1.316c-1.944,1.729-3.864,3.485-5.83,5.192,1.805-1.876,3.656-3.7,5.482-5.557l1.389-1.371.694-.685a1.877,1.877,0,0,0,.423-.733l1.534-3.584c1.011-2.4,2.09-4.761,3.135-7.141l.789-1.783a6.557,6.557,0,0,0,.619-1.622,1.029,1.029,0,0,0-.2-.618,1.766,1.766,0,0,0-.615-.467l-1.668-1.013-3.312-2.064-1.655-1.032c-.608-.4-.938-.6-1.418-.454a1.082,1.082,0,0,0-.562.4l-.615.756-1.231,1.514-2.482,3.01-1.249,1.5-.624.749a2.642,2.642,0,0,1-.807.741,1.86,1.86,0,0,1-2.161-.331,1.813,1.813,0,0,1-.322-2.116c.395-.6.771-1.071,1.158-1.611a3.1,3.1,0,0,0,.489-.777,1.377,1.377,0,0,0,.008-.865,1.783,1.783,0,0,0-.514-.748,2.976,2.976,0,0,0-.7-.629A1.511,1.511,0,0,0,290.106,190.947Z" transform="translate(-290.106 -188.124)" fill="#ff847f"/>
            <path id="Path_490" data-name="Path 490" d="M301.427,189.131a16.287,16.287,0,0,1-1.665,5.152,13.891,13.891,0,0,1-1.463,2.31,6.088,6.088,0,0,1-2.076,1.8,15.661,15.661,0,0,0,1.407-2.248c.412-.77.825-1.541,1.214-2.332C299.656,192.253,300.433,190.667,301.427,189.131Z" transform="translate(-287.812 -187.748)" fill="#ff847f"/>
            <path id="Path_491" data-name="Path 491" d="M303.118,190.332a13.712,13.712,0,0,1-1.247,4.845,10.1,10.1,0,0,1-3.007,4.016c.741-1.519,1.4-2.954,2.069-4.44S302.263,191.794,303.118,190.332Z" transform="translate(-286.822 -187.301)" fill="#ff847f"/>
            <path id="Path_492" data-name="Path 492" d="M304.688,191.364a15.886,15.886,0,0,1-1.138,4.951,11.4,11.4,0,0,1-2.731,4.3l1.772-4.676A36.421,36.421,0,0,1,304.688,191.364Z" transform="translate(-286.089 -186.917)" fill="#ff847f"/>
          </g>
        </g>
        <path id="Path_493" data-name="Path 493" d="M330.239,206.5c-5.169,1.889-8.581,22.475-3.824,30.32l7.756,18.007,19.132-15.2C345.844,224.363,336.276,208.924,330.239,206.5Z" transform="translate(-240.166 -131.612)" fill="#1c4074"/>
        <path id="Path_494" data-name="Path 494" d="M319.032,161.413c-7.19-2.955-28.522-1.642-31.365,7.4v10.98s2.608.161,6.207.266L295.7,171.5l1.026,8.625a111.46,111.46,0,0,0,11.841-.332l1.044-6.176,1.332,6.532,5.979,1.123s5.774,8.287,5.426,28.724l2.808-24.87S326.222,164.368,319.032,161.413Z" transform="translate(-253.845 -148.934)" fill="#0e1738"/>
        <path id="Path_495" data-name="Path 495" d="M329.607,241.839a95.786,95.786,0,0,1,8.635-8.59,94.58,94.58,0,0,1,9.549-7.567,108.108,108.108,0,0,1-18.184,16.157Z" transform="translate(-238.117 -124.467)" fill="#fff"/>
      </g>
      <g id="Group_771" data-name="Group 771" transform="translate(0 119.494)">
        <path id="Path_496" data-name="Path 496" d="M275.069,267.35l-3.549-10.036A27.5,27.5,0,0,0,245.589,239H127.545a27.474,27.474,0,0,0-27.5,27.45V498.4a27.475,27.475,0,0,0,27.5,27.45H454.8a27.475,27.475,0,0,0,27.5-27.45V313.115a27.475,27.475,0,0,0-27.5-27.45H301A27.5,27.5,0,0,1,275.069,267.35Z" transform="translate(-35.208 -239)" fill="#2994ff"/>
        <path id="Path_497" data-name="Path 497" d="M69.918,363.457a1.376,1.376,0,0,1-1.338-1.062L52.927,295.3a1.376,1.376,0,0,1,2.68-.622l15.652,67.1a1.374,1.374,0,0,1-1.027,1.648A1.437,1.437,0,0,1,69.918,363.457Z" transform="translate(-52.891 -218.657)" fill="#acccec"/>
        <path id="Path_498" data-name="Path 498" d="M76.9,393.49a1.376,1.376,0,0,1-1.338-1.062l-8.422-36.1a1.375,1.375,0,0,1,2.679-.623l8.422,36.1A1.374,1.374,0,0,1,76.9,393.49Z" transform="translate(-47.561 -195.923)" fill="#acccec"/>
        <path id="Path_499" data-name="Path 499" d="M498.53,486.092v4.488a27.476,27.476,0,0,1-27.5,27.45H139.311c-15.194,0-30.085-11.049-33.261-24.691L57.375,284.691C54.185,271.049,63.92,260,79.114,260H197.158a36.288,36.288,0,0,1,29.769,16.47l5.665,9.031a36.288,36.288,0,0,0,29.769,16.47H416.154c15.194,0,30.085,11.062,33.261,24.691l37.551,160.953a5.886,5.886,0,0,0,11.564-1.523Z" transform="translate(-51.436 -231.178)" fill="#1c4074"/>
        <path id="bookmark" d="M83.229,102a11.932,11.932,0,0,1-8.46-3.549L48.584,72.466l-26.185,26a11.937,11.937,0,0,1-13.177,2.588A11.9,11.9,0,0,1,1.75,89.9V21.25A21.269,21.269,0,0,1,23.038,0H74.13A21.269,21.269,0,0,1,95.419,21.25V89.9a11.9,11.9,0,0,1-7.455,11.152,12.226,12.226,0,0,1-4.735.943ZM23.038,8.5A12.761,12.761,0,0,0,10.265,21.25V89.9a3.59,3.59,0,0,0,6.118,2.55h0L45.6,63.464a4.263,4.263,0,0,1,6,0l29.186,28.98a3.59,3.59,0,0,0,6.118-2.55V21.25A12.761,12.761,0,0,0,74.139,8.5Z" transform="translate(177.629 127.137)" fill="#dbdce1"/>
      </g>
      <g id="Group_774" data-name="Group 774" transform="translate(228.21 287.098)">
        <g id="Group_772" data-name="Group 772">
          <path id="Path_503" data-name="Path 503" d="M298.893,441a46.838,46.838,0,1,1,0-66.179A46.941,46.941,0,0,1,298.893,441Zm-6.027-6.017a38.322,38.322,0,1,0-54.245,0A38.282,38.282,0,0,0,292.866,434.984Z" transform="translate(-218.862 -361.116)" fill="#2994ff"/>
          <path id="Path_504" data-name="Path 504" d="M330.071,478.237l-57.258-57.154,6.027-6.017L336.1,472.221a4.249,4.249,0,0,1,0,6.016h0A4.267,4.267,0,0,1,330.071,478.237Z" transform="translate(-198.63 -341.019)" fill="#2994ff"/>
        </g>
        <g id="Group_773" data-name="Group 773" transform="translate(8.524 8.508)">
          <ellipse id="Ellipse_79" data-name="Ellipse 79" cx="38.357" cy="38.287" rx="38.357" ry="38.287" fill="#fff" opacity="0.15"/>
          <path id="Path_505" data-name="Path 505" d="M254.83,372.451c23.118,0,36.328,33.969,24.41,48.381a54.734,54.734,0,0,0-6.3-27.793C265.2,379.014,254.83,372.451,254.83,372.451Z" transform="translate(-213.898 -365.402)" fill="#fff" opacity="0.5"/>
        </g>
      </g>
    </g>
    <g id="Group_777" data-name="Group 777" transform="translate(390.292 284.191)">
      <path id="Path_506" data-name="Path 506" d="M348.733,270.061H336.057a2.184,2.184,0,0,0-2.208,2.16v7a1.842,1.842,0,0,0,2,1.82h.281a1.972,1.972,0,0,0,1.983-1.82h.028a1.971,1.971,0,0,0,1.983,1.82h.281a1.972,1.972,0,0,0,1.983-1.82h.028a1.972,1.972,0,0,0,1.983,1.82h.28c2.009,0,1.913-1.588,1.983-2.6h.027a1.972,1.972,0,0,0,1.983,1.82h.281a1.971,1.971,0,0,0,1.983-1.82h.014v-6.216A2.184,2.184,0,0,0,348.733,270.061Z" transform="translate(-333.849 -270.061)" fill="#ffc3bd"/>
      <g id="Group_776" data-name="Group 776" transform="translate(3.765 0)">
        <path id="Path_507" data-name="Path 507" d="M337.094,270.061a18.382,18.382,0,0,1,.522,4.579,18.192,18.192,0,0,1-.507,4.581,18.128,18.128,0,0,1-.522-4.58A18.378,18.378,0,0,1,337.094,270.061Z" transform="translate(-336.587 -270.061)" fill="#ff847f"/>
        <path id="Path_508" data-name="Path 508" d="M340.206,270.061a20.6,20.6,0,0,1,0,9.16,18.2,18.2,0,0,1-.516-4.58A18.384,18.384,0,0,1,340.206,270.061Z" transform="translate(-335.423 -270.061)" fill="#ff847f"/>
        <path id="Path_509" data-name="Path 509" d="M343.322,270.061a15.435,15.435,0,0,1,.516,4.188,15.225,15.225,0,0,1-.516,4.189,15.275,15.275,0,0,1-.514-4.189A15.431,15.431,0,0,1,343.322,270.061Z" transform="translate(-334.254 -270.061)" fill="#ff847f"/>
      </g>
    </g>
    <g id="Group_781" data-name="Group 781" transform="translate(399.937 46.555)">
      <g id="Group_780" data-name="Group 780" transform="translate(33.575 20.015)">
        <g id="Group_778" data-name="Group 778">
          <path id="Path_510" data-name="Path 510" d="M373.784,139.034a1.886,1.886,0,0,1-1.82-1.948l.325-9.269A1.886,1.886,0,0,1,374.239,126a5.367,5.367,0,1,0-5.185-5.552,1.887,1.887,0,0,1-3.772-.13A9.151,9.151,0,1,1,376,129.637l-.265,7.58A1.886,1.886,0,0,1,373.784,139.034Z" transform="translate(-365.281 -111.503)" fill="#acccec"/>
        </g>
        <g id="Group_779" data-name="Group 779" transform="translate(5.539 31.031)">
          <path id="Path_511" data-name="Path 511" d="M375.345,137.23a3.019,3.019,0,1,1-2.911-3.117A3.017,3.017,0,0,1,375.345,137.23Z" transform="translate(-369.31 -134.112)" fill="#acccec"/>
        </g>
      </g>
      <path id="Path_512" data-name="Path 512" d="M340.863,183.368l9.081-28.986a38.639,38.639,0,1,1,14.329,14.455Zm42.724-82.331a34.416,34.416,0,0,0-29.634,52.04l.473.791-6.311,20.151L364.256,164l1.09.681a34.447,34.447,0,1,0,18.241-63.641Z" transform="translate(-340.863 -96.92)" fill="#acccec"/>
    </g>
  </g>
</svg>
