<svg id="image_2" data-name="image 2" xmlns="http://www.w3.org/2000/svg" width="241.935" height="234.558" viewBox="0 0 241.935 234.558">
  <g id="Group_638" data-name="Group 638">
    <rect id="Rectangle_251" data-name="Rectangle 251" width="241.611" height="1.088" transform="translate(0.324 233.469)" fill="#212121"/>
    <g id="Group_617" data-name="Group 617">
      <g id="Group_610" data-name="Group 610" transform="translate(66.776 61.416)">
        <g id="Group_608" data-name="Group 608">
          <path id="Path_317" data-name="Path 317" d="M191.765,152.092v46.914H147.506V141.47h33.637Z" transform="translate(-147.506 -141.47)" fill="#1d3d5d"/>
          <path id="Path_318" data-name="Path 318" d="M213.666,152.092H205.7a2.655,2.655,0,0,1-2.656-2.656V141.47Z" transform="translate(-169.407 -141.47)" fill="#20578d"/>
        </g>
        <g id="Group_609" data-name="Group 609" transform="translate(16.779 17.911)">
          <path id="Path_319" data-name="Path 319" d="M180.182,187.174a1.1,1.1,0,0,1-1.064-1.142l.19-5.43a1.1,1.1,0,0,1,1.142-1.064,3.145,3.145,0,1,0-3.033-3.253,1.1,1.1,0,0,1-2.206-.077,5.352,5.352,0,1,1,6.268,5.459l-.155,4.442A1.1,1.1,0,0,1,180.182,187.174Z" transform="translate(-175.21 -171.043)" fill="#2994ff"/>
          <path id="Path_320" data-name="Path 320" d="M184.088,202.89a1.766,1.766,0,1,1-1.7-1.826A1.765,1.765,0,0,1,184.088,202.89Z" transform="translate(-177.319 -182.881)" fill="#2994ff"/>
        </g>
      </g>
      <g id="Group_613" data-name="Group 613" transform="translate(0 39.756)">
        <g id="Group_611" data-name="Group 611">
          <path id="Path_321" data-name="Path 321" d="M82.2,111.455,100.158,154.8l-40.89,16.937L37.25,118.578l31.076-12.872Z" transform="translate(-37.25 -105.706)" fill="#1d3d5d"/>
          <path id="Path_322" data-name="Path 322" d="M102.439,111.455l-7.36,3.049a2.655,2.655,0,0,1-3.469-1.437l-3.049-7.36Z" transform="translate(-57.485 -105.706)" fill="#20578d"/>
        </g>
        <g id="Group_612" data-name="Group 612" transform="translate(19.961 19.489)">
          <rect id="Rectangle_252" data-name="Rectangle 252" width="6.639" height="22.129" transform="translate(10.325 22.985) rotate(-157.5)" fill="#2994ff"/>
          <rect id="Rectangle_253" data-name="Rectangle 253" width="6.639" height="22.129" transform="translate(0 10.325) rotate(-67.5)" fill="#2994ff"/>
        </g>
      </g>
      <g id="Group_614" data-name="Group 614" transform="translate(66.863)">
        <path id="Path_323" data-name="Path 323" d="M156.261,55.173a1.072,1.072,0,0,1-1.363-.664l-1.719-4.992a1.073,1.073,0,0,1,.665-1.363,3.056,3.056,0,1,0-3.884-1.894,1.072,1.072,0,0,1-2.028.7,5.2,5.2,0,1,1,7.588,2.77l1.406,4.083A1.072,1.072,0,0,1,156.261,55.173Z" transform="translate(-147.649 -40.064)" fill="#20578d"/>
        <path id="Path_324" data-name="Path 324" d="M164.616,69.032a1.715,1.715,0,1,1-2.18-1.064A1.715,1.715,0,0,1,164.616,69.032Z" transform="translate(-153.023 -51.032)" fill="#20578d"/>
      </g>
      <g id="Group_615" data-name="Group 615" transform="translate(117.065 8.051)">
        <path id="Path_325" data-name="Path 325" d="M234.773,71.352a1.277,1.277,0,0,1-.792-1.623l2.047-5.946a1.277,1.277,0,0,1,1.623-.792,3.639,3.639,0,1,0-2.256-4.625,1.277,1.277,0,1,1-2.415-.832,6.193,6.193,0,1,1,5.09,8.162L236.4,70.561A1.277,1.277,0,0,1,234.773,71.352Z" transform="translate(-231.474 -53.358)" fill="#20578d"/>
        <circle id="Ellipse_58" data-name="Ellipse 58" cx="2.043" cy="2.043" r="2.043" transform="translate(0 20.186)" fill="#20578d"/>
      </g>
      <g id="Group_616" data-name="Group 616" transform="translate(207.004 66.069)">
        <path id="Path_326" data-name="Path 326" d="M394.721,163.422a8.359,8.359,0,1,1,11.821,0A8.358,8.358,0,0,1,394.721,163.422Zm1.074-1.075a6.839,6.839,0,1,0,0-9.672A6.846,6.846,0,0,0,395.8,162.347Z" transform="translate(-384.257 -149.152)" fill="#20578d"/>
        <path id="Path_327" data-name="Path 327" d="M379.261,181.2l10.209-10.209,1.074,1.074-10.209,10.209a.76.76,0,0,1-1.074,0h0A.76.76,0,0,1,379.261,181.2Z" transform="translate(-379.038 -157.765)" fill="#20578d"/>
      </g>
    </g>
    <g id="Group_621" data-name="Group 621" transform="translate(190.811 135.482)">
      <g id="Group_619" data-name="Group 619">
        <g id="Group_618" data-name="Group 618" transform="translate(6.423)">
          <path id="Path_328" data-name="Path 328" d="M367.835,318.82c5.061,1.138,14.483-3.764,15.892-10.669,1.313-6.437.153-13.552,6.016-18.37s13.686-21.643,11.877-24.44c-2.616-4.046-15.432.269-20.567,6.325s-3.252,10.09-6.871,14.657-8.666,9.884-10.838,16.9S367.835,318.82,367.835,318.82Z" transform="translate(-362.907 -263.762)" fill="#1d3d5d"/>
          <path id="Path_329" data-name="Path 329" d="M372.049,344.138a13.475,13.475,0,0,1,3.84-6.289,18.761,18.761,0,0,1,4.459-2.579,12.185,12.185,0,0,0,6.882-6.239,11.236,11.236,0,0,1,.847-1.326c-.2,1.9-.368,3.808-.747,5.663C385.978,340,377.221,344.787,372.049,344.138Z" transform="translate(-366.512 -288.978)" fill="#20578d"/>
        </g>
        <path id="Path_330" data-name="Path 330" d="M352.683,368.154l.022,0a.5.5,0,0,0,.592-.393c.074-.365,7.606-36.941,26.725-72.972a.5.5,0,1,0-.888-.471c-19.189,36.164-26.748,72.878-26.822,73.245A.5.5,0,0,0,352.683,368.154Z" transform="translate(-352.302 -275.708)" fill="#2994ff"/>
      </g>
      <g id="Group_620" data-name="Group 620" transform="translate(2.926 30.989)">
        <path id="Path_331" data-name="Path 331" d="M375.194,352.045c-3.338-3.8-1.365-14.487,2.539-17.679s7.986-2.272,11.837-9.42c3.545-6.577,17.176-10.906,18.278-9.863,2.117,2.007-.482,13.693-6.089,17.78-9.125,6.649-7.9,13.59-12.645,17.655C382.911,355.834,375.194,352.045,375.194,352.045Z" transform="translate(-363.586 -314.928)" fill="#1d3d5d"/>
        <path id="Path_332" data-name="Path 332" d="M357.514,388.468a.5.5,0,0,0,.609-.366c5.4-21.663,25.1-43.324,25.294-43.54a.5.5,0,0,0-.74-.68c-.2.218-20.066,22.062-25.529,43.977A.5.5,0,0,0,357.514,388.468Z" transform="translate(-357.133 -326.282)" fill="#2994ff"/>
      </g>
    </g>
    <g id="Group_631" data-name="Group 631" transform="translate(1.751 53.865)">
      <g id="Group_625" data-name="Group 625" transform="translate(127.294)">
        <path id="Path_333" data-name="Path 333" d="M305.357,136.88a4.615,4.615,0,1,1,0-6.526A4.615,4.615,0,0,1,305.357,136.88Z" transform="translate(-268.917 -129.002)" fill="#212121"/>
        <path id="Path_334" data-name="Path 334" d="M300.31,137.54a4.772,4.772,0,0,1-.107-6.633,4.769,4.769,0,1,1,6.74,6.74,4.772,4.772,0,0,1-6.634-.107Zm0,0a4.46,4.46,0,0,0,6.419-.108,4.466,4.466,0,0,0-6.312-6.312,4.461,4.461,0,0,0-.107,6.42Z" transform="translate(-269.483 -129.159)" fill="#212121"/>
        <ellipse id="Ellipse_59" data-name="Ellipse 59" cx="4.711" cy="5.057" rx="4.711" ry="5.057" transform="translate(23.216 7.029) rotate(-45)" fill="#2994ff"/>
        <path id="Path_335" data-name="Path 335" d="M294.652,144.329c0,6.589-4.847,11.932-10.826,11.932S273,146.732,273,142.644c0-6.589,5.8-10.246,11.774-10.246S294.652,137.74,294.652,144.329Z" transform="translate(-259.263 -130.341)" fill="#212121"/>
        <path id="Path_336" data-name="Path 336" d="M270.2,180.262c-5.449,1.9-10.309,8.056-19.824,21.683,0,0,2.837.564,9.609,2.229l12.63-13.524Z" transform="translate(-250.341 -149.216)" fill="#ffc3bd"/>
        <path id="Path_337" data-name="Path 337" d="M276.869,180.262h11.554l8.263,2c2.555,4.84-2.178,24.213,2.005,41.669,0,0-20.655,3.484-31.4,0,0,0,4.838-7.646,2.486-18.69-2.054-9.643-3-14.419.561-20.793Z" transform="translate(-257.012 -149.216)" fill="#2994ff"/>
        <path id="Path_338" data-name="Path 338" d="M294.177,149.573a1.926,1.926,0,0,0-2.391-.007v-2.615a6.35,6.35,0,0,0-6.35-6.351,9.545,9.545,0,0,0-9.545,9.546v3.618a7.942,7.942,0,0,0,4.341,7.076v5.249l11.582-1.467-.029-9.909C293.922,155.243,295.659,150.822,294.177,149.573Z" transform="translate(-260.403 -133.576)" fill="#ffc3bd"/>
        <path id="Path_339" data-name="Path 339" d="M283.059,171.834v1.655c7.834,1.71,10.069-5.01,10.069-5.01C289.122,173.05,284.658,172.439,283.059,171.834Z" transform="translate(-263.23 -144.57)" fill="#ff847f"/>
        <path id="Path_340" data-name="Path 340" d="M314.079,183.565c-2.277.833-3.78,9.917-1.684,13.379l7.24,14.531-.778,11.561c5.413,2.483,5.017.7,5.017.7a43.436,43.436,0,0,0,2.751-13.826C326.625,205.222,318.956,185.526,314.079,183.565Z" transform="translate(-274.404 -150.519)" fill="#ffc3bd"/>
        <g id="Group_622" data-name="Group 622" transform="translate(16.15 14.249)">
          <circle id="Ellipse_60" data-name="Ellipse 60" cx="0.606" cy="0.606" r="0.606" transform="translate(7.266 1.949)" fill="#0e1738"/>
          <circle id="Ellipse_61" data-name="Ellipse 61" cx="0.606" cy="0.606" r="0.606" transform="translate(1.681 1.949)" fill="#0e1738"/>
          <path id="Path_341" data-name="Path 341" d="M283.183,157.106c-.248.752-.58,1.448-.849,2.148a4.484,4.484,0,0,0-.173.518c-.042.169-.071.338-.016.395a6.317,6.317,0,0,0,.8.773,2.346,2.346,0,0,1-1.1-.542.52.52,0,0,1-.115-.189.776.776,0,0,1-.032-.2,1.489,1.489,0,0,1,.027-.336,3.588,3.588,0,0,1,.179-.588A6.469,6.469,0,0,1,283.183,157.106Z" transform="translate(-278.847 -154.334)" fill="#ff847f"/>
          <path id="Path_342" data-name="Path 342" d="M290.713,154.113a8.463,8.463,0,0,0-1.725-.9,4.243,4.243,0,0,0-1.9-.094,1.93,1.93,0,0,1,.95-.529,2.128,2.128,0,0,1,1.13.047A2.5,2.5,0,0,1,290.713,154.113Z" transform="translate(-280.971 -152.529)" fill="#0e1738"/>
          <path id="Path_343" data-name="Path 343" d="M276.985,154.113a2.5,2.5,0,0,1,1.54-1.481,2.129,2.129,0,0,1,1.13-.047,1.926,1.926,0,0,1,.949.529,4.241,4.241,0,0,0-1.894.094A8.45,8.45,0,0,0,276.985,154.113Z" transform="translate(-276.985 -152.529)" fill="#0e1738"/>
        </g>
        <path id="Path_344" data-name="Path 344" d="M302.193,159.413c.334-.336.709-.833.394-1.07-.029-.025-.077-.071-.136-.131a1.021,1.021,0,0,1-.128-.184,1.415,1.415,0,0,1-.147-.4,1.777,1.777,0,0,1,.041-.835.861.861,0,0,1,.265-.419,1.041,1.041,0,0,1,.433-.168,1.383,1.383,0,0,1,.838.091.952.952,0,0,1,.526.648,1.783,1.783,0,0,1-.019.767c-.058-.489-.24-.99-.642-1.087a1.135,1.135,0,0,0-.613,0,.787.787,0,0,0-.25.1.5.5,0,0,0-.105.207,1.425,1.425,0,0,0-.051.625,1,1,0,0,0,.078.3.761.761,0,0,0,.07.126c.023.032.057.077.111.143a.654.654,0,0,1,.143.454.729.729,0,0,1-.184.4A2.038,2.038,0,0,1,302.193,159.413Z" transform="translate(-270.756 -139.717)" fill="#ff847f"/>
        <path id="Path_345" data-name="Path 345" d="M303.846,193.34l-3.269-.525c-.032,5.35-3.911,15.348-13.126,14.333,0,0,13.751,4.9,12.907,9.135s-13.555,8.176-16.047,8.479-.067,1.722,10.445,1.722c3.189,0,4.436,1.322,4.636,3.16,3.4-.383,5.657-.762,5.657-.762C301.915,215.8,303.785,201.653,303.846,193.34Z" transform="translate(-263.369 -154.167)" fill="#0e1738" opacity="0.15"/>
        <path id="Path_346" data-name="Path 346" d="M318.95,250.914l-4.311-.5a1.006,1.006,0,0,1-.889-1h0a1,1,0,0,1,1.005-1.005h4.195Z" transform="translate(-275.333 -176.09)" fill="#ffc3bd"/>
        <path id="Path_347" data-name="Path 347" d="M294.165,180.262H282.6s-1.692,2.681,0,3.9a3.943,3.943,0,0,0,1.865.59l.557,6.794,2.659-6.966C290.854,184.014,294.165,182.382,294.165,180.262Z" transform="translate(-262.754 -149.216)" fill="#ffc3bd"/>
        <path id="Path_348" data-name="Path 348" d="M287.677,165.736a.8.8,0,1,1-.776-.984A.9.9,0,0,1,287.677,165.736Z" transform="translate(-264.439 -143.1)" fill="#ff847f"/>
        <g id="Group_624" data-name="Group 624" transform="translate(0 21.916)">
          <path id="Path_349" data-name="Path 349" d="M265.443,181.741l3.973,2.82-9.129,19.6a5.228,5.228,0,0,1-8.122,1.779h0a5.228,5.228,0,0,1-.651-7.314Z" transform="translate(-250.319 -171.716)" fill="#ffc3bd"/>
          <path id="Path_350" data-name="Path 350" d="M274.869,175.348l-.634-3.144a.675.675,0,0,1,0-.265l.8-4.081a.681.681,0,0,1,.174-.337l.907-.953a.68.68,0,0,1,.97-.014l.237.236a.679.679,0,0,1,.082.866l-.561.817a.679.679,0,0,0-.118.428h0a.679.679,0,0,0,1.208.381l2.8-3.5a.679.679,0,0,1,.886-.153l3.306,2.037a.678.678,0,0,1,.263.856l-2.767,6.16a.674.674,0,0,1-.151.214l-3.435,3.271Z" transform="translate(-259.745 -165.323)" fill="#ffc3bd"/>
          <g id="Group_623" data-name="Group 623" transform="translate(16.375)">
            <path id="Path_351" data-name="Path 351" d="M277.356,166.434a.7.7,0,0,1,.806-.171,1.333,1.333,0,0,1,.346.272.9.9,0,0,1,.274.357.743.743,0,0,1,.022.463,1.49,1.49,0,0,1-.214.4c-.15.237-.323.492-.453.714a.57.57,0,0,0,.121.651.549.549,0,0,0,.639.078,3.156,3.156,0,0,0,.52-.605l.526-.681L281,166.554l.534-.675.267-.337a.888.888,0,0,1,1-.308,2.566,2.566,0,0,1,.417.228l.735.446,1.47.894.73.455a1.2,1.2,0,0,1,.394.328.891.891,0,0,1,.167.533,1.134,1.134,0,0,1-.142.494l-.179.391-.357.783c-.48,1.042-.944,2.09-1.439,3.125l-.733,1.556a1.1,1.1,0,0,1-.261.4l-.317.291-.634.581c-.856.764-1.7,1.538-2.568,2.292.795-.828,1.61-1.635,2.415-2.453l.611-.605.306-.3a.826.826,0,0,0,.187-.323l.676-1.582c.445-1.057.921-2.1,1.38-3.151l.348-.786a2.932,2.932,0,0,0,.273-.716.455.455,0,0,0-.089-.273.792.792,0,0,0-.271-.205l-.735-.448-1.459-.911-.729-.455c-.268-.177-.413-.266-.624-.2a.473.473,0,0,0-.248.174l-.271.334-.542.667-1.093,1.329-.55.661-.275.33a1.165,1.165,0,0,1-.356.328.821.821,0,0,1-.953-.146.8.8,0,0,1-.141-.935c.174-.263.34-.472.51-.71a1.4,1.4,0,0,0,.216-.343.609.609,0,0,0,0-.382.785.785,0,0,0-.227-.331,1.324,1.324,0,0,0-.309-.277A.666.666,0,0,0,277.356,166.434Z" transform="translate(-277.356 -165.188)" fill="#ff847f"/>
            <path id="Path_352" data-name="Path 352" d="M285.765,166.2a7.192,7.192,0,0,1-.733,2.274,6.137,6.137,0,0,1-.644,1.02,2.69,2.69,0,0,1-.915.8,6.97,6.97,0,0,0,.62-.992c.182-.34.363-.681.535-1.03C284.985,167.573,285.327,166.873,285.765,166.2Z" transform="translate(-279.768 -165.585)" fill="#ff847f"/>
            <path id="Path_353" data-name="Path 353" d="M287.987,167.4a6.049,6.049,0,0,1-.549,2.139,4.457,4.457,0,0,1-1.325,1.772c.326-.67.617-1.3.911-1.959S287.611,168.042,287.987,167.4Z" transform="translate(-280.81 -166.059)" fill="#ff847f"/>
            <path id="Path_354" data-name="Path 354" d="M289.773,168.428a7.043,7.043,0,0,1-.5,2.185,5.034,5.034,0,0,1-1.2,1.9l.781-2.064A16.164,16.164,0,0,1,289.773,168.428Z" transform="translate(-281.581 -166.466)" fill="#ff847f"/>
          </g>
        </g>
        <path id="Path_355" data-name="Path 355" d="M314.079,183.565c-2.277.833-3.78,9.917-1.684,13.379l3.416,7.945,8.427-6.706C320.952,191.447,316.737,184.634,314.079,183.565Z" transform="translate(-274.404 -150.519)" fill="#2994ff"/>
        <path id="Path_356" data-name="Path 356" d="M288.732,137.687c-3.167-1.3-12.563-.724-13.815,3.263v4.845s1.149.071,2.734.118l.8-3.777.452,3.806a48.847,48.847,0,0,0,5.216-.147l.46-2.725.587,2.882,2.633.5s2.543,3.657,2.39,12.675l1.237-10.974S291.9,138.991,288.732,137.687Z" transform="translate(-260.019 -132.18)" fill="#212121"/>
        <path id="Path_357" data-name="Path 357" d="M316.857,209.876a42.226,42.226,0,0,1,3.8-3.791,41.754,41.754,0,0,1,4.206-3.339,41.756,41.756,0,0,1-3.8,3.791A42.225,42.225,0,0,1,316.857,209.876Z" transform="translate(-276.558 -158.083)" fill="#fff"/>
      </g>
      <g id="Group_627" data-name="Group 627" transform="translate(0 52.729)">
        <path id="Path_358" data-name="Path 358" d="M164.388,228.575l-1.563-4.429a12.113,12.113,0,0,0-11.422-8.082H99.408a12.113,12.113,0,0,0-12.113,12.113V330.531a12.113,12.113,0,0,0,12.113,12.113H243.552a12.113,12.113,0,0,0,12.113-12.113V248.769a12.113,12.113,0,0,0-12.113-12.113H175.81A12.114,12.114,0,0,1,164.388,228.575Z" transform="translate(-58.736 -216.064)" fill="#2994ff" opacity="0.2"/>
        <path id="Path_359" data-name="Path 359" d="M47.641,301.5a.606.606,0,0,1-.589-.469l-6.895-29.608a.606.606,0,0,1,1.18-.274l6.894,29.608a.606.606,0,0,1-.452.727A.6.6,0,0,1,47.641,301.5Z" transform="translate(-40.141 -237.601)" fill="#212121"/>
        <path id="Path_360" data-name="Path 360" d="M58.668,348.849a.606.606,0,0,1-.589-.468l-3.71-15.931a.606.606,0,1,1,1.18-.274l3.71,15.931a.605.605,0,0,1-.591.743Z" transform="translate(-45.745 -261.668)" fill="#212121"/>
        <path id="Path_361" data-name="Path 361" d="M238.6,336.832v1.98a12.113,12.113,0,0,1-12.113,12.113H80.377c-6.692,0-13.252-4.875-14.651-10.9L44.286,247.96c-1.405-6.02,2.883-10.9,9.575-10.9h51.995a15.977,15.977,0,0,1,13.112,7.268l2.5,3.985a15.977,15.977,0,0,0,13.112,7.268h67.742c6.692,0,13.252,4.882,14.651,10.9l16.54,71.024a2.592,2.592,0,0,0,5.093-.672Z" transform="translate(-41.67 -224.345)" fill="#1d3d5d"/>
        <path id="bookmark" d="M35.235,41.994a4.9,4.9,0,0,1-3.477-1.461L21,29.835,10.236,40.54a4.9,4.9,0,0,1-5.415,1.066A4.9,4.9,0,0,1,1.75,37.014V8.749A8.749,8.749,0,0,1,10.5,0h21a8.749,8.749,0,0,1,8.749,8.749V37.014a4.9,4.9,0,0,1-3.064,4.591,5.017,5.017,0,0,1-1.946.388ZM10.5,3.5A5.249,5.249,0,0,0,5.249,8.749V37.014a1.475,1.475,0,0,0,2.514,1.05h0L19.772,26.129a1.75,1.75,0,0,1,2.467,0L34.234,38.06a1.475,1.475,0,0,0,2.514-1.05V8.749A5.249,5.249,0,0,0,31.5,3.5Z" transform="translate(80.973 60.61)" fill="#dbdce1"/>
      </g>
    </g>
    <g id="Group_633" data-name="Group 633" transform="translate(171.912 125.407)">
      <path id="Path_367" data-name="Path 367" d="M327.655,247.126h-5.583a.963.963,0,0,0-.973.953v3.089a.813.813,0,0,0,.88.8h.123a.87.87,0,0,0,.874-.8h.012a.87.87,0,0,0,.874.8h.124a.87.87,0,0,0,.873-.8h.012a.869.869,0,0,0,.873.8h.124c.885,0,.842-.7.873-1.15h.012a.87.87,0,0,0,.873.8h.124a.87.87,0,0,0,.873-.8h.006v-2.743A.963.963,0,0,0,327.655,247.126Z" transform="translate(-321.098 -247.126)" fill="#ffc3bd"/>
      <g id="Group_632" data-name="Group 632" transform="translate(1.659)">
        <path id="Path_368" data-name="Path 368" d="M324.06,247.126a9.1,9.1,0,0,1,.006,4.041,9.125,9.125,0,0,1-.006-4.041Z" transform="translate(-323.837 -247.126)" fill="#ff847f"/>
        <path id="Path_369" data-name="Path 369" d="M327.167,247.126a8.151,8.151,0,0,1,.227,2.02,8.068,8.068,0,0,1-.227,2.021,8.037,8.037,0,0,1-.227-2.021A8.119,8.119,0,0,1,327.167,247.126Z" transform="translate(-325.061 -247.126)" fill="#ff847f"/>
        <path id="Path_370" data-name="Path 370" d="M330.284,247.126a6.825,6.825,0,0,1,.227,1.848,6.753,6.753,0,0,1-.227,1.848,6.775,6.775,0,0,1-.227-1.848A6.845,6.845,0,0,1,330.284,247.126Z" transform="translate(-326.29 -247.126)" fill="#ff847f"/>
      </g>
    </g>
    <g id="Group_637" data-name="Group 637" transform="translate(176.161 20.543)">
      <g id="Group_636" data-name="Group 636" transform="translate(14.789 8.832)">
        <g id="Group_634" data-name="Group 634">
          <path id="Path_371" data-name="Path 371" d="M356.276,100.716a.831.831,0,0,1-.8-.859l.143-4.09a.831.831,0,0,1,.859-.8,2.369,2.369,0,1,0-2.285-2.45.831.831,0,1,1-1.661-.058,4.031,4.031,0,1,1,4.721,4.112l-.117,3.346A.831.831,0,0,1,356.276,100.716Z" transform="translate(-352.531 -88.567)" fill="#20578d"/>
        </g>
        <g id="Group_635" data-name="Group 635" transform="translate(2.44 13.694)">
          <path id="Path_372" data-name="Path 372" d="M359.218,112.552a1.33,1.33,0,1,1-1.283-1.375A1.33,1.33,0,0,1,359.218,112.552Z" transform="translate(-356.56 -111.177)" fill="#20578d"/>
        </g>
      </g>
      <path id="Path_373" data-name="Path 373" d="M328.113,112.132l4-12.791a17.014,17.014,0,1,1,6.311,6.379ZM346.931,75.8a15.191,15.191,0,0,0-13.052,22.964l.208.348-2.78,8.892,7.11-4.422.48.3A15.191,15.191,0,1,0,346.931,75.8Z" transform="translate(-328.113 -73.984)" fill="#20578d"/>
    </g>
  </g>
</svg>
