<svg xmlns="http://www.w3.org/2000/svg" width="24" height="24" viewBox="0 0 24 24">
    <g data-name="Group 578">
        <g data-name="Group 136">
            <path data-name="Rectangle 45" style="fill:none" d="M0 0h24v24H0z"/>
            <g data-name="01 align center">
                <path data-name="Path 21" d="m23.756 16.198-2.6-9.367a9.317 9.317 0 0 0-18.075.473l-2.01 9.044a3 3 0 0 0 2.927 3.649h3.608a5 5 0 0 0 9.8 0h3.469a3 3 0 0 0 2.889-3.8zm-11.25 5.798a3 3 0 0 1-2.815-2h5.63a3 3 0 0 1-2.815 2zm9.157-4.392a.993.993 0 0 1-.8.395H3.998a1 1 0 0 1-.976-1.217l2.01-9.048a7.318 7.318 0 0 1 14.195-.372l2.6 9.367a.993.993 0 0 1-.163.873z"/>
            </g>
        </g>
    </g>
</svg>
