<svg xmlns="http://www.w3.org/2000/svg" xmlns:xlink="http://www.w3.org/1999/xlink" width="528" height="528" viewBox="0 0 528 528">
  <defs>
    <linearGradient id="linear-gradient" x1="0.146" y1="0.888" x2="0.764" y2="0.211" gradientUnits="objectBoundingBox">
      <stop offset="0" stop-color="#415fff"/>
      <stop offset="1" stop-color="#08dcff"/>
    </linearGradient>
    <linearGradient id="linear-gradient-2" x1="-1.571" y1="0.001" x2="3.547" y2="1.355" xlink:href="#linear-gradient"/>
    <linearGradient id="linear-gradient-3" x1="-8.537" y1="-0.234" x2="8.136" y2="1.12" xlink:href="#linear-gradient"/>
    <linearGradient id="linear-gradient-4" x1="-3.312" y1="-0.779" x2="2.201" y2="1.003" xlink:href="#linear-gradient"/>
    <linearGradient id="linear-gradient-5" x1="-4.467" y1="-1.042" x2="1.167" y2="0.708" xlink:href="#linear-gradient"/>
  </defs>
  <g id="placeholder_v_" data-name="placeholder_v+" transform="translate(1012 -11871)">
    <rect id="Rectangle_2889" data-name="Rectangle 2889" width="528" height="528" transform="translate(-1012 11871)" fill="#fff"/>
    <g id="logo_01" transform="translate(-940.147 11942.854)" opacity="0.44">
      <path id="Path_6403" data-name="Path 6403" d="M0,0H384.294V384.294H0Z" fill="none"/>
      <g id="Group_5670" data-name="Group 5670" transform="translate(0 12.962)">
        <rect id="Rectangle_2888" data-name="Rectangle 2888" width="239.593" height="239.593" rx="119.796" transform="translate(72.351)" fill="url(#linear-gradient)"/>
        <path id="Path_434" data-name="Path 434" d="M732.521,667.561l-72.589,41.908a.315.315,0,0,1-.035.023l-2.565,1.481-.969.551-.016.006-2.6,1.478a8.885,8.885,0,0,1-10.827-1.52,8.793,8.793,0,0,1-.8-.947,8.884,8.884,0,0,1,2.745-12.919l2-1.151,3.723-2.143,9.237-5.313.041-.019c.076-.038.16-.083.24-.131l4.242-2.448,26.638-15.382,20.474-11.818a4.615,4.615,0,0,0,0-7.99L660.1,621.575a4.615,4.615,0,0,0-6.922,4v13.767a8.883,8.883,0,0,1-17.766,0V611.493a14.251,14.251,0,0,1,21.379-12.34l75.73,43.721a14.252,14.252,0,0,1,0,24.686Z" transform="translate(-487.131 -535.913)" fill="#fff"/>
        <g id="Group_743" data-name="Group 743" transform="translate(148.281 119.958)">
          <path id="Path_435" data-name="Path 435" d="M639.759,784.074a4.348,4.348,0,0,1,0-8.7h19.108a4.348,4.348,0,1,1,0,8.7Z" transform="translate(-635.411 -765.825)" fill="#fff"/>
          <path id="Path_436" data-name="Path 436" d="M664.718,778.225a4.353,4.353,0,0,1-4.346-4.346V754.771a4.348,4.348,0,1,1,8.7,0v19.108A4.353,4.353,0,0,1,664.718,778.225Z" transform="translate(-650.816 -750.422)" fill="#fff"/>
        </g>
        <g id="Group_5669" data-name="Group 5669" transform="translate(0 300.097)">
          <path id="Path_439" data-name="Path 439" d="M286.892,1230.13l-11.959,39.177h-.444l-11.963-39.177H248.06l18.046,53.486h17.212l18.046-53.486Z" transform="translate(-248.06 -1226.634)" fill="#060e33"/>
          <path id="Path_440" data-name="Path 440" d="M402.117,1237.865v40.115h12.77v-40.115Zm11.036-15.083a6.89,6.89,0,0,0-9.26,0,5.772,5.772,0,0,0,0,8.621,6.89,6.89,0,0,0,9.26,0,5.8,5.8,0,0,0,0-8.621Z" transform="translate(-343.046 -1220.994)" fill="#060e33"/>
          <path id="Path_441" data-name="Path 441" d="M480.841,1230.13v20.239h-.26a13.216,13.216,0,0,0-2.22-3.526,11.354,11.354,0,0,0-3.709-2.779,12.327,12.327,0,0,0-5.405-1.084,14.938,14.938,0,0,0-7.848,2.194,15.661,15.661,0,0,0-5.892,6.764,31.2,31.2,0,0,0-.076,23.06,15.9,15.9,0,0,0,5.795,6.895,14.784,14.784,0,0,0,8.069,2.3,12.861,12.861,0,0,0,5.261-.991,11.084,11.084,0,0,0,3.721-2.611,12.665,12.665,0,0,0,2.3-3.476h.39v6.5h12.641v-53.486Zm-.6,39.07a8.3,8.3,0,0,1-2.534,3.721,6.684,6.684,0,0,1-7.978,0,8.185,8.185,0,0,1-2.5-3.721,18.934,18.934,0,0,1-.011-11.254,8,8,0,0,1,2.492-3.683,6.846,6.846,0,0,1,8.006-.027,7.921,7.921,0,0,1,2.535,3.656,18.556,18.556,0,0,1-.011,11.308Z" transform="translate(-374.708 -1226.634)" fill="#060e33"/>
          <path id="Path_442" data-name="Path 442" d="M615.118,1287.357v-3.189a24.823,24.823,0,0,0-1.436-8.759,17.982,17.982,0,0,0-4.019-6.439,16.851,16.851,0,0,0-6.14-3.943,22.124,22.124,0,0,0-7.832-1.332,20.542,20.542,0,0,0-10.527,2.6,17.843,17.843,0,0,0-6.921,7.258,23.045,23.045,0,0,0-2.454,10.879,23.383,23.383,0,0,0,2.44,11.032,16.959,16.959,0,0,0,7,7.128,22.266,22.266,0,0,0,10.852,2.5,24.644,24.644,0,0,0,9.245-1.608,16.2,16.2,0,0,0,6.466-4.517,14.493,14.493,0,0,0,3.2-6.856l-11.725-.337a5.672,5.672,0,0,1-1.489,2.243,6.557,6.557,0,0,1-2.377,1.385,9.516,9.516,0,0,1-3.082.471,8.379,8.379,0,0,1-4.23-1.018,6.973,6.973,0,0,1-2.741-2.859,9.142,9.142,0,0,1-.968-4.3v-.337Zm-25.7-10.9a7.238,7.238,0,0,1,2.691-2.584,7.71,7.71,0,0,1,3.84-.953,7.626,7.626,0,0,1,3.748.9,6.714,6.714,0,0,1,2.573,2.5,7.152,7.152,0,0,1,.964,3.629H588.386a7.313,7.313,0,0,1,1.033-3.49Z" transform="translate(-450.33 -1247.351)" fill="#060e33"/>
          <path id="Path_443" data-name="Path 443" d="M729.72,1273.559a17.594,17.594,0,0,0-6.971-7.258,23.948,23.948,0,0,0-21.7,0,17.6,17.6,0,0,0-6.974,7.258,25.274,25.274,0,0,0,0,21.678,17.626,17.626,0,0,0,6.974,7.258,23.949,23.949,0,0,0,21.7,0,17.614,17.614,0,0,0,6.971-7.258,25.274,25.274,0,0,0,0-21.678Zm-11.411,16.572a8.9,8.9,0,0,1-2.44,3.916,5.652,5.652,0,0,1-3.889,1.413,5.908,5.908,0,0,1-4.008-1.413,8.686,8.686,0,0,1-2.48-3.916,20.384,20.384,0,0,1,0-11.648,8.684,8.684,0,0,1,2.48-3.916,5.907,5.907,0,0,1,4.008-1.413,5.651,5.651,0,0,1,3.889,1.413,8.9,8.9,0,0,1,2.44,3.916,20.385,20.385,0,0,1,0,11.648Z" transform="translate(-521.828 -1247.354)" fill="#060e33"/>
          <path id="Path_444" data-name="Path 444" d="M895.206,1238.964a16.6,16.6,0,0,0-6.753-6.5,21.738,21.738,0,0,0-10.382-2.339H855.98v10.422h19.3a10.886,10.886,0,0,1,4.884.991,6.879,6.879,0,0,1,3,2.81,9.568,9.568,0,0,1,0,8.59,6.988,6.988,0,0,1-2.99,2.859,10.576,10.576,0,0,1-4.9,1.022h-6.37v-.011H855.98v26.8h12.927V1267h8.774a23.153,23.153,0,0,0,10.6-2.27,16.355,16.355,0,0,0,6.883-6.412,18.886,18.886,0,0,0,2.416-9.678,19.2,19.2,0,0,0-2.377-9.68Z" transform="translate(-623.263 -1226.631)" fill="url(#linear-gradient-2)"/>
          <path id="Path_445" data-name="Path 445" d="M981.23,1230.13v53.486H994V1230.13Z" transform="translate(-700.567 -1226.634)" fill="url(#linear-gradient-3)"/>
          <path id="Path_446" data-name="Path 446" d="M1061.617,1265.059v22.8a8.13,8.13,0,0,1-.9,3.958,6.192,6.192,0,0,1-2.431,2.48,6.938,6.938,0,0,1-3.431.846,5.91,5.91,0,0,1-4.624-1.879,7.5,7.5,0,0,1-1.722-5.145v-23.061h-12.773v25.568a17.5,17.5,0,0,0,1.749,7.93,12.773,12.773,0,0,0,4.831,5.261,14.818,14.818,0,0,0,14.926-.271,11.63,11.63,0,0,0,4.532-5.838h.417v7.472h12.169v-40.114Z" transform="translate(-734.208 -1248.192)" fill="url(#linear-gradient-4)"/>
          <path id="Path_447" data-name="Path 447" d="M1188.042,1284.439q-2.934-2.664-8.943-3.812l-7.732-1.462a7.9,7.9,0,0,1-3.507-1.385,2.544,2.544,0,0,1-.953-2.037,2.627,2.627,0,0,1,1.525-2.4,8.357,8.357,0,0,1,6.764-.326,5.558,5.558,0,0,1,2.1,1.539,4.459,4.459,0,0,1,.991,2.236l11.726-.314a12.276,12.276,0,0,0-5.195-9.364q-4.7-3.405-12.851-3.407a26.644,26.644,0,0,0-9.429,1.512,13.53,13.53,0,0,0-6.163,4.375,10.937,10.937,0,0,0-2.14,6.883,10.169,10.169,0,0,0,2.925,7.56q2.952,2.963,8.984,4.062l7,1.332a9.676,9.676,0,0,1,3.683,1.29,2.618,2.618,0,0,1,1.2,2.182,2.806,2.806,0,0,1-1.566,2.427,7.739,7.739,0,0,1-4,.915,8,8,0,0,1-4.467-1.148,4.925,4.925,0,0,1-2.167-3.342l-12.614.314a13.12,13.12,0,0,0,5.654,9.494q4.95,3.537,13.54,3.537a25.435,25.435,0,0,0,9.558-1.684,15.636,15.636,0,0,0,6.6-4.739,11.388,11.388,0,0,0,2.44-7.181,9.143,9.143,0,0,0-2.963-7.052Z" transform="translate(-806.717 -1247.352)" fill="url(#linear-gradient-5)"/>
        </g>
      </g>
    </g>
  </g>
</svg>
