<svg xmlns="http://www.w3.org/2000/svg" width="24" height="24" viewBox="0 0 24 24">
    <path data-name="Rectangle 45" style="fill:none" d="M0 0h24v24H0z"/>
    <path d="M20.136 24a2.8 2.8 0 0 1-1.987-.835l-6.147-6.117-6.151 6.118a2.8 2.8 0 0 1-3.095.609 2.8 2.8 0 0 1-1.754-2.624V5a5 5 0 0 1 5-5h12a5 5 0 0 1 5 5v16.151a2.8 2.8 0 0 1-1.751 2.624 2.867 2.867 0 0 1-1.115.225zM6.002 2a3 3 0 0 0-3 3v16.151a.843.843 0 0 0 1.437.6l6.862-6.82a1 1 0 0 1 1.41 0l6.854 6.818a.843.843 0 0 0 1.437-.6V5a3 3 0 0 0-3-3z"/>
</svg>
