<svg xmlns="http://www.w3.org/2000/svg" width="24" height="24" viewBox="0 0 24 24">
    <path data-name="Rectangle 235" style="fill:none" d="M0 0h24v24H0z"/>
    <g data-name="Group 674">
        <g data-name="Group 671">
            <path data-name="Path 386" d="m290.9 131.113-.12.288-.161.386-3.522 8.451-.154.37-.019.045h-14.041l-.027-.062-.168-.387-3.652-8.41-.174-.4-.267-.615-.084-.195.29.271.534.5.282.262 5.383 5.03 4.185-7.762.32-.594.186-.347.011-.02.067-.124.08.156.191.376 1.264 2.483 1.349 2.648.816 1.6.8 1.579 5.956-4.976.338-.282z" transform="translate(-267.875 -122.084)" style="fill:#fdbe11"/>
            <path data-name="Path 387" d="m308.183 202.545-.154.37-.019.045h-14.043l-.027-.062-.168-.387a.62.62 0 0 1 .261-.058h13.824a.624.624 0 0 1 .326.093z" transform="translate(-288.959 -184.392)" style="isolation:isolate;mix-blend-mode:multiply;opacity:.67;fill:#f99b1c"/>
            <path data-name="Path 388" d="m312.616 130.817-1.6 4.213-1.945 5.115-.166.437-.026.07h-2.854l.026-.07.166-.437 4.283-11.259.32-.594.186-.347.011-.02.067-.124.08.156.191.376z" transform="translate(-299.183 -122.084)" style="opacity:.53;fill:#fff;mix-blend-mode:soft-light;isolation:isolate"/>
            <path data-name="Path 389" d="m341.075 163.654-1.93 5.077-.166.437-.026.07h-1.427l.026-.07.166-.437 2.542-6.68z" transform="translate(-325.478 -150.671)" style="opacity:.53;fill:#fff;mix-blend-mode:soft-light;isolation:isolate"/>
            <path data-name="Path 390" d="M306.348 205.9a.754.754 0 0 1-.7.8h-13.824a.754.754 0 0 1-.7-.8.77.77 0 0 1 .606-.792.509.509 0 0 1 .093-.008h13.824a.6.6 0 0 1 .172.025.787.787 0 0 1 .529.775z" transform="translate(-286.751 -186.599)" style="fill:#fb3"/>
            <path data-name="Path 391" d="m326.158 205.1-.026.07-.582 1.529h-2.85l.582-1.529.026-.07z" transform="translate(-313.101 -186.6)" style="opacity:.51;fill:#fff;mix-blend-mode:soft-light;isolation:isolate"/>
            <path data-name="Path 392" d="m356.235 205.1-.026.07-.582 1.529H354.2l.582-1.529.026-.07z" transform="translate(-339.396 -186.6)" style="opacity:.51;fill:#fff;mix-blend-mode:soft-light;isolation:isolate"/>
            <g data-name="Group 668">
                <path data-name="Path 393" d="M332.579 118.549v.08a1.133 1.133 0 0 1-.947 1.038 1.236 1.236 0 0 1-.181.014 1.062 1.062 0 0 1-.156-.011 1 1 0 0 1-.2-.046 1.132 1.132 0 0 1-.776-1v-.08a1.131 1.131 0 0 1 .976-1.121 1.07 1.07 0 0 1 .156-.011 1.132 1.132 0 0 1 1.128 1.137z" transform="translate(-319.461 -113.417)" style="fill:#fdbe11"/>
                <path data-name="Path 394" d="M332.587 123.746a1.133 1.133 0 0 1-.947 1.038 1.239 1.239 0 0 1-.182.014 1.056 1.056 0 0 1-.156-.011.993.993 0 0 1-.2-.046 1.132 1.132 0 0 1-.776-1 1.158 1.158 0 0 1 .032-.2 1.13 1.13 0 0 0 .93.847.019.019 0 0 0 .011 0 .938.938 0 0 0 .147.012h.01a1.132 1.132 0 0 0 1.1-.86 1.087 1.087 0 0 1 .031.206z" transform="translate(-319.473 -118.534)" style="fill:#f99b1c"/>
                <path data-name="Path 395" d="M334.214 119.408v.038a.546.546 0 0 1-1.09 0v-.038a.546.546 0 1 1 1.093 0z" transform="translate(-321.803 -114.623)" style="fill:#fff;mix-blend-mode:soft-light;isolation:isolate"/>
            </g>
            <g data-name="Group 669">
                <path data-name="Path 396" d="M398.393 139.384v.08a1.133 1.133 0 0 1-1.252 1.045 1.094 1.094 0 0 1-.387-.116 1.127 1.127 0 0 1-.619-.93v-.08a1.132 1.132 0 1 1 2.264 0z" transform="translate(-374.393 -130.807)" style="fill:#fdbe11"/>
                <path data-name="Path 397" d="M398.4 144.582a1.133 1.133 0 0 1-1.252 1.045 1.093 1.093 0 0 1-.387-.116 1.127 1.127 0 0 1-.619-.93 1.183 1.183 0 0 1 .032-.2 1.132 1.132 0 0 0 .925.845 1 1 0 0 0 .173.014.2.2 0 0 0 .037 0 1.129 1.129 0 0 0 1.06-.857 1.093 1.093 0 0 1 .031.199z" transform="translate(-374.404 -135.925)" style="fill:#f99b1c"/>
                <path data-name="Path 398" d="M400.027 140.244v.038a.546.546 0 0 1-1.09 0v-.038a.546.546 0 0 1 1.093 0z" transform="translate(-376.734 -132.014)" style="fill:#fff;mix-blend-mode:soft-light;isolation:isolate"/>
            </g>
            <g data-name="Group 670">
                <path data-name="Path 399" d="M266.932 139.384v.08a1.132 1.132 0 0 1-2.258 0v-.08a1.132 1.132 0 1 1 2.264 0z" transform="translate(-264.668 -130.807)" style="fill:#fdbe11"/>
                <path data-name="Path 400" d="M266.939 144.582a1.132 1.132 0 0 1-2.258 0 1.17 1.17 0 0 1 .032-.2 1.13 1.13 0 0 0 2.195 0 1.093 1.093 0 0 1 .031.2z" transform="translate(-264.679 -135.925)" style="fill:#f99b1c"/>
                <path data-name="Path 401" d="M268.566 140.244v.038a.546.546 0 0 1-1.09 0v-.038a.546.546 0 0 1 1.093 0z" transform="translate(-267.009 -132.014)" style="fill:#fff;mix-blend-mode:soft-light;isolation:isolate"/>
            </g>
        </g>
        <path data-name="Path 402" d="M348.386 121.994v.08a1.133 1.133 0 0 1-1.252 1.045l-3.522 8.451-.154.37a.787.787 0 0 1 .527.774.754.754 0 0 1-.7.8h-7.067v-16.086a1.068 1.068 0 0 1 .156-.011 1.132 1.132 0 0 1 1.132 1.132v.08a1.133 1.133 0 0 1-.947 1.038l1.264 2.483 1.348 2.648.816 1.6.8 1.579 5.957-4.977a1.127 1.127 0 0 1-.619-.93v-.08a1.132 1.132 0 1 1 2.264 0z" transform="translate(-324.386 -113.417)" style="opacity:.55;isolation:isolate;mix-blend-mode:multiply;fill:#f99b1c"/>
    </g>
</svg>
