<svg xmlns="http://www.w3.org/2000/svg" width="24" height="24" viewBox="0 0 24 24">
    <defs>
        <linearGradient id="0wxsyzc2da" x1="-.035" y1="1.099" x2="1.038" y2="-.107" gradientUnits="objectBoundingBox">
            <stop offset="0" stop-color="#415fff"/>
            <stop offset="1" stop-color="#08dcff"/>
        </linearGradient>
    </defs>
    <path data-name="Rectangle 98" style="fill:none" d="M0 0h24v24H0z"/>
    <path d="M23.839 8.78a3.18 3.18 0 0 0-3.067-2.226H16.4l-1.325-4.137a3.228 3.228 0 0 0-6.147 0L7.6 6.553H3.231a3.228 3.228 0 0 0-1.9 5.833l3.557 2.6-1.353 4.188a3.228 3.228 0 0 0 4.985 3.595L12 20.206l3.483 2.559a3.228 3.228 0 0 0 4.984-3.592l-1.352-4.188 3.561-2.6a3.178 3.178 0 0 0 1.163-3.605zM21.5 10.771 17.351 13.8a1 1 0 0 0-.362 1.116l1.575 4.871a1.227 1.227 0 0 1-1.9 1.365l-4.076-3a1 1 0 0 0-1.184 0l-4.076 3a1.227 1.227 0 0 1-1.9-1.365l1.58-4.871a1 1 0 0 0-.357-1.116l-4.144-3.029a1.227 1.227 0 0 1 .724-2.217h5.1a1 1 0 0 0 .952-.694l1.55-4.832a1.227 1.227 0 0 1 2.336 0l1.55 4.832a1 1 0 0 0 .952.694h5.1a1.227 1.227 0 0 1 .724 2.217z" transform="translate(-.008 .208)" style="fill:url(#0wxsyzc2da)"/>
</svg>
