<svg xmlns="http://www.w3.org/2000/svg" width="16" height="16" viewBox="0 0 16 16">
    <path data-name="Rectangle 228" style="fill:none" d="M0 0h16v16H0z"/>
    <path data-name="Path 280" d="M12.387 1.427 8.211.034a.667.667 0 0 0-.421 0L3.613 1.427a3.329 3.329 0 0 0-2.28 3.162V8c0 5.042 6.133 7.827 6.4 7.943a.667.667 0 0 0 .541 0c.263-.116 6.4-2.9 6.4-7.943V4.589a3.329 3.329 0 0 0-2.279-3.162zM13.333 8c0 3.637-4.213 6.022-5.333 6.593C6.878 14.024 2.667 11.646 2.667 8V4.589a2 2 0 0 1 1.368-1.9L8 1.369l3.965 1.322a2 2 0 0 1 1.368 1.9z" style="fill:#212121"/>
    <path data-name="Path 281" d="m10.2 5.533-2.792 2.8-1.5-1.56a.667.667 0 1 0-.961.924L6.489 9.3a1.248 1.248 0 0 0 .9.4h.022a1.249 1.249 0 0 0 .89-.369l2.848-2.848a.669.669 0 1 0-.945-.947z" style="fill:#212121"/>
</svg>
