<svg xmlns="http://www.w3.org/2000/svg" width="24" height="24.002" viewBox="0 0 24 24.002">
    <path data-name="Rectangle 235" style="fill:none" d="M0 0h24v24H0z"/>
    <g data-name="Group 504">
        <path data-name="share" d="M19.338 14.668a4.653 4.653 0 0 0-3.835 2.024l-6.5-2.939a4.579 4.579 0 0 0 0-3.488l6.496-2.954a4.662 4.662 0 1 0-.826-2.643 4.638 4.638 0 0 0 .08.786l-6.9 3.14a4.665 4.665 0 1 0-.015 6.827l6.92 3.128a4.741 4.741 0 0 0-.079.785 4.662 4.662 0 1 0 4.661-4.666zm0-12.667a2.667 2.667 0 1 1-2.663 2.667 2.665 2.665 0 0 1 2.663-2.667zM4.689 14.668a2.667 2.667 0 1 1 2.663-2.667 2.665 2.665 0 0 1-2.663 2.667zm14.649 7.333a2.667 2.667 0 1 1 2.664-2.667 2.665 2.665 0 0 1-2.664 2.667z"/>
    </g>
</svg>
