<svg data-name="t&amp;c" xmlns="http://www.w3.org/2000/svg" width="24" height="24" viewBox="0 0 24 24">
    <defs>
        <linearGradient id="1jxctiwiua" x1="-.035" y1="1.099" x2="1.038" y2="-.107" gradientUnits="objectBoundingBox">
            <stop offset="0" stop-color="#415fff"/>
            <stop offset="1" stop-color="#08dcff"/>
        </linearGradient>
    </defs>
    <rect data-name="Rectangle 98" width="24" height="24" rx="6" style="fill:none"/>
    <path d="M9.75 10a3 3 0 0 0 0 6h4a3 3 0 0 0 0-6zm5 3a1 1 0 0 1-1 1h-4a1 1 0 0 1 0-2h4a1 1 0 0 1 1 1zm2 6a1 1 0 0 1-1 1h-8a1 1 0 1 1 0-2h8a1 1 0 0 1 1 1zm2.536-15.879-1.658-1.656A4.968 4.968 0 0 0 14.093 0H7.75a5.006 5.006 0 0 0-5 5v14a5.006 5.006 0 0 0 5 5h8a5.006 5.006 0 0 0 5-5V6.657a4.968 4.968 0 0 0-1.464-3.536zm-1.414 1.414A3.1 3.1 0 0 1 18.25 5h-2.5V2.5a2.932 2.932 0 0 1 .464.377zM18.75 19a3 3 0 0 1-3 3h-8a3 3 0 0 1-3-3V5a3 3 0 0 1 3-3h6v3a2 2 0 0 0 2 2h3z" transform="translate(.25)" style="fill:url(#1jxctiwiua)"/>
</svg>
