<svg id="Logo_dark" data-name="Logo dark" xmlns="http://www.w3.org/2000/svg" xmlns:xlink="http://www.w3.org/1999/xlink" width="657.018" height="111.761" viewBox="0 0 657.018 111.761">
  <defs>
    <linearGradient id="linear-gradient" y1="0.5" x2="1" y2="0.5" gradientUnits="objectBoundingBox">
      <stop offset="0" stop-color="#6abdbd"/>
      <stop offset="1" stop-color="#117f7c"/>
    </linearGradient>
    <linearGradient id="linear-gradient-2" y1="0.5" x2="1" y2="0.5" gradientUnits="objectBoundingBox">
      <stop offset="0" stop-color="#579d9e"/>
      <stop offset="1" stop-color="#00615e"/>
    </linearGradient>
    <linearGradient id="linear-gradient-3" x1="-0.189" y1="0.688" x2="1.18" y2="0.095" xlink:href="#linear-gradient"/>
    <linearGradient id="linear-gradient-4" x1="0.562" y1="-0.124" x2="0.457" y2="0.932" gradientUnits="objectBoundingBox">
      <stop offset="0" stop-color="#f07"/>
      <stop offset="1" stop-color="#c60264"/>
    </linearGradient>
    <linearGradient id="linear-gradient-5" x1="12.243" y1="0.374" x2="14.05" y2="0.374" xlink:href="#linear-gradient-4"/>
    <linearGradient id="linear-gradient-6" y1="0.5" x2="1" y2="0.5" gradientUnits="objectBoundingBox">
      <stop offset="0" stop-color="#f07"/>
      <stop offset="1" stop-color="#79003b"/>
    </linearGradient>
    <linearGradient id="linear-gradient-7" x1="0.01" y1="-0.214" x2="0.422" y2="0.373" gradientUnits="objectBoundingBox">
      <stop offset="0" stop-color="#a7c62a"/>
      <stop offset="1" stop-color="#6f8200"/>
    </linearGradient>
    <linearGradient id="linear-gradient-8" x1="0.506" y1="0.25" x2="0.48" y2="1.14" gradientUnits="objectBoundingBox">
      <stop offset="0.004" stop-color="#718b32"/>
      <stop offset="1" stop-color="#3c4e1f"/>
    </linearGradient>
    <linearGradient id="linear-gradient-9" x1="0.426" y1="-0.303" x2="0.688" y2="1.055" xlink:href="#linear-gradient-7"/>
    <linearGradient id="linear-gradient-10" x1="0.406" y1="-0.242" x2="0.54" y2="0.816" gradientUnits="objectBoundingBox">
      <stop offset="0" stop-color="#fda037"/>
      <stop offset="1" stop-color="#c96400"/>
    </linearGradient>
    <linearGradient id="linear-gradient-11" x1="-0.228" y1="-0.007" x2="1.901" y2="1.476" xlink:href="#linear-gradient-10"/>
  </defs>
  <g id="italic" transform="translate(235.31 6.763)">
    <g id="Group_801" data-name="Group 801" transform="translate(155.528)">
      <path id="Path_540" data-name="Path 540" d="M2358.9,817.281l-2.511,13.078h-15.33l0,.016h-18.711l0-.016h-23.2c-.025-.239-.058-.475-.093-.71a16.961,16.961,0,0,0-2.914-7.262,16.093,16.093,0,0,0-6.27-5.106Z" transform="translate(-2289.869 -817.281)" fill="#fff"/>
      <path id="Path_541" data-name="Path 541" d="M2411.113,912.837l-8.924,46.481h18.71l8.924-46.481Z" transform="translate(-2381.222 -895)" fill="#fff"/>
    </g>
    <g id="Group_802" data-name="Group 802" transform="translate(0 0.001)">
      <path id="Path_542" data-name="Path 542" d="M1482.977,857.154l-7.088-39.868H1456.7l13.7,64.348Z" transform="translate(-1456.701 -817.286)" fill="#fff"/>
      <path id="Path_543" data-name="Path 543" d="M1583.7,852.107l-7.519-34.821h-13.1l-33.031,64.3.009.043h15.511l18.842-37.445,7.31,31.233Z" transform="translate(-1516.359 -817.286)" fill="#fff"/>
    </g>
    <path id="Path_544" data-name="Path 544" d="M1864.975,837.521a24.077,24.077,0,0,1-7.586,13.341,24.656,24.656,0,0,1-8.073,4.781,26.776,26.776,0,0,1-3.1.93l10.314,25.034h-17.866l-9.074-24.131h-3.53l-4.633,24.131H1802.67l8.925-46.481h18.755l-1.921,10.005h4.038a34.233,34.233,0,0,0,7.3-.6,7.467,7.467,0,0,0,4.062-2.227,9.776,9.776,0,0,0,2.02-4.687q.882-4.595-1.417-6.289c-1.532-1.129-4.7-.959-9.216-.959h-1.934l.009-.047h-20.769l-7.588-.008-27.314,51.325H1762.45L1795.5,817.29h50.563a25.1,25.1,0,0,1,10.254,1.855,14.654,14.654,0,0,1,6.231,4.825,15,15,0,0,1,2.6,6.451A20.963,20.963,0,0,1,1864.975,837.521Z" transform="translate(-1705.376 -817.288)" fill="#fff"/>
    <g id="Group_803" data-name="Group 803" transform="translate(264.465 36.211)">
      <path id="Path_545" data-name="Path 545" d="M2895.633,1029.879l-.007,0a7.144,7.144,0,0,1-3.3.9,3.385,3.385,0,0,1-2.69-1.19,3.914,3.914,0,0,1-.6-3.436,7.352,7.352,0,0,1,3.465-4.956,39.838,39.838,0,0,1,5.316-2.7l1.39-7.242c-.322.1-.664.214-1.05.336q-1.746.551-5.143,1.608a81.769,81.769,0,0,0-9.715,3.569,19.862,19.862,0,0,0-6.281,4.428,13.463,13.463,0,0,0-3.34,6.85,11.847,11.847,0,0,0,.153,5.309,7.278,7.278,0,0,0,3.268,4.274,13.343,13.343,0,0,0,7.322,1.7,18.474,18.474,0,0,0,8.342-2.009,11.816,11.816,0,0,0,1.646-1.065Z" transform="translate(-2873.448 -1011.264)" fill="#fff"/>
    </g>
    <path id="Path_546" data-name="Path 546" d="M3054.729,938.692l-3.935,20.493h-14.788l4.443-23.142c.015-.078.851-7.868-7.344-7.868-8.025,0-9.99,6.907-10.31,8.329-.086.571-.19,1.18-.315,1.835-.984,5.122-4,20.846-4,20.846H3003.69l4.443-23.142c.015-.078.851-7.868-7.345-7.868-8.432,0-10.177,7.644-10.347,8.516l-4.32,22.494h-14.655l.005-.034h-14.827l-2.58-.011c-.008,0-.562,0-2.535,0-2.453,0-5.372-2.276-4.547-6.328l1.016-5.292.015-.009,2.038-10.618-.015.006,1.37-7.138.015-.006a8.129,8.129,0,0,0-.295-5.111c-.528-1.058-1.926-1.635-4.092-1.785H2933.44l1.951-10.161h13.995l0,.015c8.865.08,12.578,1.331,15.173,3.758q4.026,3.766,2.757,10.375l-3.877,20.2a1.6,1.6,0,0,0,1.611,2h8.365l1.96-10.2c.041-.271.108-.642.177-1a33.828,33.828,0,0,1,3.607-10.035,30.175,30.175,0,0,1,6.446-8.159,27.287,27.287,0,0,1,8.661-5.26,27.7,27.7,0,0,1,9.671-1.712,21.927,21.927,0,0,1,9.866,2.042,15.819,15.819,0,0,1,5.173,4.071,27.075,27.075,0,0,1,7.607-4.4,27.7,27.7,0,0,1,9.673-1.712,21.924,21.924,0,0,1,9.864,2.042,15.55,15.55,0,0,1,6.418,5.811,19.808,19.808,0,0,1,2.729,8.264A30.245,30.245,0,0,1,3054.729,938.692Z" transform="translate(-2657.776 -894.864)" fill="#fff"/>
    <g id="Group_804" data-name="Group 804" transform="translate(214.124 17.839)">
      <path id="Path_547" data-name="Path 547" d="M2603.774,940.186h15.97l0-.012h30.5l.615-3.2q1.641-8.547-.526-13.956a14.5,14.5,0,0,0-6.681-7.79,20.8,20.8,0,0,0-9.851-2.381,32.761,32.761,0,0,0-14.35,3,26.272,26.272,0,0,0-10.091,8.28,29.917,29.917,0,0,0-5.114,11.953,20.9,20.9,0,0,0-.47,3.506C2603.761,939.794,2603.783,939.981,2603.774,940.186Zm20.419-14.858a9.725,9.725,0,0,1,6.771-2.648q3.916,0,5.5,2.6t.75,6.966h-16.742A12.205,12.205,0,0,1,2624.193,925.329Z" transform="translate(-2603.771 -912.843)" fill="#fff"/>
      <path id="Path_548" data-name="Path 548" d="M2620.829,1077.823H2604.1c.073.663.139,1.327.274,1.978a15.771,15.771,0,0,0,3.63,7.323,17.254,17.254,0,0,0,6.969,4.7,25.973,25.973,0,0,0,9.54,1.65c.356,0,.722-.006,1.047-.016h6.822l2.245-11.694h-6.8C2627.547,1081.764,2622.837,1081.66,2620.829,1077.823Z" transform="translate(-2604.04 -1047.026)" fill="#fff"/>
    </g>
  </g>
  <g id="Group_805" data-name="Group 805">
    <path id="Path_549" data-name="Path 549" d="M942.847,781.052l-27.793,96.376c-.378,1.145-.732,2.23-1.068,3.255-2.475,7.535-4.036,11.769-7.876,12.13H864.231L881.106,834.3l1.636-5.673h0l13.719-47.571Z" transform="translate(-739.518 -781.052)" fill="url(#linear-gradient)"/>
    <path id="Path_550" data-name="Path 550" d="M987.228,1087.955c-2.475,7.535-4.036,11.769-7.876,12.13h-5.926l-3.263-2.87-15.814-55.646-.065-.23,1.7-5.443.152.494q.215.707.433,1.41.34,1.107.684,2.211.45,1.449.905,2.894.544,1.734,1.1,3.466.624,1.962,1.256,3.921.687,2.132,1.385,4.261.736,2.246,1.484,4.488.77,2.3,1.554,4.6t1.592,4.6q.788,2.242,1.6,4.477.774,2.126,1.578,4.243.743,1.954,1.525,3.9c.464,1.15.941,2.3,1.441,3.433.423.961.859,1.916,1.328,2.856a12.113,12.113,0,0,0,2.007,3.214,5.874,5.874,0,0,0,2.928,1.607,5.206,5.206,0,0,0,1.839.035,7.724,7.724,0,0,0,2.468-.856A16.245,16.245,0,0,0,987.228,1087.955Z" transform="translate(-812.76 -988.324)" fill="url(#linear-gradient-2)"/>
    <path id="Path_551" data-name="Path 551" d="M1061.854,862.273l23.422-81.218h-45.927C1040.935,807.112,1048.392,838.781,1061.854,862.273Z" transform="translate(-881.946 -781.054)" fill="url(#linear-gradient-3)"/>
    <path id="Path_552" data-name="Path 552" d="M705.12,892.818H658.733c-4.464-.421-5.995-6.028-9.163-16.052-.082-.258-4.371-15.048-9.231-31.813-.961-3.311-1.943-6.7-2.921-10.07-5.505-18.989-10.832-37.354-10.964-37.773-3.169-10.025-4.7-15.631-9.164-16.052h46.237c3.355.316,5.053,3.561,7.034,9.41,0,0,0,0,0,0,.655,1.932,1.34,4.148,2.126,6.637.275.868,22.99,78.788,23.265,79.656C699.124,886.789,700.655,892.4,705.12,892.818Z" transform="translate(-538.674 -781.057)" fill="url(#linear-gradient-4)"/>
    <path id="Path_553" data-name="Path 553" d="M759.918,1125.184c-4.513-16.448-16.83-34.886-28.741-34.886,5.547,19.131,10.928,37.693,11.02,37.982,3.168,10.024,4.7,15.631,9.163,16.052h20.951C767.262,1142.473,762.149,1133.311,759.918,1125.184Z" transform="translate(-631.301 -1032.571)" fill="url(#linear-gradient-5)"/>
    <path id="Path_554" data-name="Path 554" d="M754.6,790.468c-.055-.122-.116-.241-.18-.358a6.206,6.206,0,0,0-6.167-2.943,5.1,5.1,0,0,0-3.1,1.342,10.472,10.472,0,0,0-1.891,2.792c-.04.078-.08.156-.121.234-1.322,2.567-2.477,5.209-3.564,7.883-1.092,2.689-2.1,5.413-3.092,8.14-1.925,5.3-3.726,10.641-5.47,16q-2.257,6.936-4.388,13.913-1.107,3.615-2.179,7.239l-.071.243-3.726,3.648c-.178,0,.394-8.162.805-13.718.212-2.868.381-5.042.381-5.042l10.027-32.723,7.626-12.4,3.223-3.661h4.853C750.924,781.374,752.623,784.619,754.6,790.468Z" transform="translate(-622.715 -781.057)" fill="url(#linear-gradient-6)"/>
    <path id="Path_555" data-name="Path 555" d="M274.754,892.818h-41.88c-3.785-.357-5.356-4.476-7.772-11.813q-.55-1.674-1.172-3.572l-27.794-96.375h46.386l13.619,47.224.4,1.388Z" transform="translate(-196.137 -781.057)" fill="url(#linear-gradient-7)"/>
    <path id="Path_556" data-name="Path 556" d="M383.943,1041.336l-.065.23-15.814,55.646-3.263,2.87h-5.722c-3.785-.357-5.356-4.476-7.772-11.813a15.606,15.606,0,0,0,3.682,2.869,7.727,7.727,0,0,0,2.468.856,5.21,5.21,0,0,0,1.839-.035,5.873,5.873,0,0,0,2.928-1.607,12.12,12.12,0,0,0,2.007-3.214c.469-.94.905-1.895,1.328-2.856q.748-1.7,1.441-3.433.785-1.94,1.525-3.9.806-2.116,1.578-4.243.814-2.235,1.6-4.477c.538-1.53,10.683-32.14,10.744-32.34l.3,1.041Z" transform="translate(-322.341 -988.322)" fill="url(#linear-gradient-8)"/>
    <path id="Path_557" data-name="Path 557" d="M222.234,871.542c2.347-26.583,11.253-52.539,24.4-76.239l-4.109-14.248H196.138Z" transform="translate(-196.138 -781.054)" fill="url(#linear-gradient-9)"/>
    <path id="Path_558" data-name="Path 558" d="M472.392,797.107c-.274.868-22.927,79.06-23.116,79.657-3.168,10.024-4.7,15.631-9.163,16.052H393.727c4.464-.421,6-6.028,9.163-16.052.275-.868,22.99-78.789,23.265-79.657,3.168-10.024,4.7-15.631,9.163-16.052h46.237C477.092,781.476,475.56,787.083,472.392,797.107Z" transform="translate(-356.843 -781.054)" fill="url(#linear-gradient-10)"/>
    <path id="Path_559" data-name="Path 559" d="M415.77,892.815c5.693-10.785,10.293-22.072,15.537-33.108a188.626,188.626,0,0,1,21.781-35.039A210.586,210.586,0,0,1,469.8,806.009c1.543-5.315,2.534-8.725,2.591-8.9,3.168-10.024,4.7-15.631,9.163-16.052H435.318c-4.464.421-6,6.028-9.163,16.052-.274.868-22.99,78.788-23.265,79.657-3.168,10.024-4.7,15.631-9.163,16.052Z" transform="translate(-356.843 -781.054)" fill="url(#linear-gradient-11)"/>
  </g>
  <path id="Path_561" data-name="Path 561" d="M6.41,54.466l5.06-9.456h1.339L7.038,55.639v6.695H5.818v-6.6L0,45.01H1.351Zm31.252-.818a12.657,12.657,0,0,1-.486,3.614,7.967,7.967,0,0,1-1.457,2.82A6.555,6.555,0,0,1,33.3,61.919a8.193,8.193,0,0,1-3.383.652,8.266,8.266,0,0,1-3.4-.652,6.465,6.465,0,0,1-2.423-1.843,8.079,8.079,0,0,1-1.452-2.832,12.719,12.719,0,0,1-.486-3.62,11.261,11.261,0,0,1,.895-4.633,7.037,7.037,0,0,1,2.642-3.128,7.818,7.818,0,0,1,4.319-1.126,7.718,7.718,0,0,1,4.177,1.072,6.716,6.716,0,0,1,2.595,3.069A11.737,11.737,0,0,1,37.663,53.648Zm-14.231-.012a11.1,11.1,0,0,0,.7,4.094A5.881,5.881,0,0,0,26.276,60.5a6.291,6.291,0,0,0,3.65,1,6.335,6.335,0,0,0,3.661-.983,5.771,5.771,0,0,0,2.121-2.749,11.3,11.3,0,0,0,.687-4.112,9.091,9.091,0,0,0-1.617-5.759,5.708,5.708,0,0,0-4.769-2.05,6.456,6.456,0,0,0-3.679.983,5.887,5.887,0,0,0-2.18,2.737A10.716,10.716,0,0,0,23.432,53.636Zm38.8-8.626V56.219a7.028,7.028,0,0,1-.782,3.442A5.208,5.208,0,0,1,59.2,61.824a7.623,7.623,0,0,1-3.5.747,5.81,5.81,0,0,1-6.41-6.4V45.01H50.5V56.172a5.371,5.371,0,0,0,1.357,3.964,5.285,5.285,0,0,0,3.9,1.357,6.2,6.2,0,0,0,2.844-.6A4.083,4.083,0,0,0,60.4,59.14a5.887,5.887,0,0,0,.616-2.8V45.01Zm16.737,0a11.245,11.245,0,0,1,3.442.45,3.856,3.856,0,0,1,2.08,1.481,5.736,5.736,0,0,1,.219,5.042,4.247,4.247,0,0,1-1.321,1.546,6.32,6.32,0,0,1-1.943.924l4.752,7.88H84.752L80.284,54.8h-4.3v7.536h-1.22V45.01Zm-.118,1.078H75.983v7.631h3.448A4.936,4.936,0,0,0,82.743,52.7a3.64,3.64,0,0,0,1.191-2.927,3.15,3.15,0,0,0-1.256-2.891A7.3,7.3,0,0,0,78.851,46.088Zm50.94-1.078-4.728,17.324h-1.185l-3.709-13.082q-.13-.415-.231-.788t-.19-.711q-.089-.338-.166-.64t-.124-.551l-.1.527q-.053.278-.124.575t-.154.616q-.083.32-.178.664l-3.7,13.39h-1.2L109.339,45.01h1.256l3.259,12.217q.13.486.243.924T114.3,59l.184.794q.089.385.16.776.083-.391.166-.794t.184-.818q.1-.415.213-.859t.255-.93l3.4-12.157h1.22l3.531,12.228q.142.51.261.96t.213.859q.095.409.178.794t.166.776q.095-.533.2-1.049t.243-1.084q.142-.569.32-1.244l3.33-12.24Zm25.434,8.638a12.657,12.657,0,0,1-.486,3.614,7.968,7.968,0,0,1-1.457,2.82,6.555,6.555,0,0,1-2.423,1.837,9.152,9.152,0,0,1-6.784,0,6.465,6.465,0,0,1-2.423-1.843,8.078,8.078,0,0,1-1.452-2.832,12.719,12.719,0,0,1-.486-3.62,11.261,11.261,0,0,1,.895-4.633,7.036,7.036,0,0,1,2.642-3.128,7.818,7.818,0,0,1,4.319-1.126,7.718,7.718,0,0,1,4.177,1.072,6.716,6.716,0,0,1,2.595,3.069A11.737,11.737,0,0,1,155.225,53.648Zm-14.231-.012a11.1,11.1,0,0,0,.7,4.094,5.881,5.881,0,0,0,2.145,2.767,7.247,7.247,0,0,0,7.311.012,5.771,5.771,0,0,0,2.121-2.749,11.3,11.3,0,0,0,.687-4.112,9.091,9.091,0,0,0-1.617-5.759,5.708,5.708,0,0,0-4.769-2.05,6.456,6.456,0,0,0-3.679.983,5.887,5.887,0,0,0-2.18,2.737A10.716,10.716,0,0,0,140.994,53.636Zm30.245-8.626a11.245,11.245,0,0,1,3.442.45,3.856,3.856,0,0,1,2.08,1.481,5.736,5.736,0,0,1,.219,5.042,4.247,4.247,0,0,1-1.321,1.546,6.32,6.32,0,0,1-1.943.924l4.752,7.88h-1.446L172.554,54.8h-4.3v7.536h-1.22V45.01Zm-.118,1.078h-2.868v7.631H171.7a4.936,4.936,0,0,0,3.312-1.019,3.64,3.64,0,0,0,1.191-2.927,3.15,3.15,0,0,0-1.256-2.891A7.3,7.3,0,0,0,171.121,46.088Zm29.83,16.245H199.47L192.763,53.2l-2.251,2.168v6.967h-1.22V45.01h1.22v9.112q.438-.5.918-1T192.4,52.1l6.837-7.086h1.517l-7.086,7.335ZM229.626,45.01a7.539,7.539,0,0,1,4.633,1.185,4.355,4.355,0,0,1,1.54,3.685,5.9,5.9,0,0,1-.409,2.269,4.213,4.213,0,0,1-1.226,1.665,5.489,5.489,0,0,1-2.044,1.019,10.658,10.658,0,0,1-2.862.344h-2.666v7.157h-1.22V45.01Zm-.13,1.078h-2.9V54.1h2.548a9.58,9.58,0,0,0,2.891-.385,3.515,3.515,0,0,0,1.86-1.3,4.209,4.209,0,0,0,.652-2.488,3.4,3.4,0,0,0-1.232-2.921A6.4,6.4,0,0,0,229.5,46.088Zm28.752,16.245-2.358-6.126h-7.275l-2.405,6.126h-1.244l6.813-17.383h1.114l6.636,17.383ZM255.5,55.105l-2.394-6.493q-.095-.249-.231-.64t-.284-.829q-.148-.438-.29-.829-.119.415-.261.829t-.273.8q-.13.385-.249.693l-2.488,6.47Zm18.526-10.1a11.245,11.245,0,0,1,3.442.45,3.856,3.856,0,0,1,2.08,1.481,5.736,5.736,0,0,1,.219,5.042,4.248,4.248,0,0,1-1.321,1.546,6.32,6.32,0,0,1-1.943.924l4.752,7.88h-1.446L275.341,54.8h-4.3v7.536h-1.22V45.01Zm-.118,1.078h-2.868v7.631h3.448A4.936,4.936,0,0,0,277.8,52.7a3.64,3.64,0,0,0,1.191-2.927,3.15,3.15,0,0,0-1.256-2.891A7.3,7.3,0,0,0,273.907,46.088Zm22.7,16.245h-1.232V46.112h-5.616v-1.1h12.465v1.1H296.6Zm28.646,0h-1.244L313.768,47.012h-.059q.024.64.041,1.3t.036,1.351q.018.693.018,1.428V62.333h-1.161V45.01H313.9l10.2,15.274h.059q-.012-.521-.03-1.209t-.036-1.41q-.018-.723-.018-1.363V45.01h1.173Zm22.2,0h-9.467V45.01h9.467v1.1H339.2v6.564h7.785v1.1H339.2v7.453h8.247ZM363.428,45.01a11.245,11.245,0,0,1,3.442.45,3.856,3.856,0,0,1,2.08,1.481,5.736,5.736,0,0,1,.219,5.042,4.247,4.247,0,0,1-1.321,1.546,6.32,6.32,0,0,1-1.943.924l4.752,7.88H369.21L364.743,54.8h-4.3v7.536h-1.22V45.01Zm-.118,1.078h-2.868v7.631h3.448A4.936,4.936,0,0,0,367.2,52.7a3.64,3.64,0,0,0,1.191-2.927,3.15,3.15,0,0,0-1.256-2.891A7.3,7.3,0,0,0,363.309,46.088Z" transform="translate(248.604 39.757)" fill="#fff"/>
  <g id="Group_806" data-name="Group 806" transform="translate(641.78 6.117)">
    <path id="Path_560" data-name="Path 560" d="M3647.779,821.441h0a6,6,0,0,0-5.986-5.988v0h0v0a6,6,0,0,0-5.988,5.987h0v0h0a5.986,5.986,0,0,0,5.986,5.988v0h0v0a5.971,5.971,0,0,0,4.233-1.757,6.033,6.033,0,0,0,.5-.561,5.971,5.971,0,0,0,1.257-3.673Zm-8.657,3.065v-6.322h3.256a4.692,4.692,0,0,1,1.384.156,1.465,1.465,0,0,1,.773.575,1.743,1.743,0,0,1,.292,1.023,1.689,1.689,0,0,1-.841,1.528,2.336,2.336,0,0,1-.686.248,1.972,1.972,0,0,1,.51.234,2.118,2.118,0,0,1,.312.331,2.485,2.485,0,0,1,.274.393l.945,1.833h-2.209l-1.044-1.933a1.5,1.5,0,0,0-.355-.487.825.825,0,0,0-.479-.146h-.173v2.566h-1.962Zm1.963-3.761h.825a2.987,2.987,0,0,0,.517-.086.521.521,0,0,0,.317-.2.589.589,0,0,0,.123-.366.578.578,0,0,0-.195-.47,1.167,1.167,0,0,0-.729-.165h-.858v1.285Zm8.322.694h0a7.584,7.584,0,0,1-1.6,4.673,7.756,7.756,0,0,1-.63.714,7.6,7.6,0,0,1-5.386,2.23v0h0v0a7.611,7.611,0,0,1-7.612-7.614h0v0h0a7.608,7.608,0,0,1,7.614-7.613v0h0v0a7.608,7.608,0,0,1,7.612,7.614Z" transform="translate(-3634.173 -813.822)" fill="#fff"/>
  </g>
</svg>
