<svg xmlns="http://www.w3.org/2000/svg" xmlns:xlink="http://www.w3.org/1999/xlink" width="504" height="504" viewBox="0 0 504 504">
    <defs>
        <linearGradient id="t78l2m35ca" x1=".146" y1=".888" x2=".764" y2=".211" gradientUnits="objectBoundingBox">
            <stop offset="0" stop-color="#415fff"/>
            <stop offset="1" stop-color="#08dcff"/>
        </linearGradient>
        <linearGradient id="krtkthk0kb" x1="-1.571" y1=".001" x2="3.547" y2="1.355" xlink:href="#t78l2m35ca"/>
        <linearGradient id="eu96s06btc" x1="-8.537" y1="-.234" x2="8.136" y2="1.12" xlink:href="#t78l2m35ca"/>
        <linearGradient id="r21e0wzycd" x1="-3.312" y1="-.779" x2="2.201" y2="1.003" xlink:href="#t78l2m35ca"/>
        <linearGradient id="7ie25r5eke" x1="-4.467" y1="-1.042" x2="1.167" y2=".708" xlink:href="#t78l2m35ca"/>
    </defs>
    <path style="fill:none" d="M0 0h504v504H0z"/>
    <g transform="translate(-248.06 -420.06)">
        <rect width="314.225" height="314.225" rx="157.112" transform="translate(342.948 437.06)" style="fill:url(#t78l2m35ca)"/>
        <path data-name="Path 434" d="m762.769 689.465-95.2 54.962a.41.41 0 0 1-.046.03l-3.364 1.942-1.271.722-.021.008-3.415 1.938a11.653 11.653 0 0 1-14.2-1.993 11.532 11.532 0 0 1-1.045-1.242 11.652 11.652 0 0 1 3.6-16.943l2.618-1.51 4.883-2.81 12.115-6.968.054-.025c.1-.05.21-.109.315-.172l5.563-3.21 34.935-20.173 26.852-15.5a6.052 6.052 0 0 0 0-10.479l-67.35-38.887a6.052 6.052 0 0 0-9.078 5.24v18.055a11.649 11.649 0 0 1-23.3 0v-36.518a18.69 18.69 0 0 1 28.039-16.184l99.319 57.34a18.692 18.692 0 0 1-.003 32.377z" transform="translate(-192.881 -79.749)" style="fill:#fff"/>
        <g data-name="Group 743">
            <path data-name="Path 435" d="M641.114 786.783a5.7 5.7 0 1 1 0-11.406h25.06a5.7 5.7 0 1 1 0 11.406z" transform="translate(-192.881 -168.465)" style="fill:#fff"/>
            <path data-name="Path 436" d="M666.072 786.885a5.709 5.709 0 0 1-5.7-5.7v-25.06a5.7 5.7 0 1 1 11.406 0v25.06a5.709 5.709 0 0 1-5.706 5.7z" transform="translate(-205.309 -156.037)" style="fill:#fff"/>
        </g>
        <g>
            <path data-name="Path 439" d="m298.988 1230.132-15.684 51.38h-.582l-15.689-51.38H248.06l23.667 70.147H294.3l23.667-70.147z" transform="translate(0 -394.909)" style="fill:#060e33"/>
            <path data-name="Path 440" d="M402.166 1243.117v52.61h16.748v-52.61zm14.474-19.781a9.036 9.036 0 0 0-12.145 0 7.57 7.57 0 0 0 0 11.306 9.036 9.036 0 0 0 12.145 0 7.61 7.61 0 0 0 0-11.306z" transform="translate(-76.634 -390.358)" style="fill:#060e33"/>
            <path data-name="Path 441" d="M489.433 1230.132v26.543h-.341a17.337 17.337 0 0 0-2.912-4.624 14.891 14.891 0 0 0-4.865-3.645 16.168 16.168 0 0 0-7.089-1.421 19.589 19.589 0 0 0-10.292 2.877 20.538 20.538 0 0 0-7.727 8.871q-2.945 5.994-2.947 15.272 0 8.947 2.847 14.971a20.856 20.856 0 0 0 7.6 9.042 19.389 19.389 0 0 0 10.583 3.012 16.871 16.871 0 0 0 6.9-1.3 14.539 14.539 0 0 0 4.88-3.424 16.612 16.612 0 0 0 3.017-4.559h.512v8.53h16.578v-70.147zm-.788 51.24a10.888 10.888 0 0 1-3.324 4.88 8.766 8.766 0 0 1-10.463 0 10.735 10.735 0 0 1-3.273-4.88 24.832 24.832 0 0 1-.015-14.76 10.489 10.489 0 0 1 3.268-4.83 8.978 8.978 0 0 1 10.5-.035 10.389 10.389 0 0 1 3.324 4.795 24.336 24.336 0 0 1-.015 14.831z" transform="translate(-102.179 -394.909)" style="fill:#060e33"/>
            <path data-name="Path 442" d="M627.371 1294.734v-4.182a32.556 32.556 0 0 0-1.883-11.487 23.586 23.586 0 0 0-5.271-8.445 22.1 22.1 0 0 0-8.053-5.171 29.021 29.021 0 0 0-10.272-1.747 26.944 26.944 0 0 0-13.806 3.409 23.4 23.4 0 0 0-9.077 9.519 30.223 30.223 0 0 0-3.218 14.268 30.667 30.667 0 0 0 3.2 14.469 22.241 22.241 0 0 0 9.177 9.348 29.2 29.2 0 0 0 14.233 3.273 32.318 32.318 0 0 0 12.125-2.109 21.241 21.241 0 0 0 8.48-5.924 19.009 19.009 0 0 0 4.192-8.992l-15.378-.442a7.439 7.439 0 0 1-1.953 2.942 8.6 8.6 0 0 1-3.118 1.817 12.483 12.483 0 0 1-4.042.618 10.987 10.987 0 0 1-5.548-1.335 9.145 9.145 0 0 1-3.595-3.75 11.987 11.987 0 0 1-1.27-5.638v-.442zm-33.7-14.3a9.493 9.493 0 0 1 3.529-3.389 10.111 10.111 0 0 1 5.036-1.25 10 10 0 0 1 4.915 1.18 8.805 8.805 0 0 1 3.374 3.273 9.377 9.377 0 0 1 1.265 4.759h-19.477a9.591 9.591 0 0 1 1.355-4.577z" transform="translate(-163.193 -411.625)" style="fill:#060e33"/>
            <path data-name="Path 443" d="M741.584 1276.63a23.075 23.075 0 0 0-9.142-9.519 31.408 31.408 0 0 0-28.461 0 23.086 23.086 0 0 0-9.147 9.519 33.147 33.147 0 0 0 0 28.431 23.116 23.116 0 0 0 9.147 9.519 31.408 31.408 0 0 0 28.461 0 23.1 23.1 0 0 0 9.142-9.519 33.147 33.147 0 0 0 0-28.431zm-14.966 21.734a11.67 11.67 0 0 1-3.2 5.136 7.412 7.412 0 0 1-5.1 1.853 7.748 7.748 0 0 1-5.257-1.853 11.391 11.391 0 0 1-3.253-5.136 26.733 26.733 0 0 1 0-15.277 11.391 11.391 0 0 1 3.253-5.136 7.747 7.747 0 0 1 5.257-1.853 7.411 7.411 0 0 1 5.1 1.853 11.67 11.67 0 0 1 3.2 5.136 26.735 26.735 0 0 1 0 15.277z" transform="translate(-220.875 -411.625)" style="fill:#060e33"/>
            <path data-name="Path 444" d="M907.425 1241.724a21.766 21.766 0 0 0-8.856-8.525 28.511 28.511 0 0 0-13.616-3.068H855.98v13.669h25.308a14.277 14.277 0 0 1 6.406 1.3 9.024 9.024 0 0 1 3.941 3.685 12.548 12.548 0 0 1 0 11.266 9.165 9.165 0 0 1-3.921 3.75 13.872 13.872 0 0 1-6.426 1.341h-8.354v-.015H855.98v35.154h16.954v-21.784h11.507a30.367 30.367 0 0 0 13.907-2.977 21.452 21.452 0 0 0 9.027-8.409 24.767 24.767 0 0 0 3.168-12.692 25.177 25.177 0 0 0-3.118-12.695z" transform="translate(-302.713 -394.909)" style="fill:url(#krtkthk0kb)"/>
            <path data-name="Path 445" d="M981.23 1230.132v70.147h16.748v-70.147z" transform="translate(-365.081 -394.909)" style="fill:url(#eu96s06btc)"/>
            <path data-name="Path 446" d="M1069.684 1265.062v29.9a10.663 10.663 0 0 1-1.18 5.191 8.12 8.12 0 0 1-3.188 3.253 9.1 9.1 0 0 1-4.5 1.109 7.751 7.751 0 0 1-6.065-2.465 9.839 9.839 0 0 1-2.259-6.748v-30.244h-16.752v33.532a22.948 22.948 0 0 0 2.294 10.4 16.752 16.752 0 0 0 6.336 6.9 19.433 19.433 0 0 0 19.575-.356 15.254 15.254 0 0 0 5.944-7.656h.547v9.8h15.96v-52.61z" transform="translate(-392.224 -412.303)" style="fill:url(#r21e0wzycd)"/>
            <path data-name="Path 447" d="M1198.892 1290.9q-3.848-3.494-11.728-5l-10.141-1.918a10.366 10.366 0 0 1-4.6-1.817 3.336 3.336 0 0 1-1.25-2.671 3.445 3.445 0 0 1 2-3.153 10.96 10.96 0 0 1 8.871-.427 7.288 7.288 0 0 1 2.756 2.018 5.846 5.846 0 0 1 1.3 2.932l15.378-.412a16.1 16.1 0 0 0-6.813-12.28q-6.168-4.466-16.854-4.468a34.947 34.947 0 0 0-12.366 1.983 17.746 17.746 0 0 0-8.083 5.738 14.345 14.345 0 0 0-2.807 9.027 13.337 13.337 0 0 0 3.836 9.915q3.871 3.886 11.783 5.327l9.177 1.747a12.687 12.687 0 0 1 4.83 1.692 3.434 3.434 0 0 1 1.576 2.862 3.68 3.68 0 0 1-2.053 3.183 10.15 10.15 0 0 1-5.241 1.2 10.487 10.487 0 0 1-5.859-1.506 6.459 6.459 0 0 1-2.842-4.383l-16.543.412a17.207 17.207 0 0 0 7.415 12.451q6.492 4.639 17.758 4.639a33.357 33.357 0 0 0 12.536-2.209 20.507 20.507 0 0 0 8.65-6.215 14.934 14.934 0 0 0 3.2-9.418 11.991 11.991 0 0 0-3.886-9.249z" transform="translate(-450.723 -411.625)" style="fill:url(#7ie25r5eke)"/>
        </g>
    </g>
</svg>
